<svg xmlns="http://www.w3.org/2000/svg" xmlns:xlink="http://www.w3.org/1999/xlink" width="500" zoomAndPan="magnify" viewBox="0 0 375 374.999991" height="500" preserveAspectRatio="xMidYMid meet" version="1.0"><defs><clipPath id="4d939713e6"><path d="M 8.140625 1.792969 L 366.640625 1.792969 L 366.640625 373 L 8.140625 373 Z M 8.140625 1.792969 " clip-rule="nonzero"/></clipPath></defs><g clip-path="url(#4d939713e6)"><path fill="currentColor" d="M 283.894531 1.953125 C 283.574219 1.953125 283.257812 1.976562 282.941406 2.027344 L 226.121094 11.269531 C 213.367188 13.34375 200.351562 14.394531 187.429688 14.394531 C 174.507812 14.394531 161.488281 13.34375 148.734375 11.269531 L 91.917969 2.027344 C 91.601562 1.976562 91.28125 1.949219 90.964844 1.949219 C 90.363281 1.949219 89.761719 2.042969 89.1875 2.222656 C 87.550781 2.738281 49.035156 15.15625 38.113281 46.105469 C 28.941406 72.085938 33.808594 99.488281 36.21875 109.71875 C 28.121094 116.25 9.527344 135.226562 8.199219 172.464844 C 8.160156 173.53125 8.410156 174.589844 8.921875 175.523438 L 47.972656 246.988281 C 49 248.867188 50.957031 250.046875 53.097656 250.078125 C 53.125 250.078125 53.152344 250.078125 53.179688 250.078125 C 55.289062 250.078125 57.242188 248.960938 58.304688 247.132812 C 72.785156 222.304688 72.984375 200.007812 72.554688 192.570312 L 83.824219 178.007812 C 85.523438 180.835938 87.777344 184.136719 90.710938 187.660156 C 96.824219 195.003906 99.425781 204.75 97.84375 214.402344 L 91.351562 254.097656 C 91.292969 254.453125 91.269531 254.808594 91.273438 255.164062 L 92.359375 315.199219 C 92.378906 316.304688 92.707031 317.382812 93.308594 318.3125 C 93.667969 318.871094 102.332031 332.160156 117.960938 345.539062 C 127.179688 353.433594 136.945312 359.734375 146.976562 364.269531 C 159.652344 369.996094 172.773438 372.902344 185.984375 372.902344 C 199.171875 372.902344 212.429688 370.003906 225.390625 364.292969 C 235.640625 359.773438 245.71875 353.492188 255.347656 345.625 C 271.667969 332.292969 281.03125 319.058594 281.421875 318.5 C 282.105469 317.53125 282.476562 316.382812 282.5 315.199219 L 283.585938 255.164062 C 283.589844 254.808594 283.566406 254.449219 283.507812 254.097656 L 277.011719 214.402344 C 275.433594 204.75 278.035156 195.003906 284.148438 187.660156 C 287.082031 184.136719 289.335938 180.835938 291.035156 178.007812 L 302.300781 192.570312 C 301.875 200.007812 302.070312 222.304688 316.550781 247.132812 C 317.617188 248.957031 319.570312 250.078125 321.675781 250.078125 C 321.703125 250.078125 321.730469 250.078125 321.761719 250.078125 C 323.902344 250.046875 325.859375 248.867188 326.882812 246.988281 L 365.9375 175.523438 C 366.445312 174.589844 366.695312 173.53125 366.660156 172.464844 C 365.328125 135.226562 346.738281 116.25 338.640625 109.714844 C 341.046875 99.488281 345.914062 72.085938 336.746094 46.105469 C 325.820312 15.15625 287.304688 2.738281 285.671875 2.222656 C 285.09375 2.042969 284.496094 1.953125 283.894531 1.953125 Z M 283.894531 1.953125 " fill-opacity="1" fill-rule="nonzero"/></g><path fill="currentColor" d="M 123.828125 22.769531 C 123.828125 22.769531 96.203125 8.957031 76.78125 17.589844 C 57.359375 26.222656 34.484375 40.902344 46.140625 107.8125 C 46.140625 107.8125 76.78125 84.933594 81.097656 68.097656 C 85.414062 51.261719 103.972656 24.066406 123.828125 22.769531 Z M 123.828125 22.769531 " fill-opacity="1" fill-rule="nonzero"/><path fill="currentColor" d="M 177.378906 39.203125 C 180.839844 41.246094 182.957031 44.96875 182.957031 48.988281 L 182.957031 83.648438 C 182.957031 90.105469 178.46875 95.515625 172.445312 96.929688 C 168.960938 97.746094 165.484375 98.578125 162.09375 99.714844 L 125.117188 112.128906 C 117.984375 112.128906 111.257812 108.796875 106.96875 103.101562 C 102.40625 97.039062 94.527344 89.832031 82.136719 87.976562 C 79.535156 87.585938 78.261719 84.605469 79.820312 82.484375 C 84.015625 76.765625 90.355469 67.167969 92.320312 59.03125 C 95.339844 46.511719 119.078125 24.929688 135.480469 23.632812 C 147.582031 22.679688 167.679688 33.480469 177.378906 39.203125 Z M 177.378906 39.203125 " fill-opacity="1" fill-rule="nonzero"/><path fill="currentColor" d="M 79.140625 103.695312 L 79.140625 125.078125 C 79.140625 125.078125 69.429688 177.414062 43.265625 197.273438 C 39.460938 200.160156 33.953125 197.792969 33.402344 193.046875 L 30.363281 166.980469 C 29.671875 161.011719 30.464844 154.960938 32.675781 149.375 L 47.433594 112.128906 C 47.433594 112.128906 63.832031 101.335938 70.738281 95.292969 C 75.378906 95.292969 79.140625 99.054688 79.140625 103.695312 Z M 79.140625 103.695312 " fill-opacity="1" fill-rule="nonzero"/><path fill="currentColor" d="M 33.453125 128.667969 C 34.65625 127.714844 36.300781 129.132812 35.554688 130.472656 C 32.101562 136.679688 26.875 147.453125 26.042969 157.066406 C 25.222656 166.542969 25.46875 179.929688 25.742188 188.121094 C 25.800781 189.863281 23.460938 190.476562 22.65625 188.933594 L 18.644531 181.253906 C 16.9375 177.984375 16.101562 174.324219 16.253906 170.636719 C 16.671875 160.453125 19.339844 139.851562 33.453125 128.667969 Z M 33.453125 128.667969 " fill-opacity="1" fill-rule="nonzero"/><path fill="currentColor" d="M 80.761719 144.203125 L 80.761719 150.71875 C 80.761719 153.527344 80.269531 156.3125 79.28125 158.941406 C 77.167969 164.578125 72.707031 174.371094 65.382812 180.917969 C 64.605469 181.613281 63.433594 180.726562 63.890625 179.789062 C 67.34375 172.730469 74.75 156.980469 78.777344 143.898438 C 79.121094 142.785156 80.761719 143.035156 80.761719 144.203125 Z M 80.761719 144.203125 " fill-opacity="1" fill-rule="nonzero"/><path fill="currentColor" d="M 182.957031 150.96875 L 182.957031 179.613281 C 182.957031 181.777344 181.203125 183.53125 179.039062 183.53125 L 153.367188 183.53125 C 150.839844 183.53125 148.503906 182.179688 147.238281 179.992188 L 144.253906 174.828125 C 141.457031 169.992188 142.605469 163.84375 146.960938 160.34375 C 153.648438 154.96875 164.6875 148.175781 178.691406 147.066406 C 180.984375 146.882812 182.957031 148.667969 182.957031 150.96875 Z M 182.957031 150.96875 " fill-opacity="1" fill-rule="nonzero"/><path fill="currentColor" d="M 178.222656 240.511719 L 159.972656 240.511719 C 155.34375 240.511719 151.59375 236.757812 151.59375 232.132812 L 151.59375 198.839844 C 151.59375 194.210938 155.34375 190.460938 159.972656 190.460938 L 178.222656 190.460938 C 180.835938 190.460938 182.957031 192.578125 182.957031 195.195312 L 182.957031 235.773438 C 182.957031 238.390625 180.835938 240.511719 178.222656 240.511719 Z M 178.222656 240.511719 " fill-opacity="1" fill-rule="nonzero"/><path fill="currentColor" d="M 179.191406 245.902344 L 161.691406 245.902344 C 156.824219 245.902344 152.875 249.847656 152.875 254.71875 L 152.875 270.339844 C 152.875 294.253906 158.621094 317.816406 169.628906 339.042969 L 175.847656 351.039062 C 177.664062 354.539062 182.957031 353.25 182.957031 349.304688 L 182.957031 249.667969 C 182.957031 247.589844 181.269531 245.902344 179.191406 245.902344 Z M 179.191406 245.902344 " fill-opacity="1" fill-rule="nonzero"/><path fill="currentColor" d="M 114.410156 168.28125 L 126.214844 181.691406 C 131.191406 187.34375 133.933594 194.613281 133.933594 202.140625 L 133.933594 218.511719 C 133.933594 219.796875 132.421875 220.488281 131.449219 219.648438 L 121.140625 210.773438 C 115.195312 205.652344 111.777344 198.195312 111.777344 190.347656 L 111.777344 169.277344 C 111.777344 167.890625 113.492188 167.242188 114.410156 168.28125 Z M 114.410156 168.28125 " fill-opacity="1" fill-rule="nonzero"/><path fill="currentColor" d="M 116.332031 214.621094 L 128.027344 225.457031 C 131.792969 228.949219 133.933594 233.851562 133.933594 238.984375 L 133.933594 251.238281 C 133.933594 253.695312 130.929688 254.886719 129.25 253.097656 L 117.210938 240.308594 C 113.722656 236.597656 111.777344 231.695312 111.777344 226.605469 L 111.777344 216.609375 C 111.777344 214.242188 114.597656 213.011719 116.332031 214.621094 Z M 116.332031 214.621094 " fill-opacity="1" fill-rule="nonzero"/><path fill="currentColor" d="M 112.898438 244.894531 L 122.253906 254.894531 C 135.453125 269 143.058594 287.433594 143.652344 306.746094 L 143.882812 314.28125 C 143.980469 317.554688 139.90625 319.136719 137.769531 316.652344 L 114.621094 289.691406 C 108.722656 282.824219 105.8125 273.890625 106.53125 264.867188 L 107.988281 246.613281 C 108.183594 244.148438 111.207031 243.089844 112.898438 244.894531 Z M 112.898438 244.894531 " fill-opacity="1" fill-rule="nonzero"/><path fill="currentColor" d="M 251.03125 22.769531 C 251.03125 22.769531 278.652344 8.957031 298.078125 17.589844 C 317.5 26.222656 340.371094 40.902344 328.71875 107.8125 C 328.71875 107.8125 298.078125 84.933594 293.761719 68.097656 C 289.445312 51.261719 270.886719 24.066406 251.03125 22.769531 Z M 251.03125 22.769531 " fill-opacity="1" fill-rule="nonzero"/><path fill="currentColor" d="M 197.480469 39.203125 C 194.019531 41.246094 191.902344 44.96875 191.902344 48.988281 L 191.902344 83.648438 C 191.902344 90.105469 196.386719 95.515625 202.414062 96.929688 C 205.894531 97.746094 209.375 98.578125 212.761719 99.714844 L 249.742188 112.128906 C 256.871094 112.128906 263.597656 108.796875 267.886719 103.101562 C 272.453125 97.039062 280.332031 89.832031 292.722656 87.976562 C 295.324219 87.585938 296.597656 84.605469 295.039062 82.484375 C 290.839844 76.765625 284.5 67.167969 282.539062 59.03125 C 279.515625 46.511719 255.777344 24.929688 239.378906 23.632812 C 227.273438 22.679688 207.179688 33.480469 197.480469 39.203125 Z M 197.480469 39.203125 " fill-opacity="1" fill-rule="nonzero"/><path fill="currentColor" d="M 295.71875 103.695312 L 295.71875 125.078125 C 295.71875 125.078125 305.429688 177.414062 331.59375 197.273438 C 335.398438 200.160156 340.902344 197.792969 341.457031 193.046875 L 344.492188 166.980469 C 345.1875 161.011719 344.394531 154.960938 342.179688 149.375 L 327.425781 112.128906 C 327.425781 112.128906 311.023438 101.335938 304.117188 95.292969 C 299.480469 95.292969 295.71875 99.054688 295.71875 103.695312 Z M 295.71875 103.695312 " fill-opacity="1" fill-rule="nonzero"/><path fill="currentColor" d="M 341.402344 128.667969 C 340.199219 127.714844 338.558594 129.132812 339.304688 130.472656 C 342.757812 136.679688 347.984375 147.453125 348.816406 157.066406 C 349.636719 166.542969 349.390625 179.929688 349.117188 188.121094 C 349.058594 189.863281 351.394531 190.476562 352.203125 188.933594 L 356.210938 181.253906 C 357.921875 177.984375 358.757812 174.324219 358.605469 170.636719 C 358.183594 160.453125 355.519531 139.851562 341.402344 128.667969 Z M 341.402344 128.667969 " fill-opacity="1" fill-rule="nonzero"/><path fill="currentColor" d="M 294.097656 144.203125 L 294.097656 150.71875 C 294.097656 153.527344 294.589844 156.3125 295.578125 158.941406 C 297.691406 164.578125 302.152344 174.371094 309.476562 180.917969 C 310.253906 181.613281 311.425781 180.726562 310.96875 179.789062 C 307.515625 172.730469 300.105469 156.980469 296.082031 143.898438 C 295.738281 142.785156 294.097656 143.035156 294.097656 144.203125 Z M 294.097656 144.203125 " fill-opacity="1" fill-rule="nonzero"/><path fill="currentColor" d="M 191.902344 150.96875 L 191.902344 179.613281 C 191.902344 181.777344 193.65625 183.53125 195.816406 183.53125 L 221.488281 183.53125 C 224.019531 183.53125 226.355469 182.179688 227.617188 179.992188 L 230.605469 174.828125 C 233.402344 169.992188 232.25 163.84375 227.894531 160.34375 C 221.207031 154.96875 210.171875 148.175781 196.167969 147.066406 C 193.875 146.882812 191.902344 148.667969 191.902344 150.96875 Z M 191.902344 150.96875 " fill-opacity="1" fill-rule="nonzero"/><path fill="currentColor" d="M 196.636719 240.511719 L 214.886719 240.511719 C 219.515625 240.511719 223.265625 236.757812 223.265625 232.132812 L 223.265625 198.839844 C 223.265625 194.210938 219.511719 190.460938 214.886719 190.460938 L 196.636719 190.460938 C 194.019531 190.460938 191.902344 192.578125 191.902344 195.195312 L 191.902344 235.773438 C 191.902344 238.390625 194.019531 240.511719 196.636719 240.511719 Z M 196.636719 240.511719 " fill-opacity="1" fill-rule="nonzero"/><path fill="currentColor" d="M 195.667969 245.902344 L 213.167969 245.902344 C 218.035156 245.902344 221.980469 249.847656 221.980469 254.71875 L 221.980469 270.339844 C 221.980469 294.253906 216.234375 317.816406 205.230469 339.042969 L 199.007812 351.039062 C 197.195312 354.539062 191.902344 353.25 191.902344 349.304688 L 191.902344 249.667969 C 191.902344 247.589844 193.585938 245.902344 195.667969 245.902344 Z M 195.667969 245.902344 " fill-opacity="1" fill-rule="nonzero"/><path fill="currentColor" d="M 260.449219 168.28125 L 248.640625 181.691406 C 243.667969 187.34375 240.925781 194.613281 240.925781 202.140625 L 240.925781 218.511719 C 240.925781 219.796875 242.433594 220.488281 243.410156 219.648438 L 253.714844 210.773438 C 259.660156 205.652344 263.082031 198.195312 263.082031 190.347656 L 263.082031 169.277344 C 263.082031 167.890625 261.363281 167.242188 260.449219 168.28125 Z M 260.449219 168.28125 " fill-opacity="1" fill-rule="nonzero"/><path fill="currentColor" d="M 258.527344 214.621094 L 246.832031 225.457031 C 243.0625 228.949219 240.921875 233.851562 240.921875 238.984375 L 240.921875 251.238281 C 240.921875 253.695312 243.925781 254.886719 245.609375 253.097656 L 257.648438 240.308594 C 261.136719 236.597656 263.078125 231.695312 263.078125 226.605469 L 263.078125 216.609375 C 263.082031 214.242188 260.261719 213.011719 258.527344 214.621094 Z M 258.527344 214.621094 " fill-opacity="1" fill-rule="nonzero"/><path fill="currentColor" d="M 261.960938 244.894531 L 252.605469 254.894531 C 239.40625 269 231.800781 287.433594 231.207031 306.746094 L 230.976562 314.28125 C 230.878906 317.554688 234.953125 319.136719 237.085938 316.652344 L 260.238281 289.691406 C 266.132812 282.824219 269.046875 273.890625 268.328125 264.867188 L 266.871094 246.613281 C 266.675781 244.148438 263.648438 243.089844 261.960938 244.894531 Z M 261.960938 244.894531 " fill-opacity="1" fill-rule="nonzero"/><path fill="currentColor" d="M 182.773438 108.464844 L 182.773438 135.261719 C 182.773438 137.296875 181.285156 139.070312 179.167969 139.558594 L 163.671875 143.144531 C 155.679688 144.992188 142.945312 150.992188 142.945312 150.992188 C 138.511719 155.566406 116.160156 118.875 133.691406 118.875 L 178.023438 104.035156 C 180.644531 104.035156 182.773438 106.019531 182.773438 108.464844 Z M 182.773438 108.464844 " fill-opacity="1" fill-rule="nonzero"/><path fill="currentColor" d="M 191.71875 108.464844 L 191.71875 135.261719 C 191.71875 137.296875 193.207031 139.070312 195.328125 139.558594 L 210.820312 143.144531 C 218.8125 144.992188 231.550781 150.992188 231.550781 150.992188 C 235.980469 155.566406 259.175781 118.875 240.800781 118.875 L 196.472656 104.035156 C 193.847656 104.035156 191.71875 106.019531 191.71875 108.464844 Z M 191.71875 108.464844 " fill-opacity="1" fill-rule="nonzero"/></svg>