<svg xmlns="http://www.w3.org/2000/svg" xmlns:xlink="http://www.w3.org/1999/xlink" width="500" zoomAndPan="magnify" viewBox="0 0 375 374.999991" height="500" preserveAspectRatio="xMidYMid meet" version="1.0"><defs><clipPath id="44c6368c66"><path d="M 18.75 3.074219 L 356.25 3.074219 L 356.25 372.074219 L 18.75 372.074219 Z M 18.75 3.074219 " clip-rule="nonzero"/></clipPath></defs><g clip-path="url(#44c6368c66)"><path fill="#484f69" d="M 187.539062 372.054688 C 148.621094 372.054688 104.5 345.808594 102.640625 344.691406 C 101.785156 344.175781 101.25 343.265625 101.21875 342.269531 L 100.195312 310.28125 C 100.191406 310.09375 100.203125 309.902344 100.234375 309.714844 L 106.347656 272.320312 C 107.960938 262.464844 105.300781 252.507812 99.046875 245 C 95.042969 240.1875 92.457031 235.878906 90.878906 232.804688 L 77.195312 250.492188 C 77.632812 255.859375 78.277344 277.242188 64.195312 301.386719 C 63.746094 302.160156 62.96875 302.683594 62.085938 302.8125 C 61.199219 302.945312 60.304688 302.660156 59.652344 302.046875 L 19.703125 264.507812 C 19.113281 263.953125 18.777344 263.179688 18.777344 262.371094 L 18.777344 232.386719 C 18.777344 232.351562 18.777344 232.316406 18.78125 232.28125 C 20.097656 195.386719 39.464844 177.621094 45.269531 173.109375 C 44.144531 165.949219 40.980469 139.722656 49.972656 114.230469 C 59.429688 87.433594 92.105469 75.945312 96.03125 74.648438 L 148.601562 43.34375 L 153.574219 10.621094 C 153.761719 9.394531 154.703125 8.414062 155.925781 8.179688 L 172.480469 5.003906 C 182.464844 3.089844 192.597656 3.054688 202.597656 4.90625 L 220.257812 8.175781 C 221.488281 8.40625 222.4375 9.386719 222.625 10.621094 L 227.601562 43.34375 L 280.171875 74.648438 C 284.097656 75.945312 316.773438 87.433594 326.226562 114.230469 C 335.304688 139.953125 331.027344 165.46875 329.632812 172.175781 C 334.917969 177.578125 354.960938 200.46875 356.296875 237.894531 C 356.300781 237.929688 356.300781 237.964844 356.300781 238 L 356.300781 262.371094 C 356.300781 263.167969 355.976562 263.929688 355.40625 264.480469 L 316.578125 302.019531 C 315.933594 302.644531 315.035156 302.933594 314.140625 302.816406 C 313.246094 302.691406 312.460938 302.164062 312.007812 301.386719 C 297.925781 277.242188 298.570312 255.859375 299.007812 250.492188 L 285.324219 232.804688 C 283.746094 235.878906 281.160156 240.1875 277.15625 245 C 270.902344 252.507812 268.242188 262.464844 269.851562 272.320312 L 275.96875 309.714844 C 276 309.902344 276.011719 310.09375 276.007812 310.28125 L 274.984375 342.269531 C 274.953125 343.277344 274.40625 344.195312 273.535156 344.707031 C 271.628906 345.824219 226.4375 372.054688 187.539062 372.054688 Z M 187.539062 372.054688 " fill-opacity="1" fill-rule="nonzero"/></g><path fill="#9fabce" d="M 184.339844 19.171875 L 184.339844 48.945312 C 184.339844 57.097656 181.023438 64.871094 175.195312 70.375 L 170.222656 75.070312 L 175.359375 79.421875 C 181.046875 84.238281 184.339844 91.425781 184.339844 99.007812 L 184.339844 222.421875 C 184.339844 224.695312 181.410156 225.488281 180.328125 223.503906 L 141.347656 166.996094 C 139.945312 164.429688 139.375 161.472656 139.695312 158.546875 C 141.285156 144.035156 142.125 97.527344 108.667969 83.769531 C 105.273438 82.371094 105.007812 77.535156 108.257812 75.804688 L 151.925781 52.539062 L 177.359375 16.816406 C 179.570312 13.714844 184.339844 15.324219 184.339844 19.171875 Z M 184.339844 19.171875 " fill-opacity="1" fill-rule="nonzero"/><path fill="#9fabce" d="M 84.4375 84.015625 C 88.855469 81.90625 93.957031 81.746094 98.546875 83.464844 C 106.191406 86.332031 117.878906 91 123.539062 103.128906 C 127.214844 111.011719 88.296875 107.96875 84.519531 137.476562 C 84.003906 141.503906 81.921875 145.175781 78.726562 147.679688 C 76.179688 149.675781 75.605469 149.675781 58.351562 165.207031 C 55.871094 167.4375 51.90625 166.222656 51.117188 162.984375 C 47.054688 146.261719 41.855469 104.328125 84.4375 84.015625 Z M 84.4375 84.015625 " fill-opacity="1" fill-rule="nonzero"/><path fill="#ff004f" d="M 88.644531 145.78125 C 88.609375 132.914062 96.695312 121.425781 108.816406 117.121094 L 123.042969 112.066406 C 126.449219 110.445312 129.824219 112.867188 130.644531 116.550781 C 132.90625 126.75 135.726562 139.519531 133.199219 159.558594 C 132.855469 162.285156 130.984375 164.582031 128.382812 165.464844 L 94.730469 176.871094 C 91.625 177.921875 88.433594 175.535156 88.566406 172.257812 C 88.675781 169.523438 88.671875 157.234375 88.644531 145.78125 Z M 88.644531 145.78125 " fill-opacity="1" fill-rule="nonzero"/><path fill="#ff004f" d="M 96.464844 180.640625 C 92.984375 181.40625 90.550781 184.546875 90.613281 188.113281 C 90.753906 195.984375 91.597656 209.632812 95.390625 220.875 C 103.9375 246.179688 123.835938 264.542969 125.761719 283.652344 C 125.878906 284.832031 127.238281 285.433594 128.203125 284.746094 L 171.941406 235.355469 C 175.136719 233.078125 176.058594 228.730469 174.054688 225.351562 L 137.738281 173.28125 C 135.644531 170.582031 132.0625 169.535156 128.847656 170.6875 C 121.167969 173.4375 106.8125 178.367188 96.464844 180.640625 Z M 96.464844 180.640625 " fill-opacity="1" fill-rule="nonzero"/><path fill="#9fabce" d="M 64.695312 171.246094 C 60.859375 179.730469 55.519531 193.257812 54.109375 205.476562 C 53.480469 210.898438 51.414062 216.058594 47.941406 220.265625 C 45.804688 222.855469 43.640625 226.527344 42.488281 231.527344 C 40.917969 238.34375 36.09375 244.566406 32.1875 248.695312 C 29.910156 251.105469 25.847656 249.742188 25.484375 246.445312 C 23.753906 230.820312 24.148438 193.722656 60.722656 167.949219 C 62.941406 166.382812 65.8125 168.769531 64.695312 171.246094 Z M 64.695312 171.246094 " fill-opacity="1" fill-rule="nonzero"/><path fill="#9fabce" d="M 81.003906 155.710938 C 82.4375 153.976562 85.257812 155.121094 85.078125 157.363281 C 84.210938 168.203125 83.054688 189.136719 85.71875 201.792969 C 88.789062 216.390625 69.988281 242.207031 55.800781 252.464844 C 53.152344 254.378906 49.632812 251.652344 50.800781 248.59375 L 54.953125 237.734375 C 58.085938 229.542969 59.796875 220.863281 59.847656 212.097656 C 59.921875 199.433594 63.121094 177.378906 81.003906 155.710938 Z M 81.003906 155.710938 " fill-opacity="1" fill-rule="nonzero"/><path fill="#9fabce" d="M 184.339844 239.425781 L 184.339844 356.179688 C 184.339844 359.269531 180.847656 360.964844 178.539062 358.992188 L 165.722656 348.050781 C 157.964844 341.425781 148.210938 337.804688 138.140625 337.804688 C 133.722656 337.804688 130.070312 334.253906 129.808594 329.707031 L 127.972656 297.792969 C 127.753906 294.003906 129.441406 290.367188 132.433594 288.160156 L 178.738281 236.457031 C 181.085938 234.730469 184.339844 236.457031 184.339844 239.425781 Z M 184.339844 239.425781 " fill-opacity="1" fill-rule="nonzero"/><path fill="#9fabce" d="M 114.175781 267.535156 C 114.175781 267.535156 122.3125 300.75 125.242188 332.507812 C 125.46875 334.953125 123.140625 336.921875 120.691406 337.121094 L 114.40625 337.75 C 111.789062 337.964844 109.457031 336.101562 109.089844 333.496094 L 107.753906 324.042969 C 106.570312 315.675781 106.964844 307.164062 108.917969 298.941406 Z M 114.175781 267.535156 " fill-opacity="1" fill-rule="nonzero"/><path fill="#9fabce" d="M 190.542969 19.171875 L 190.542969 48.945312 C 190.542969 57.097656 193.859375 64.871094 199.691406 70.375 L 204.660156 75.070312 L 199.523438 79.421875 C 193.835938 84.238281 190.542969 91.425781 190.542969 99.007812 L 190.542969 222.421875 C 190.542969 224.695312 193.472656 225.488281 194.554688 223.503906 L 233.535156 166.996094 C 234.9375 164.429688 235.511719 161.472656 235.1875 158.546875 C 233.597656 144.035156 232.757812 97.527344 266.214844 83.769531 C 269.609375 82.371094 269.875 77.535156 266.628906 75.804688 L 222.957031 52.539062 L 197.523438 16.816406 C 195.3125 13.714844 190.542969 15.324219 190.542969 19.171875 Z M 190.542969 19.171875 " fill-opacity="1" fill-rule="nonzero"/><path fill="#9fabce" d="M 290.449219 84.015625 C 286.027344 81.90625 280.925781 81.746094 276.335938 83.464844 C 268.691406 86.332031 257.003906 91 251.347656 103.128906 C 247.679688 110.992188 287.566406 108.402344 290.535156 137.367188 C 290.957031 141.480469 293.03125 145.25 296.296875 147.789062 C 298.730469 149.679688 299.597656 149.964844 316.535156 165.207031 C 319.011719 167.4375 322.976562 166.222656 323.765625 162.984375 C 327.828125 146.261719 333.027344 104.328125 290.449219 84.015625 Z M 290.449219 84.015625 " fill-opacity="1" fill-rule="nonzero"/><path fill="#ff004f" d="M 286.242188 145.78125 C 286.273438 132.914062 278.1875 121.425781 266.066406 117.121094 L 251.839844 112.066406 C 248.4375 110.445312 245.058594 112.867188 244.242188 116.550781 C 241.976562 126.75 239.15625 139.519531 241.6875 159.558594 C 242.03125 162.285156 243.898438 164.582031 246.5 165.464844 L 280.152344 176.871094 C 283.257812 177.921875 286.449219 175.535156 286.316406 172.257812 C 286.210938 169.523438 286.210938 157.234375 286.242188 145.78125 Z M 286.242188 145.78125 " fill-opacity="1" fill-rule="nonzero"/><path fill="#ff004f" d="M 278.417969 180.640625 C 281.898438 181.40625 284.332031 184.546875 284.269531 188.113281 C 284.132812 195.984375 283.289062 209.632812 279.492188 220.875 C 270.945312 246.179688 251.046875 264.542969 249.121094 283.652344 C 249.003906 284.832031 247.644531 285.433594 246.679688 284.746094 L 202.941406 236.089844 C 199.746094 233.8125 198.824219 229.460938 200.828125 226.085938 L 237.144531 173.28125 C 239.238281 170.582031 242.820312 169.535156 246.035156 170.6875 C 253.714844 173.4375 268.070312 178.367188 278.417969 180.640625 Z M 278.417969 180.640625 " fill-opacity="1" fill-rule="nonzero"/><path fill="#9fabce" d="M 310.1875 171.246094 C 314.023438 179.730469 319.363281 193.257812 320.777344 205.476562 C 321.402344 210.898438 323.46875 216.058594 326.945312 220.265625 C 329.082031 222.855469 331.242188 226.527344 332.394531 231.527344 C 333.96875 238.34375 338.792969 244.566406 342.699219 248.695312 C 344.976562 251.105469 349.035156 249.742188 349.398438 246.445312 C 351.132812 230.820312 350.734375 193.722656 314.164062 167.949219 C 311.941406 166.382812 309.070312 168.769531 310.1875 171.246094 Z M 310.1875 171.246094 " fill-opacity="1" fill-rule="nonzero"/><path fill="#9fabce" d="M 293.878906 155.710938 C 292.449219 153.976562 289.625 155.121094 289.804688 157.363281 C 290.671875 168.203125 291.828125 189.136719 289.164062 201.792969 C 286.09375 216.390625 304.898438 242.207031 319.082031 252.464844 C 321.730469 254.378906 325.25 251.652344 324.082031 248.59375 L 319.929688 237.734375 C 316.800781 229.542969 315.085938 220.863281 315.035156 212.097656 C 314.960938 199.433594 311.761719 177.378906 293.878906 155.710938 Z M 293.878906 155.710938 " fill-opacity="1" fill-rule="nonzero"/><path fill="#9fabce" d="M 190.542969 239.425781 L 190.542969 356.179688 C 190.542969 359.269531 194.035156 360.964844 196.34375 358.992188 L 209.160156 348.050781 C 216.917969 341.425781 226.671875 337.804688 236.742188 337.804688 C 241.160156 337.804688 244.816406 334.253906 245.074219 329.707031 L 246.910156 297.792969 C 247.128906 294.003906 245.445312 290.367188 242.449219 288.160156 L 196.144531 236.457031 C 193.800781 234.730469 190.542969 236.457031 190.542969 239.425781 Z M 190.542969 239.425781 " fill-opacity="1" fill-rule="nonzero"/><path fill="#9fabce" d="M 260.707031 267.535156 C 260.707031 267.535156 252.570312 300.75 249.640625 332.507812 C 249.414062 334.953125 251.742188 336.921875 254.191406 337.121094 L 260.476562 337.75 C 263.09375 337.964844 265.425781 336.101562 265.792969 333.496094 L 267.128906 324.042969 C 268.3125 315.675781 267.917969 307.164062 265.964844 298.941406 Z M 260.707031 267.535156 " fill-opacity="1" fill-rule="nonzero"/></svg>