<svg xmlns="http://www.w3.org/2000/svg" xmlns:xlink="http://www.w3.org/1999/xlink" width="500" zoomAndPan="magnify" viewBox="0 0 375 374.999991" height="500" preserveAspectRatio="xMidYMid meet" version="1.0"><defs><clipPath id="8570101f46"><path d="M 3.410156 2.40625 L 371.660156 2.40625 L 371.660156 372.90625 L 3.410156 372.90625 Z M 3.410156 2.40625 " clip-rule="nonzero"/></clipPath></defs><g clip-path="url(#64748b1f46)"><path fill="#475569" d="M 101.386719 315.214844 C 101.1875 313.613281 100.742188 312.90625 100.683594 312.074219 C 99.574219 304.644531 98.976562 297.175781 98.882812 289.667969 C 98.695312 283.3125 98.625 277.539062 100.035156 271.695312 C 100.941406 267.878906 102.523438 264.371094 104.785156 261.167969 C 105.0625 258.136719 105.601562 255.15625 106.394531 252.21875 C 100.484375 237 95.933594 216.78125 92.339844 189.59375 C 86.222656 201.496094 78.808594 212.515625 70.085938 222.65625 C 72.074219 233.59375 71.554688 243.769531 68.734375 252.179688 C 67.550781 263.773438 65.234375 275.136719 61.78125 286.265625 L 3.4375 246.019531 C 5.269531 241.292969 7.558594 236.796875 10.304688 232.539062 C 13.355469 227.871094 17.117188 223.871094 21.589844 220.539062 C 20.238281 214.289062 19.316406 207.980469 18.828125 201.605469 C 17.933594 187.738281 19.214844 167.328125 30.636719 148.839844 C 31.996094 146.660156 33.472656 144.5625 35.058594 142.546875 C 33.367188 140.46875 32.371094 138.09375 32.078125 135.429688 C 30.09375 124.195312 32.785156 113.152344 35.664062 103.847656 C 40.066406 89.40625 45.332031 78.808594 52.183594 70.46875 C 61.234375 59.425781 73.425781 52.496094 85.730469 51.472656 C 86.636719 51.402344 87.597656 51.34375 88.621094 51.34375 C 91.46875 51.382812 94.289062 51.660156 97.085938 52.179688 C 104.339844 45.886719 113.707031 42.355469 123.390625 39.015625 L 150.074219 29.902344 L 151.167969 11.609375 L 151.097656 10.90625 C 150.777344 10.257812 152.089844 3.132812 151.671875 2.496094 C 164.179688 6.34375 174.472656 13.789062 187.59375 13.988281 C 200.71875 14.183594 212.746094 7.117188 225.441406 3.648438 L 225.382812 10.90625 L 225.3125 11.609375 L 226.464844 29.902344 L 253.089844 39.015625 C 262.84375 42.355469 272.140625 45.886719 279.453125 52.179688 C 282.25 51.65625 285.070312 51.378906 287.917969 51.34375 C 288.910156 51.34375 289.84375 51.402344 290.808594 51.472656 C 303.054688 52.464844 315.246094 59.425781 324.292969 70.46875 C 331.148438 78.808594 336.414062 89.355469 340.84375 103.847656 C 343.726562 113.152344 346.417969 124.195312 344.5 135.429688 C 344.140625 138.089844 343.113281 140.464844 341.421875 142.546875 C 343.027344 144.550781 344.503906 146.648438 345.839844 148.839844 C 357.265625 167.328125 358.546875 187.738281 357.644531 201.605469 C 357.195312 207.984375 356.277344 214.296875 354.890625 220.539062 C 359.367188 223.871094 363.136719 227.871094 366.195312 232.539062 C 368.316406 235.8125 370.148438 239.242188 371.6875 242.828125 L 313.644531 282.867188 C 310.804688 272.808594 308.835938 262.578125 307.746094 252.179688 C 304.914062 243.769531 304.464844 233.632812 306.394531 222.65625 C 297.671875 212.515625 290.25 201.496094 284.132812 189.59375 C 280.546875 216.8125 276.054688 237.03125 270.085938 252.21875 C 270.878906 255.15625 271.414062 258.136719 271.695312 261.167969 C 273.964844 264.351562 275.546875 267.847656 276.441406 271.652344 C 277.855469 277.5 277.785156 283.273438 277.59375 289.625 C 277.472656 296.65625 276.9375 303.65625 275.984375 310.621094 C 266.855469 323.34375 225.183594 372.917969 188.945312 372.917969 C 152.707031 372.917969 113.25 329.847656 101.386719 315.214844 Z M 101.386719 315.214844 " fill-opacity="1" fill-rule="nonzero"/></g><path fill="#1e293b" d="M 113.25 320.023438 L 113.128906 319.578125 C 113.007812 319.34375 112.8125 319.226562 112.546875 319.226562 C 112.285156 319.226562 112.089844 319.34375 111.96875 319.578125 Z M 113.25 320.023438 " fill-opacity="1" fill-rule="nonzero"/><path fill="#475569" d="M 262.585938 259.179688 C 267.265625 262.160156 270.15625 267.460938 271.527344 272.847656 C 272.898438 278.234375 272.746094 283.960938 272.519531 289.539062 C 272.421875 297.507812 271.71875 305.421875 270.402344 313.285156 C 252.890625 321.316406 219.34375 334.597656 188.945312 335.503906 C 157.960938 336.496094 123.96875 324.566406 107.03125 317.53125 C 104.726562 308.472656 104.269531 298.910156 103.949219 289.539062 C 103.820312 283.960938 103.691406 278.304688 104.945312 272.847656 C 106.195312 267.390625 109.1875 262.199219 113.882812 259.179688 Z M 262.585938 259.179688 " fill-opacity="1" fill-rule="nonzero"/><path fill="#475569" d="M 260.140625 261.714844 C 279.769531 226.226562 283.050781 150.03125 286.964844 99.125 C 287.957031 86.203125 288.632812 72.039062 281.132812 61.453125 C 274.398438 51.890625 262.527344 47.585938 251.429688 43.796875 C 230.90625 36.839844 210.3125 29.742188 189.839844 22.742188 L 186.859375 22.742188 C 166.277344 29.742188 145.710938 36.761719 125.160156 43.796875 C 114.054688 47.585938 102.253906 51.890625 95.457031 61.453125 C 87.945312 72.039062 88.652344 86.164062 89.6875 99.125 C 93.53125 150.03125 96.867188 226.226562 116.425781 261.714844 Z M 260.140625 261.714844 " fill-opacity="1" fill-rule="nonzero"/><path fill="#94a3b8" d="M 156.234375 11.609375 C 155.84375 18.855469 155.398438 26.113281 154.953125 33.371094 C 154.71875 35.128906 154.847656 36.863281 155.328125 38.570312 C 155.855469 39.816406 156.558594 40.949219 157.445312 41.96875 C 164.761719 51.113281 172.707031 59.671875 181.285156 67.644531 C 182.109375 68.480469 183.460938 69.316406 184.425781 68.539062 C 184.714844 68.242188 184.914062 67.894531 185.027344 67.496094 C 185.140625 67.097656 185.152344 66.699219 185.0625 66.292969 C 184.742188 56.023438 183.332031 45.628906 179.617188 36.0625 C 175.902344 26.5 169.863281 17.574219 161.398438 11.609375 C 160.636719 10.988281 159.78125 10.558594 158.824219 10.328125 C 158.339844 10.203125 157.855469 10.222656 157.382812 10.386719 C 156.90625 10.546875 156.511719 10.828125 156.203125 11.222656 Z M 156.234375 11.609375 " fill-opacity="1" fill-rule="nonzero"/><path fill="#475569" d="M 157.386719 11.671875 L 156.035156 33.429688 C 156.035156 34.265625 155.976562 35.167969 155.976562 35.933594 C 156.023438 36.703125 156.171875 37.453125 156.421875 38.183594 C 156.625 38.722656 156.882812 39.238281 157.195312 39.722656 C 157.515625 40.238281 157.960938 40.714844 158.347656 41.261719 C 161.933594 45.757812 165.789062 50.210938 169.761719 54.484375 C 173.738281 58.757812 177.78125 62.835938 182.082031 66.808594 C 182.449219 67.191406 182.878906 67.488281 183.363281 67.703125 C 183.5625 67.703125 183.679688 67.703125 183.75 67.644531 C 183.820312 67.585938 183.878906 67.515625 183.9375 67.328125 C 184 67 184.023438 66.667969 184.007812 66.332031 C 183.863281 61.207031 183.371094 56.113281 182.527344 51.054688 C 181.707031 46.046875 180.402344 41.171875 178.613281 36.421875 C 176.757812 31.492188 174.257812 26.910156 171.113281 22.683594 C 168.230469 18.730469 164.789062 15.351562 160.78125 12.546875 C 160.445312 12.269531 160.082031 12.035156 159.691406 11.839844 C 159.382812 11.636719 159.050781 11.484375 158.695312 11.382812 C 158.359375 11.332031 158.027344 11.355469 157.703125 11.453125 C 157.601562 11.507812 157.496094 11.550781 157.386719 11.582031 Z M 153.789062 33.300781 L 155.140625 11.609375 L 155.082031 10.835938 L 155.328125 10.515625 C 155.738281 9.921875 156.292969 9.535156 156.996094 9.363281 C 157.671875 9.125 158.355469 9.082031 159.054688 9.234375 C 159.636719 9.351562 160.191406 9.542969 160.722656 9.8125 C 161.214844 10.074219 161.683594 10.375 162.132812 10.707031 C 166.316406 13.660156 169.910156 17.210938 172.910156 21.363281 C 176.175781 25.753906 178.78125 30.503906 180.730469 35.617188 C 182.574219 40.535156 183.921875 45.582031 184.773438 50.765625 C 185.585938 55.910156 186.082031 61.085938 186.253906 66.292969 C 186.269531 66.8125 186.226562 67.324219 186.125 67.835938 C 185.984375 68.488281 185.652344 69.027344 185.128906 69.445312 C 184.78125 69.710938 184.394531 69.875 183.960938 69.941406 C 183.53125 70.007812 183.109375 69.96875 182.695312 69.824219 C 181.875 69.527344 181.144531 69.082031 180.511719 68.480469 C 176.210938 64.433594 172.046875 60.328125 168.0625 56.023438 C 164.082031 51.71875 160.246094 47.226562 156.582031 42.675781 C 156.121094 42.125 155.691406 41.546875 155.300781 40.945312 C 154.867188 40.332031 154.535156 39.671875 154.304688 38.957031 C 153.953125 38.023438 153.761719 37.058594 153.730469 36.0625 C 153.730469 35.070312 153.730469 34.207031 153.789062 33.300781 Z M 153.789062 33.300781 " fill-opacity="1" fill-rule="nonzero"/><path fill="#ffffff" d="M 47.636719 237.855469 C 55.964844 230.792969 63.523438 222.984375 70.3125 214.429688 C 77.101562 205.875 82.988281 196.738281 87.976562 187.019531 C 93.558594 176.085938 98.050781 164.15625 97.214844 151.910156 C 96.640625 142.597656 92.984375 133.738281 89.386719 125.070312 C 88.492188 122.824219 87.210938 120.320312 84.835938 119.804688 C 84.371094 119.75 83.910156 119.757812 83.445312 119.832031 C 82.984375 119.90625 82.539062 120.042969 82.113281 120.242188 C 81.691406 120.441406 81.300781 120.695312 80.945312 121 C 80.59375 121.308594 80.285156 121.65625 80.03125 122.050781 C 78.988281 123.640625 78.300781 125.375 77.972656 127.25 C 68.992188 162.429688 60.03125 197.554688 51.09375 232.617188 Z M 47.636719 237.855469 " fill-opacity="1" fill-rule="nonzero"/><path fill="#475569" d="M 52.445312 232.03125 C 58.574219 226.339844 64.238281 220.222656 69.441406 213.671875 C 76.214844 205.183594 82.085938 196.109375 87.054688 186.453125 C 89.90625 181.070312 92.226562 175.464844 94.007812 169.636719 C 95.769531 163.859375 96.492188 157.953125 96.183594 151.921875 C 95.804688 147.339844 94.886719 142.871094 93.429688 138.511719 C 92.019531 134.136719 90.222656 129.773438 88.464844 125.480469 C 88.046875 124.390625 87.511719 123.363281 86.863281 122.398438 C 86.332031 121.601562 85.605469 121.089844 84.679688 120.855469 C 84.023438 120.742188 83.402344 120.847656 82.820312 121.175781 C 82.066406 121.507812 81.46875 122.023438 81.023438 122.714844 C 80.535156 123.390625 80.148438 124.117188 79.871094 124.902344 C 79.566406 125.761719 79.3125 126.632812 79.105469 127.515625 Z M 71.160156 215.082031 C 64.308594 223.699219 56.695312 231.570312 48.3125 238.703125 L 42.152344 243.902344 L 50.039062 232.160156 L 76.859375 126.949219 C 77.066406 125.996094 77.328125 125.054688 77.636719 124.128906 C 78 123.15625 78.46875 122.238281 79.046875 121.375 C 79.765625 120.410156 80.660156 119.660156 81.738281 119.128906 C 82.773438 118.578125 83.863281 118.425781 85.007812 118.671875 C 85.726562 118.820312 86.390625 119.105469 87 119.515625 C 87.609375 119.925781 88.121094 120.4375 88.535156 121.046875 C 89.316406 122.136719 89.9375 123.3125 90.402344 124.574219 C 92.1875 128.9375 94.054688 133.3125 95.46875 137.863281 C 97.007812 142.382812 97.96875 147.023438 98.347656 151.78125 C 98.6875 158.070312 97.945312 164.230469 96.121094 170.261719 C 94.308594 176.226562 91.945312 181.964844 89.039062 187.476562 C 84.011719 197.285156 78.050781 206.488281 71.160156 215.082031 Z M 71.160156 215.082031 " fill-opacity="1" fill-rule="nonzero"/><path fill="#ffffff" d="M 79.253906 126.375 C 78.96875 137.316406 77.980469 148.195312 76.289062 159.007812 C 74.601562 169.820312 72.226562 180.480469 69.160156 190.988281 C 66.097656 201.496094 62.371094 211.765625 57.984375 221.789062 C 53.597656 231.816406 48.585938 241.519531 42.945312 250.898438 C 41.953125 252.570312 40.253906 254.425781 38.527344 253.660156 C 38.058594 253.402344 37.664062 253.0625 37.339844 252.636719 C 37.015625 252.210938 36.792969 251.738281 36.667969 251.214844 C 30.25 235.171875 25.054688 218.484375 23.964844 201.285156 C 22.871094 184.089844 25.890625 166.234375 34.890625 151.582031 C 43.890625 136.929688 59.457031 125.789062 76.613281 124.175781 Z M 79.253906 126.375 " fill-opacity="1" fill-rule="nonzero"/><path fill="#475569" d="M 80.925781 126.445312 C 80.378906 148.558594 77.003906 170.234375 70.792969 191.464844 C 64.601562 212.707031 55.816406 232.808594 44.425781 251.773438 C 43.699219 252.96875 42.757812 253.960938 41.605469 254.753906 C 41.046875 255.136719 40.433594 255.363281 39.761719 255.433594 C 39.089844 255.5 38.445312 255.40625 37.820312 255.144531 C 37.019531 254.816406 36.402344 254.277344 35.964844 253.53125 C 35.609375 252.984375 35.308594 252.40625 35.058594 251.804688 C 31.789062 243.726562 28.984375 235.488281 26.65625 227.089844 C 24.34375 218.621094 22.871094 210.003906 22.234375 201.246094 C 21.621094 192.066406 22.261719 182.972656 24.152344 173.96875 C 25.945312 165.628906 29.070312 157.816406 33.519531 150.539062 C 35.917969 146.640625 38.710938 143.042969 41.894531 139.753906 C 45.078125 136.460938 48.578125 133.554688 52.394531 131.027344 C 56 128.617188 59.84375 126.675781 63.921875 125.203125 C 67.996094 123.726562 72.191406 122.757812 76.503906 122.296875 L 77.277344 122.230469 L 80.992188 125.570312 Z M 67.511719 190.558594 C 73.585938 169.855469 76.925781 148.71875 77.527344 127.148438 L 76.125 125.867188 C 72.21875 126.347656 68.421875 127.269531 64.730469 128.636719 C 61.039062 130 57.550781 131.773438 54.269531 133.949219 C 50.65625 136.34375 47.34375 139.101562 44.328125 142.21875 C 41.3125 145.339844 38.664062 148.746094 36.390625 152.4375 C 32.117188 159.367188 29.136719 166.8125 27.449219 174.773438 C 25.570312 183.480469 24.953125 192.273438 25.59375 201.15625 C 26.222656 209.660156 27.65625 218.027344 29.894531 226.257812 C 32.199219 234.519531 34.957031 242.625 38.167969 250.582031 C 38.355469 250.96875 38.546875 251.414062 38.746094 251.734375 C 38.839844 251.894531 38.964844 252.023438 39.121094 252.121094 C 39.355469 252.167969 39.570312 252.125 39.769531 251.992188 C 40.460938 251.445312 41.019531 250.78125 41.4375 250.003906 C 52.71875 231.332031 61.398438 211.515625 67.472656 190.558594 Z M 67.511719 190.558594 " fill-opacity="1" fill-rule="nonzero"/><path fill="#475569" d="M 145.972656 209.308594 C 133.84375 218.253906 122.359375 228.949219 115.492188 242.429688 C 108.628906 255.910156 107.03125 272.789062 114.28125 286.078125 C 121.015625 298.394531 133.84375 305.78125 146.21875 312.332031 C 148.980469 313.800781 152.507812 315.214844 155.011719 313.324219 C 156.996094 311.855469 157.257812 309.089844 157.386719 306.585938 C 158.605469 280.460938 159.886719 254.089844 155.714844 228.214844 C 154.5625 221.257812 152.734375 213.839844 147.253906 209.535156 Z M 145.972656 209.308594 " fill-opacity="1" fill-rule="nonzero"/><path fill="#94a3b8" d="M 140.320312 255.910156 C 135.351562 259.625 134.804688 266.84375 135.125 273.105469 C 136.117188 292.988281 141.480469 312.074219 148.277344 330.878906 C 150.910156 339.828125 163.285156 359.308594 174.195312 360.144531 C 181.058594 360.722656 187.59375 350.839844 188.367188 335.5625 C 189.101562 323.027344 189.164062 310.488281 188.558594 297.945312 C 188.171875 291.40625 187.664062 284.667969 184.972656 278.632812 C 181.824219 271.566406 171.75 267.011719 165.105469 263.09375 C 158.457031 259.179688 150.996094 256.871094 143.558594 254.945312 Z M 140.320312 255.910156 " fill-opacity="1" fill-rule="nonzero"/><path fill="#475569" d="M 141.152344 257.449219 C 140.175781 258.285156 139.359375 259.257812 138.710938 260.367188 C 138.0625 261.480469 137.613281 262.667969 137.367188 263.929688 C 136.753906 266.941406 136.5625 269.980469 136.792969 273.046875 C 137.378906 282.824219 138.835938 292.472656 141.152344 301.992188 C 143.546875 311.582031 146.433594 321.019531 149.816406 330.304688 L 149.875 330.363281 C 151.355469 335.332031 155.90625 343.652344 161.558594 350.066406 C 165.660156 354.628906 170.148438 358.15625 174.324219 358.472656 L 174.472656 358.472656 C 177.164062 358.605469 179.796875 356.683594 181.972656 353.214844 C 184.347656 349.359375 186.074219 343.714844 186.589844 336.785156 L 186.71875 335.433594 C 187.039062 329.140625 187.238281 322.917969 187.296875 316.695312 C 187.355469 310.472656 187.238281 304.300781 186.910156 298.074219 C 186.746094 294.828125 186.414062 291.597656 185.914062 288.382812 C 185.515625 285.25 184.683594 282.234375 183.421875 279.339844 C 181.046875 274.011719 173.855469 269.964844 167.835938 266.625 C 166.542969 265.917969 165.261719 265.210938 164.238281 264.578125 C 161.007812 262.699219 157.628906 261.132812 154.105469 259.882812 C 150.699219 258.601562 147.152344 257.636719 143.585938 256.675781 Z M 134.101562 263.15625 C 134.421875 261.445312 135.035156 259.851562 135.941406 258.371094 C 136.847656 256.890625 137.988281 255.617188 139.363281 254.554688 L 139.554688 254.367188 L 143.527344 253.214844 L 143.972656 253.273438 C 147.757812 254.269531 151.542969 255.332031 155.269531 256.675781 C 158.996094 257.992188 162.566406 259.648438 165.976562 261.644531 C 167.128906 262.351562 168.292969 262.996094 169.503906 263.632812 C 175.992188 267.230469 183.679688 271.523438 186.511719 277.886719 C 187.859375 281.066406 188.796875 284.359375 189.332031 287.769531 C 189.839844 291.109375 190.097656 294.507812 190.324219 297.847656 C 190.644531 304.070312 190.769531 310.367188 190.703125 316.734375 C 190.644531 323.027344 190.445312 329.320312 190.066406 335.621094 L 190 337.03125 C 189.421875 344.539062 187.496094 350.699219 184.871094 354.925781 C 181.980469 359.546875 178.265625 362.054688 174.28125 361.882812 L 174.09375 361.882812 C 168.957031 361.425781 163.632812 357.449219 159.082031 352.3125 C 153.125 345.570312 148.246094 336.65625 146.636719 331.328125 C 143.183594 321.972656 140.277344 312.453125 137.914062 302.769531 C 135.546875 293.035156 134.050781 283.171875 133.425781 273.175781 C 133.214844 269.804688 133.449219 266.464844 134.128906 263.15625 Z M 134.101562 263.15625 " fill-opacity="1" fill-rule="nonzero"/><path fill="#94a3b8" d="M 138.460938 225.09375 C 137.804688 226.382812 137.226562 227.707031 136.730469 229.066406 C 136.234375 230.425781 135.824219 231.8125 135.5 233.222656 C 135.171875 234.632812 134.933594 236.054688 134.78125 237.496094 C 134.628906 238.933594 134.566406 240.378906 134.59375 241.824219 C 134.617188 243.273438 134.730469 244.710938 134.933594 246.144531 C 135.132812 247.578125 135.421875 248.996094 135.796875 250.394531 C 136.171875 251.789062 136.628906 253.160156 137.171875 254.503906 C 137.714844 255.84375 138.335938 257.148438 139.039062 258.414062 C 144.808594 268.683594 155.925781 276.257812 168.292969 278.246094 C 173.546875 279.140625 182.199219 278.882812 185.417969 274.972656 C 187.429688 272.328125 188.5625 269.34375 188.816406 266.027344 C 189.519531 260.382812 188.558594 255.09375 188.757812 249.335938 C 188.945312 244.367188 188.816406 239.773438 186.382812 235.730469 C 183.949219 231.683594 179.257812 229.4375 174.582031 227.835938 C 169.296875 226.03125 163.886719 224.804688 158.339844 224.160156 C 152.796875 223.515625 147.246094 223.464844 141.691406 224.007812 Z M 138.460938 225.09375 " fill-opacity="1" fill-rule="nonzero"/><path fill="#475569" d="M 139.703125 226.503906 C 137.320312 231.335938 136.179688 236.445312 136.285156 241.832031 C 136.324219 244.609375 136.703125 247.339844 137.417969 250.023438 C 138.136719 252.707031 139.167969 255.261719 140.515625 257.6875 C 143.421875 262.71875 147.292969 266.847656 152.121094 270.074219 C 157.140625 273.460938 162.636719 275.644531 168.609375 276.625 C 171.925781 277.148438 175.238281 277.128906 178.542969 276.566406 C 180.917969 276.109375 182.964844 275.273438 184.128906 273.929688 C 184.945312 272.921875 185.585938 271.808594 186.042969 270.589844 C 186.585938 269.070312 186.949219 267.511719 187.136719 265.910156 C 187.414062 262.804688 187.4375 259.699219 187.207031 256.59375 C 187.035156 254.179688 186.992188 251.765625 187.078125 249.347656 C 187.210938 247.050781 187.144531 244.761719 186.878906 242.480469 C 186.597656 240.402344 185.933594 238.453125 184.890625 236.632812 C 183.742188 234.855469 182.246094 233.445312 180.402344 232.398438 C 178.390625 231.203125 176.277344 230.238281 174.054688 229.507812 C 168.894531 227.699219 163.59375 226.503906 158.160156 225.917969 C 152.78125 225.273438 147.390625 225.207031 141.996094 225.71875 Z M 132.878906 241.832031 C 132.835938 238.789062 133.164062 235.78125 133.859375 232.816406 C 134.554688 229.851562 135.597656 227.015625 136.992188 224.308594 L 137.308594 223.660156 L 141.28125 222.320312 L 141.539062 222.320312 C 147.234375 221.75 152.921875 221.792969 158.605469 222.449219 C 164.265625 223.097656 169.78125 224.359375 175.15625 226.234375 C 177.625 227.042969 179.976562 228.109375 182.210938 229.4375 C 184.5 230.789062 186.363281 232.589844 187.792969 234.835938 C 189.140625 237.027344 189.949219 239.402344 190.226562 241.960938 C 190.503906 244.4375 190.589844 246.917969 190.484375 249.40625 C 190.398438 251.730469 190.441406 254.046875 190.613281 256.367188 C 190.859375 259.664062 190.816406 262.957031 190.484375 266.246094 C 190.289062 268.144531 189.863281 269.984375 189.203125 271.773438 C 188.636719 273.359375 187.800781 274.792969 186.699219 276.066406 C 185.03125 278.125 182.269531 279.277344 179.191406 279.855469 C 175.476562 280.488281 171.757812 280.511719 168.035156 279.925781 C 161.597656 278.863281 155.671875 276.507812 150.261719 272.855469 C 144.96875 269.316406 140.738281 264.785156 137.566406 259.257812 C 136.078125 256.597656 134.9375 253.796875 134.144531 250.851562 C 133.351562 247.90625 132.929688 244.910156 132.878906 241.863281 Z M 132.878906 241.832031 " fill-opacity="1" fill-rule="nonzero"/><path fill="#475569" d="M 343.984375 220.339844 C 351.425781 223.046875 357.515625 228.75 361.945312 235.363281 C 364.097656 238.675781 365.9375 242.160156 367.457031 245.808594 L 338.382812 265.789062 C 337.804688 263.484375 337.289062 261.167969 336.902344 258.832031 C 335.84375 252.308594 335.691406 245.769531 336.441406 239.203125 C 337.195312 232.640625 338.824219 226.304688 341.332031 220.191406 Z M 343.984375 220.339844 " fill-opacity="1" fill-rule="nonzero"/><path fill="#94a3b8" d="M 220.246094 11.609375 C 220.695312 18.855469 221.140625 26.113281 221.527344 33.371094 C 221.792969 35.132812 221.664062 36.867188 221.140625 38.570312 C 220.617188 39.816406 219.914062 40.949219 219.023438 41.96875 C 211.695312 51.101562 203.746094 59.660156 195.183594 67.644531 C 194.28125 68.480469 192.9375 69.316406 191.976562 68.539062 C 191.328125 68.09375 191.328125 67.128906 191.328125 66.292969 C 191.65625 56.023438 193.066406 45.628906 196.78125 36.0625 C 200.5 26.5 206.539062 17.574219 215 11.609375 C 215.757812 10.984375 216.613281 10.558594 217.566406 10.328125 C 218.054688 10.203125 218.535156 10.222656 219.015625 10.382812 C 219.492188 10.546875 219.886719 10.824219 220.199219 11.222656 Z M 220.246094 11.609375 " fill-opacity="1" fill-rule="nonzero"/><path fill="#475569" d="M 221.339844 11.609375 L 222.679688 33.300781 C 222.769531 34.21875 222.792969 35.140625 222.75 36.0625 C 222.699219 37.050781 222.527344 38.015625 222.234375 38.957031 C 221.972656 39.675781 221.609375 40.339844 221.140625 40.945312 C 220.761719 41.582031 220.304688 42.097656 219.929688 42.675781 C 216.203125 47.226562 212.359375 51.71875 208.445312 55.964844 C 204.53125 60.210938 200.300781 64.433594 196 68.480469 C 195.332031 69.066406 194.585938 69.515625 193.753906 69.824219 C 193.351562 69.972656 192.941406 70.011719 192.515625 69.945312 C 192.09375 69.878906 191.714844 69.710938 191.378906 69.445312 C 190.839844 69.035156 190.507812 68.5 190.386719 67.835938 C 190.28125 67.324219 190.238281 66.8125 190.257812 66.292969 C 190.421875 61.085938 190.917969 55.910156 191.738281 50.765625 C 192.589844 45.585938 193.933594 40.535156 195.769531 35.617188 C 197.726562 30.507812 200.335938 25.753906 203.597656 21.363281 C 206.613281 17.214844 210.214844 13.664062 214.40625 10.707031 C 214.824219 10.355469 215.273438 10.058594 215.757812 9.8125 C 216.289062 9.550781 216.847656 9.359375 217.425781 9.234375 C 218.144531 9.082031 218.847656 9.125 219.542969 9.363281 C 220.222656 9.566406 220.78125 9.949219 221.210938 10.515625 L 221.398438 10.835938 Z M 220.4375 33.429688 L 219.09375 11.609375 C 218.996094 11.59375 218.910156 11.550781 218.835938 11.480469 C 218.511719 11.390625 218.179688 11.367188 217.84375 11.410156 C 217.457031 11.507812 217.089844 11.660156 216.75 11.871094 C 216.433594 12.058594 216.046875 12.316406 215.667969 12.574219 C 211.675781 15.394531 208.234375 18.777344 205.335938 22.714844 C 202.214844 26.957031 199.710938 31.535156 197.828125 36.453125 C 196.046875 41.203125 194.742188 46.078125 193.921875 51.085938 C 193.097656 56.144531 192.625 61.238281 192.511719 66.363281 C 192.4375 66.695312 192.4375 67.027344 192.511719 67.355469 C 192.570312 67.546875 192.628906 67.675781 192.699219 67.675781 C 192.769531 67.675781 192.890625 67.734375 193.085938 67.734375 C 193.582031 67.507812 194.027344 67.207031 194.429688 66.839844 C 198.660156 62.863281 202.765625 58.734375 206.746094 54.453125 C 210.71875 50.21875 214.503906 45.785156 218.101562 41.292969 C 218.527344 40.8125 218.910156 40.296875 219.253906 39.753906 C 219.582031 39.265625 219.859375 38.753906 220.089844 38.210938 C 220.3125 37.480469 220.445312 36.730469 220.476562 35.964844 C 220.476562 35.199219 220.476562 34.296875 220.40625 33.460938 Z M 220.4375 33.429688 " fill-opacity="1" fill-rule="nonzero"/><path fill="#ffffff" d="M 328.902344 237.855469 C 320.558594 230.804688 312.984375 223 306.179688 214.441406 C 299.378906 205.886719 293.484375 196.746094 288.492188 187.019531 C 282.921875 176.085938 278.429688 164.15625 279.265625 151.910156 C 279.839844 142.597656 283.496094 133.738281 287.082031 125.070312 C 288.074219 122.824219 289.269531 120.320312 291.640625 119.804688 C 293.5 119.414062 295.355469 120.578125 296.519531 122.050781 C 297.496094 123.667969 298.179688 125.398438 298.566406 127.25 C 307.488281 162.429688 316.425781 197.554688 325.386719 232.617188 Z M 328.902344 237.855469 " fill-opacity="1" fill-rule="nonzero"/><path fill="#475569" d="M 328.140625 238.703125 C 319.757812 231.570312 312.140625 223.699219 305.292969 215.082031 C 298.4375 206.472656 292.492188 197.269531 287.460938 187.476562 C 284.558594 181.949219 282.207031 176.191406 280.40625 170.210938 C 278.535156 164.210938 277.765625 158.070312 278.09375 151.792969 C 278.476562 147.03125 279.441406 142.394531 280.984375 137.875 C 282.453125 133.320312 284.25 128.929688 286.050781 124.585938 C 286.558594 123.351562 287.179688 122.175781 287.90625 121.054688 C 288.792969 119.835938 289.96875 119.042969 291.433594 118.679688 C 292.582031 118.4375 293.675781 118.589844 294.710938 119.136719 C 295.789062 119.667969 296.6875 120.417969 297.402344 121.382812 C 298.003906 122.234375 298.476562 123.152344 298.8125 124.136719 C 299.132812 125.132812 299.390625 126.066406 299.648438 126.960938 L 326.460938 232.160156 L 334.40625 243.898438 Z M 307.039062 213.671875 C 312.242188 220.238281 317.929688 226.359375 324.097656 232.03125 L 297.472656 127.515625 C 297.226562 126.621094 296.964844 125.65625 296.707031 124.894531 C 296.425781 124.109375 296.042969 123.382812 295.554688 122.707031 C 295.109375 122.011719 294.511719 121.5 293.757812 121.164062 C 293.179688 120.828125 292.558594 120.722656 291.898438 120.847656 C 290.972656 121.078125 290.246094 121.589844 289.714844 122.386719 C 289.066406 123.355469 288.535156 124.382812 288.117188 125.46875 C 286.378906 129.761719 284.519531 134.128906 283.148438 138.5 C 281.695312 142.859375 280.773438 147.332031 280.386719 151.910156 C 280.085938 157.941406 280.8125 163.847656 282.574219 169.625 C 284.355469 175.453125 286.671875 181.058594 289.527344 186.445312 C 294.441406 196.113281 300.277344 205.183594 307.039062 213.660156 Z M 307.039062 213.671875 " fill-opacity="1" fill-rule="nonzero"/><path fill="#ffffff" d="M 297.226562 126.375 C 297.507812 137.316406 298.496094 148.191406 300.183594 159.007812 C 301.871094 169.820312 304.246094 180.484375 307.308594 190.988281 C 310.371094 201.496094 314.097656 211.765625 318.484375 221.789062 C 322.871094 231.816406 327.886719 241.519531 333.523438 250.898438 C 334.515625 252.570312 336.226562 254.425781 338.011719 253.660156 C 338.949219 253.09375 339.546875 252.28125 339.8125 251.214844 C 346.289062 235.171875 351.425781 218.484375 352.578125 201.285156 C 353.730469 184.089844 350.589844 166.234375 341.550781 151.582031 C 332.511719 136.929688 316.972656 125.789062 299.828125 124.175781 Z M 297.226562 126.375 " fill-opacity="1" fill-rule="nonzero"/><path fill="#475569" d="M 298.953125 127.148438 C 299.265625 137.949219 300.269531 148.683594 301.957031 159.351562 C 303.648438 170.019531 306.015625 180.539062 309.058594 190.902344 C 312.097656 201.269531 315.789062 211.398438 320.132812 221.289062 C 324.476562 231.179688 329.433594 240.75 335.003906 250.003906 C 335.421875 250.78125 335.976562 251.445312 336.671875 251.992188 C 336.867188 252.117188 337.078125 252.160156 337.308594 252.121094 C 337.503906 252.058594 337.636719 251.929688 337.695312 251.734375 C 337.882812 251.414062 338.082031 250.96875 338.273438 250.582031 C 341.511719 242.636719 344.269531 234.527344 346.546875 226.257812 C 348.8125 218.03125 350.246094 209.664062 350.847656 201.15625 C 351.484375 192.273438 350.863281 183.480469 348.992188 174.773438 C 347.300781 166.824219 344.347656 159.378906 340.128906 152.4375 C 337.84375 148.753906 335.191406 145.351562 332.179688 142.234375 C 329.164062 139.117188 325.855469 136.355469 322.25 133.949219 C 318.96875 131.773438 315.484375 130 311.789062 128.636719 C 308.097656 127.269531 304.300781 126.347656 300.394531 125.867188 Z M 305.6875 191.464844 C 299.472656 170.234375 296.09375 148.558594 295.554688 126.445312 L 295.554688 125.667969 L 299.210938 122.328125 L 299.976562 122.398438 C 304.289062 122.851562 308.488281 123.816406 312.566406 125.292969 C 316.648438 126.769531 320.488281 128.710938 324.097656 131.125 C 327.914062 133.652344 331.414062 136.5625 334.597656 139.851562 C 337.777344 143.144531 340.570312 146.738281 342.96875 150.636719 C 347.410156 157.917969 350.515625 165.726562 352.289062 174.070312 C 354.242188 183.066406 354.90625 192.160156 354.273438 201.34375 C 353.636719 210.101562 352.164062 218.71875 349.855469 227.191406 C 347.519531 235.585938 344.71875 243.824219 341.449219 251.902344 C 341.1875 252.5 340.886719 253.074219 340.546875 253.632812 C 340.410156 253.863281 340.25 254.078125 340.070312 254.273438 C 339.890625 254.472656 339.691406 254.648438 339.472656 254.804688 C 339.253906 254.960938 339.023438 255.09375 338.78125 255.203125 C 338.535156 255.3125 338.28125 255.398438 338.019531 255.453125 C 337.757812 255.511719 337.492188 255.542969 337.226562 255.546875 C 336.957031 255.546875 336.691406 255.523438 336.429688 255.472656 C 336.167969 255.421875 335.910156 255.34375 335.664062 255.238281 C 335.417969 255.136719 335.183594 255.007812 334.964844 254.855469 C 333.777344 254.09375 332.839844 253.097656 332.140625 251.871094 C 320.734375 232.898438 311.925781 212.789062 305.71875 191.535156 Z M 305.6875 191.464844 " fill-opacity="1" fill-rule="nonzero"/><path fill="#475569" d="M 230.507812 209.308594 C 242.699219 218.253906 254.113281 228.949219 260.976562 242.429688 C 267.839844 255.910156 269.449219 272.789062 262.199219 286.078125 C 255.523438 298.394531 242.636719 305.78125 230.320312 312.332031 C 227.558594 313.800781 223.972656 315.214844 221.46875 313.324219 C 219.542969 311.855469 219.222656 309.089844 219.09375 306.585938 C 217.871094 280.460938 216.652344 254.089844 220.761719 228.214844 C 221.914062 221.257812 223.742188 213.839844 229.285156 209.535156 Z M 230.507812 209.308594 " fill-opacity="1" fill-rule="nonzero"/><path fill="#94a3b8" d="M 114.917969 67.445312 C 119.21875 63.210938 125.84375 62.835938 131.914062 63.023438 C 143.746094 63.472656 155.359375 65.3125 166.753906 68.539062 C 173.617188 70.46875 180.988281 73.421875 184.195312 79.84375 C 185.925781 83.300781 186.183594 87.289062 186.382812 91.136719 C 186.828125 99.671875 187.375 108.210938 187.148438 116.8125 C 186.957031 124.445312 186.253906 132.21875 183.105469 139.148438 C 177.144531 152.308594 162.96875 160.519531 148.59375 161.683594 C 134.21875 162.84375 119.925781 157.765625 107.804688 149.992188 C 99.859375 144.921875 92.339844 138.183594 89.644531 129.195312 C 86.765625 119.445312 89.964844 108.976562 93.558594 99.484375 C 96.539062 91.78125 99.777344 84.207031 103.246094 76.691406 C 105.171875 72.65625 107.605469 68.222656 111.96875 67.128906 Z M 114.917969 67.445312 " fill-opacity="1" fill-rule="nonzero"/><path fill="#475569" d="M 114.339844 65.65625 C 116.722656 63.6875 119.4375 62.445312 122.488281 61.929688 C 125.628906 61.355469 128.796875 61.164062 131.984375 61.351562 C 137.945312 61.542969 143.871094 62.121094 149.757812 63.082031 C 155.648438 63.996094 161.460938 65.261719 167.199219 66.878906 C 170.867188 67.871094 174.371094 69.261719 177.71875 71.054688 C 179.417969 71.96875 180.953125 73.109375 182.316406 74.476562 C 183.683594 75.84375 184.820312 77.375 185.738281 79.078125 C 186.652344 80.996094 187.25 83.003906 187.535156 85.109375 C 187.851562 87.097656 187.980469 89.085938 188.109375 91.074219 L 188.109375 91.136719 C 188.558594 99.671875 189.003906 108.210938 188.816406 116.8125 C 188.777344 120.722656 188.480469 124.617188 187.921875 128.492188 C 187.347656 132.429688 186.253906 136.214844 184.644531 139.851562 C 183.105469 143.160156 181.132812 146.183594 178.726562 148.925781 C 176.320312 151.664062 173.578125 154.011719 170.496094 155.964844 C 167.238281 158.089844 163.769531 159.78125 160.089844 161.042969 C 156.40625 162.300781 152.628906 163.09375 148.753906 163.414062 C 141.691406 163.894531 134.765625 163.144531 127.972656 161.164062 C 120.464844 158.902344 113.421875 155.636719 106.839844 151.375 C 102.703125 148.777344 98.9375 145.71875 95.546875 142.199219 C 92.046875 138.609375 89.546875 134.425781 88.046875 129.644531 C 86.605469 124.46875 86.433594 119.25 87.53125 113.988281 C 88.535156 108.816406 90.03125 103.789062 92.019531 98.910156 C 93.503906 95.050781 95.042969 91.199219 96.640625 87.347656 C 98.238281 83.558594 99.976562 79.773438 101.707031 75.984375 C 102.699219 73.78125 103.917969 71.707031 105.363281 69.761719 C 106.132812 68.734375 107.046875 67.855469 108.097656 67.121094 C 109.152344 66.382812 110.292969 65.828125 111.519531 65.457031 L 111.839844 65.398438 Z M 123.132812 65.199219 C 120.464844 65.679688 118.113281 66.816406 116.078125 68.609375 L 115.5625 69.1875 L 112.097656 68.796875 C 110.425781 69.421875 109.058594 70.449219 107.992188 71.878906 C 106.707031 73.617188 105.636719 75.480469 104.785156 77.464844 C 103.058594 81.125 101.386719 84.84375 99.816406 88.699219 C 98.25 92.554688 96.679688 96.203125 95.207031 100.121094 C 93.289062 104.804688 91.84375 109.628906 90.867188 114.59375 C 89.847656 119.335938 89.980469 124.042969 91.253906 128.71875 C 92.640625 132.980469 94.886719 136.726562 97.992188 139.953125 C 101.207031 143.261719 104.773438 146.128906 108.699219 148.550781 C 114.972656 152.671875 121.707031 155.796875 128.90625 157.925781 C 135.300781 159.789062 141.820312 160.496094 148.464844 160.042969 C 152.054688 159.75 155.554688 159.023438 158.964844 157.863281 C 162.375 156.699219 165.589844 155.136719 168.609375 153.171875 C 171.417969 151.390625 173.921875 149.246094 176.117188 146.746094 C 178.3125 144.246094 180.117188 141.488281 181.523438 138.472656 C 182.996094 135.121094 183.992188 131.636719 184.503906 128.015625 C 185.039062 124.289062 185.316406 120.542969 185.339844 116.78125 C 185.527344 108.371094 185.082031 99.882812 184.632812 91.363281 L 184.632812 91.234375 C 184.558594 89.363281 184.386719 87.5 184.117188 85.648438 C 183.882812 83.914062 183.394531 82.257812 182.648438 80.675781 C 181.882812 79.269531 180.933594 78.003906 179.796875 76.878906 C 178.660156 75.753906 177.386719 74.816406 175.972656 74.066406 C 172.878906 72.386719 169.632812 71.105469 166.226562 70.21875 C 160.613281 68.628906 154.925781 67.386719 149.160156 66.492188 C 143.417969 65.585938 137.644531 65.03125 131.835938 64.824219 C 128.890625 64.613281 125.960938 64.765625 123.054688 65.269531 Z M 123.132812 65.199219 " fill-opacity="1" fill-rule="nonzero"/><path fill="#94a3b8" d="M 86.121094 56.542969 C 95.058594 55.835938 106.902344 59.234375 113.1875 63.789062 C 115.117188 65.199219 116.972656 66.871094 117.738281 69.117188 C 118.832031 72.269531 117.492188 75.667969 116.199219 78.679688 C 109.34375 94.664062 101.644531 111.164062 88.105469 122.078125 C 75.789062 131.960938 60.074219 136.195312 44.8125 140.171875 C 43.492188 140.65625 42.144531 140.742188 40.769531 140.429688 C 38.398438 139.722656 37.433594 136.96875 37.046875 134.59375 C 35.378906 124.832031 37.5625 114.824219 40.511719 105.320312 C 43.980469 94.027344 48.597656 82.855469 56.097656 73.679688 C 63.597656 64.503906 74.316406 57.566406 86.121094 56.542969 Z M 86.121094 56.542969 " fill-opacity="1" fill-rule="nonzero"/><path fill="#475569" d="M 85.988281 54.871094 C 91 54.5625 95.914062 55.097656 100.742188 56.472656 C 105.585938 57.660156 110.074219 59.648438 114.210938 62.4375 C 115.300781 63.179688 116.292969 64.035156 117.191406 65 C 118.183594 66.015625 118.910156 67.191406 119.378906 68.53125 C 119.960938 70.4375 120.023438 72.363281 119.566406 74.304688 C 119.113281 76.015625 118.511719 77.671875 117.769531 79.277344 C 114.421875 87.480469 110.554688 95.433594 106.164062 103.132812 C 101.546875 110.765625 96.152344 117.765625 89.167969 123.410156 C 82.796875 128.386719 75.800781 132.222656 68.179688 134.914062 C 60.738281 137.734375 52.910156 139.792969 45.332031 141.871094 C 44.570312 142.085938 43.800781 142.238281 43.015625 142.328125 C 42.105469 142.453125 41.207031 142.386719 40.324219 142.128906 C 39.546875 141.855469 38.847656 141.449219 38.226562 140.90625 C 37.605469 140.363281 37.109375 139.722656 36.738281 138.988281 C 36.09375 137.6875 35.664062 136.320312 35.445312 134.882812 C 34.589844 129.78125 34.574219 124.671875 35.398438 119.566406 C 36.167969 114.554688 37.324219 109.632812 38.863281 104.804688 C 40.613281 99.046875 42.753906 93.441406 45.28125 87.984375 C 47.84375 82.460938 51.027344 77.324219 54.835938 72.574219 C 58.941406 67.59375 63.773438 63.464844 69.332031 60.191406 C 74.507812 57.210938 80.066406 55.433594 86.011719 54.863281 Z M 99.898438 59.753906 C 95.429688 58.480469 90.875 57.988281 86.238281 58.273438 C 80.789062 58.773438 75.699219 60.402344 70.96875 63.152344 C 65.757812 66.207031 61.246094 70.082031 57.441406 74.773438 C 53.78125 79.265625 50.738281 84.140625 48.3125 89.40625 C 45.84375 94.734375 43.769531 100.210938 42.082031 105.835938 C 40.566406 110.492188 39.433594 115.242188 38.683594 120.082031 C 37.910156 124.808594 37.910156 129.539062 38.683594 134.265625 C 38.839844 135.351562 39.171875 136.378906 39.679688 137.347656 C 39.789062 137.625 39.945312 137.878906 40.144531 138.101562 C 40.347656 138.324219 40.578125 138.503906 40.84375 138.644531 C 41.105469 138.789062 41.386719 138.878906 41.683594 138.921875 C 41.980469 138.960938 42.277344 138.953125 42.570312 138.890625 C 43.171875 138.820312 43.769531 138.714844 44.355469 138.570312 C 51.925781 136.582031 59.625 134.523438 67.007812 131.773438 C 74.269531 129.144531 80.949219 125.460938 87.054688 120.726562 C 93.667969 115.460938 98.863281 108.71875 103.226562 101.402344 C 107.554688 93.839844 111.382812 86.027344 114.710938 77.972656 C 115.34375 76.542969 115.855469 75.066406 116.238281 73.550781 C 116.617188 72.238281 116.597656 70.933594 116.179688 69.632812 C 115.835938 68.75 115.34375 67.960938 114.710938 67.257812 C 113.976562 66.472656 113.164062 65.785156 112.265625 65.199219 C 108.484375 62.648438 104.378906 60.835938 99.949219 59.753906 Z M 99.898438 59.753906 " fill-opacity="1" fill-rule="nonzero"/><path fill="#94a3b8" d="M 261.550781 67.445312 C 257.261719 63.210938 250.625 62.835938 244.554688 63.023438 C 232.726562 63.476562 221.117188 65.3125 209.726562 68.539062 C 202.863281 70.46875 195.492188 73.421875 192.28125 79.84375 C 190.542969 83.300781 190.296875 87.289062 190.097656 91.136719 C 189.652344 99.671875 189.203125 108.210938 189.332031 116.8125 C 189.519531 124.445312 190.226562 132.21875 193.367188 139.148438 C 199.328125 152.308594 213.511719 160.519531 227.875 161.683594 C 242.242188 162.84375 256.554688 157.765625 268.746094 149.992188 C 276.632812 144.921875 284.132812 138.183594 286.832031 129.195312 C 289.8125 119.445312 286.507812 108.976562 282.921875 99.484375 C 279.941406 91.78125 276.761719 84.207031 273.234375 76.691406 C 271.308594 72.65625 268.875 68.222656 264.570312 67.128906 Z M 261.550781 67.445312 " fill-opacity="1" fill-rule="nonzero"/><path fill="#475569" d="M 260.398438 68.609375 C 258.363281 66.820312 256.011719 65.683594 253.347656 65.199219 C 250.457031 64.695312 247.550781 64.546875 244.625 64.753906 C 232.925781 65.175781 221.441406 66.976562 210.175781 70.148438 C 206.789062 71.035156 203.558594 72.316406 200.488281 73.996094 C 199.0625 74.726562 197.78125 75.65625 196.644531 76.785156 C 195.507812 77.914062 194.566406 79.1875 193.824219 80.609375 C 193.023438 82.175781 192.507812 83.832031 192.28125 85.578125 C 192.023438 87.378906 191.894531 89.296875 191.765625 91.164062 L 191.765625 91.292969 C 191.320312 99.761719 190.871094 108.300781 191.0625 116.710938 C 191.078125 120.476562 191.355469 124.21875 191.894531 127.945312 C 192.441406 131.558594 193.4375 135.042969 194.875 138.402344 C 196.292969 141.421875 198.101562 144.179688 200.308594 146.679688 C 202.511719 149.179688 205.023438 151.320312 207.839844 153.105469 C 210.859375 155.066406 214.070312 156.628906 217.480469 157.792969 C 220.886719 158.957031 224.386719 159.683594 227.976562 159.972656 C 234.644531 160.421875 241.1875 159.714844 247.605469 157.855469 C 254.78125 155.722656 261.496094 152.601562 267.75 148.480469 C 271.675781 146.058594 275.246094 143.191406 278.460938 139.882812 C 281.566406 136.65625 283.808594 132.910156 285.195312 128.648438 C 286.453125 123.976562 286.601562 119.269531 285.640625 114.523438 C 284.628906 109.578125 283.175781 104.761719 281.28125 100.082031 C 279.8125 96.164062 278.300781 92.378906 276.660156 88.660156 C 275.023438 84.941406 273.394531 81.085938 271.695312 77.425781 C 270.839844 75.441406 269.769531 73.578125 268.484375 71.839844 C 267.429688 70.394531 266.0625 69.367188 264.382812 68.757812 L 260.976562 69.144531 Z M 254.050781 61.910156 C 257.082031 62.425781 259.777344 63.667969 262.136719 65.636719 L 264.703125 65.378906 L 264.960938 65.4375 C 266.1875 65.808594 267.328125 66.363281 268.382812 67.097656 C 269.433594 67.835938 270.347656 68.714844 271.117188 69.742188 C 272.554688 71.6875 273.773438 73.761719 274.773438 75.964844 C 276.5625 79.753906 278.230469 83.539062 279.839844 87.328125 C 281.449219 91.113281 283.050781 95.03125 284.519531 98.886719 C 286.453125 103.785156 287.949219 108.8125 289.007812 113.96875 C 290.054688 119.234375 289.863281 124.453125 288.433594 129.625 C 286.917969 134.390625 284.4375 138.585938 280.992188 142.210938 C 277.570312 145.710938 273.785156 148.765625 269.636719 151.375 C 263.066406 155.621094 256.03125 158.875 248.539062 161.136719 C 241.746094 163.121094 234.816406 163.867188 227.757812 163.382812 C 223.882812 163.050781 220.105469 162.257812 216.425781 160.996094 C 212.746094 159.738281 209.277344 158.050781 206.011719 155.9375 C 202.925781 153.984375 200.179688 151.636719 197.765625 148.894531 C 195.351562 146.15625 193.375 143.132812 191.824219 139.824219 C 190.253906 136.191406 189.164062 132.421875 188.558594 128.511719 C 188 124.636719 187.703125 120.746094 187.664062 116.832031 C 187.464844 108.234375 187.921875 99.695312 188.429688 91.15625 L 188.429688 91.09375 C 188.476562 89.097656 188.648438 87.109375 188.945312 85.128906 C 189.257812 83.035156 189.855469 81.023438 190.742188 79.097656 C 191.660156 77.394531 192.796875 75.863281 194.164062 74.496094 C 195.527344 73.132812 197.058594 71.992188 198.761719 71.074219 C 202.09375 69.277344 205.585938 67.878906 209.238281 66.878906 C 214.976562 65.265625 220.792969 64.003906 226.683594 63.09375 C 232.570312 62.132812 238.496094 61.558594 244.457031 61.363281 C 247.664062 61.175781 250.851562 61.367188 254.011719 61.941406 Z M 254.050781 61.910156 " fill-opacity="1" fill-rule="nonzero"/><path fill="#94a3b8" d="M 290.359375 56.542969 C 281.421875 55.835938 269.578125 59.234375 263.289062 63.789062 C 261.363281 65.199219 259.503906 66.871094 258.730469 69.117188 C 257.738281 72.269531 258.988281 75.667969 260.269531 78.679688 C 267.222656 94.664062 274.832031 111.164062 288.375 122.078125 C 300.683594 131.960938 316.398438 136.195312 331.664062 140.171875 C 332.988281 140.65625 334.335938 140.742188 335.707031 140.429688 C 338.082031 139.722656 339.046875 136.96875 339.492188 134.59375 C 341.164062 124.832031 338.917969 114.824219 336.027344 105.320312 C 332.5 94.027344 327.882812 82.855469 320.378906 73.679688 C 312.878906 64.503906 302.160156 57.566406 290.359375 56.542969 Z M 290.359375 56.542969 " fill-opacity="1" fill-rule="nonzero"/><path fill="#475569" d="M 290.230469 58.269531 C 285.613281 57.984375 281.078125 58.476562 276.632812 59.753906 C 272.183594 60.835938 268.058594 62.652344 264.253906 65.199219 C 263.367188 65.800781 262.554688 66.488281 261.808594 67.257812 C 261.175781 67.960938 260.683594 68.75 260.339844 69.632812 C 259.988281 70.933594 259.964844 72.238281 260.269531 73.550781 C 260.65625 75.078125 261.191406 76.554688 261.878906 77.972656 C 265.15625 86.042969 268.960938 93.851562 273.292969 101.402344 C 277.65625 108.71875 282.851562 115.460938 289.457031 120.726562 C 295.578125 125.472656 302.285156 129.15625 309.574219 131.773438 C 316.984375 134.421875 324.511719 136.691406 332.152344 138.570312 C 332.746094 138.710938 333.34375 138.816406 333.949219 138.890625 C 334.40625 138.96875 334.855469 138.949219 335.300781 138.828125 C 336.011719 138.527344 336.542969 138.03125 336.902344 137.347656 C 337.375 136.371094 337.679688 135.34375 337.804688 134.265625 C 338.578125 129.539062 338.578125 124.808594 337.804688 120.082031 C 337.089844 115.234375 335.957031 110.484375 334.40625 105.835938 C 332.753906 100.199219 330.679688 94.722656 328.1875 89.40625 C 325.792969 84.144531 322.78125 79.269531 319.148438 74.773438 C 315.332031 70.0625 310.796875 66.1875 305.550781 63.152344 C 300.820312 60.390625 295.734375 58.765625 290.28125 58.269531 Z M 275.726562 56.472656 C 280.558594 55.097656 285.476562 54.566406 290.488281 54.871094 C 296.429688 55.445312 301.988281 57.21875 307.160156 60.199219 C 312.722656 63.472656 317.558594 67.601562 321.664062 72.585938 C 325.46875 77.335938 328.65625 82.472656 331.21875 87.992188 C 333.746094 93.453125 335.886719 99.058594 337.636719 104.8125 C 339.164062 109.644531 340.339844 114.5625 341.164062 119.566406 C 341.9375 124.65625 341.9375 129.75 341.164062 134.84375 C 340.925781 136.28125 340.472656 137.648438 339.8125 138.949219 C 339.445312 139.691406 338.953125 140.332031 338.332031 140.878906 C 337.710938 141.421875 337.007812 141.828125 336.226562 142.089844 C 335.339844 142.347656 334.4375 142.414062 333.523438 142.289062 C 332.761719 142.203125 332.011719 142.050781 331.277344 141.832031 C 323.507812 139.902344 315.855469 137.582031 308.320312 134.871094 C 300.710938 132.171875 293.714844 128.339844 287.339844 123.382812 C 280.386719 117.734375 274.964844 110.738281 270.453125 103.101562 C 266.015625 95.417969 262.121094 87.464844 258.769531 79.246094 C 258.054688 77.636719 257.480469 75.980469 257.042969 74.277344 C 256.527344 72.359375 256.570312 70.460938 257.171875 68.570312 C 257.621094 67.203125 258.347656 66.003906 259.347656 64.972656 C 260.238281 63.996094 261.230469 63.140625 262.328125 62.40625 C 266.433594 59.605469 270.898438 57.621094 275.726562 56.441406 Z M 275.726562 56.472656 " fill-opacity="1" fill-rule="nonzero"/><path fill="#94a3b8" d="M 236.796875 255.910156 C 241.765625 259.625 242.378906 266.84375 241.992188 273.105469 C 241 292.988281 235.644531 312.074219 228.910156 330.878906 C 226.21875 339.828125 213.828125 359.308594 202.933594 360.144531 C 196.066406 360.722656 189.582031 350.839844 188.757812 335.5625 C 188.015625 323.027344 187.949219 310.488281 188.558594 297.945312 C 188.945312 291.40625 189.550781 284.667969 192.152344 278.632812 C 195.292969 271.566406 205.367188 267.011719 212.023438 263.09375 C 218.675781 259.179688 226.078125 256.871094 233.519531 254.945312 Z M 236.796875 255.910156 " fill-opacity="1" fill-rule="nonzero"/><path fill="#475569" d="M 237.820312 254.554688 C 239.175781 255.636719 240.304688 256.914062 241.207031 258.390625 C 242.113281 259.871094 242.738281 261.457031 243.085938 263.15625 C 243.742188 266.46875 243.953125 269.808594 243.722656 273.175781 C 243.132812 283.175781 241.636719 293.042969 239.230469 302.769531 C 236.867188 312.445312 233.960938 321.953125 230.507812 331.296875 C 228.910156 336.625 224.03125 345.542969 218.0625 352.28125 C 213.511719 357.421875 208.1875 361.398438 203.050781 361.855469 L 202.863281 361.855469 C 198.890625 362.042969 195.164062 359.539062 192.28125 354.894531 C 189.652344 350.660156 187.722656 344.5 187.148438 337.003906 L 187.085938 335.589844 C 186.761719 329.300781 186.511719 323.007812 186.441406 316.703125 C 186.371094 310.402344 186.511719 304.058594 186.890625 297.816406 C 187.03125 294.4375 187.363281 291.078125 187.882812 287.738281 C 188.367188 284.324219 189.289062 281.027344 190.644531 277.855469 C 193.523438 271.496094 201.164062 267.199219 207.640625 263.601562 C 208.863281 262.964844 210.015625 262.320312 211.167969 261.613281 C 214.597656 259.605469 218.191406 257.949219 221.945312 256.644531 C 225.628906 255.320312 229.371094 254.1875 233.171875 253.246094 L 233.617188 253.183594 L 237.589844 254.335938 Z M 239.746094 263.929688 C 239.515625 262.667969 239.082031 261.480469 238.441406 260.371094 C 237.800781 259.257812 236.996094 258.285156 236.023438 257.449219 L 233.527344 256.675781 C 230.003906 257.667969 226.464844 258.601562 223.066406 259.882812 C 219.515625 261.121094 216.117188 262.683594 212.867188 264.578125 C 211.871094 265.210938 210.5625 265.917969 209.28125 266.625 C 203.25 269.964844 196.128906 274.011719 193.753906 279.339844 C 192.5 282.242188 191.648438 285.257812 191.191406 288.382812 C 190.691406 291.597656 190.359375 294.828125 190.195312 298.074219 C 189.878906 304.300781 189.75 310.53125 189.808594 316.695312 C 189.867188 322.859375 190.066406 329.140625 190.386719 335.433594 L 190.515625 336.785156 C 191.03125 343.742188 192.761719 349.359375 195.132812 353.214844 C 197.320312 356.683594 200.011719 358.605469 202.644531 358.476562 L 202.773438 358.476562 C 206.9375 358.15625 211.496094 354.628906 215.539062 350.066406 C 221.179688 343.652344 225.800781 335.371094 227.210938 330.363281 L 227.269531 330.304688 C 230.65625 321.019531 233.542969 311.582031 235.933594 301.992188 C 238.25 292.472656 239.707031 282.824219 240.292969 273.046875 C 240.554688 269.980469 240.363281 266.941406 239.71875 263.929688 Z M 239.746094 263.929688 " fill-opacity="1" fill-rule="nonzero"/><path fill="#94a3b8" d="M 239.617188 225.09375 C 240.28125 226.378906 240.867188 227.703125 241.367188 229.058594 C 241.871094 230.417969 242.285156 231.800781 242.617188 233.210938 C 242.949219 234.621094 243.191406 236.046875 243.347656 237.488281 C 243.503906 238.925781 243.570312 240.371094 243.546875 241.816406 C 243.523438 243.265625 243.414062 244.707031 243.214844 246.140625 C 243.011719 247.574219 242.726562 248.992188 242.351562 250.390625 C 241.976562 251.789062 241.515625 253.160156 240.972656 254.503906 C 240.429688 255.84375 239.804688 257.148438 239.101562 258.414062 C 233.328125 268.683594 222.214844 276.257812 209.855469 278.246094 C 204.589844 279.140625 195.949219 278.882812 192.730469 274.972656 C 190.671875 272.597656 189.652344 269.058594 189.332031 266.027344 C 188.628906 260.382812 189.582031 255.09375 189.390625 249.335938 C 189.203125 244.367188 189.332031 239.773438 191.765625 235.730469 C 194.199219 231.683594 198.890625 229.4375 203.566406 227.835938 C 208.839844 226.027344 214.246094 224.796875 219.78125 224.148438 C 225.320312 223.5 230.863281 223.449219 236.410156 223.988281 Z M 239.617188 225.09375 " fill-opacity="1" fill-rule="nonzero"/><path fill="#475569" d="M 241.15625 224.328125 C 241.84375 225.679688 242.445312 227.066406 242.964844 228.492188 C 243.480469 229.917969 243.910156 231.367188 244.25 232.847656 C 244.589844 234.324219 244.839844 235.816406 245 237.324219 C 245.160156 238.832031 245.226562 240.34375 245.199219 241.859375 C 245.175781 243.375 245.058594 244.882812 244.851562 246.386719 C 244.640625 247.886719 244.34375 249.371094 243.953125 250.835938 C 243.5625 252.300781 243.085938 253.738281 242.523438 255.144531 C 241.960938 256.550781 241.3125 257.921875 240.582031 259.25 C 237.410156 264.777344 233.175781 269.308594 227.875 272.847656 C 222.472656 276.5 216.550781 278.855469 210.113281 279.914062 C 206.390625 280.5 202.667969 280.476562 198.949219 279.84375 C 195.871094 279.269531 193.117188 278.117188 191.378906 276.058594 C 190.328125 274.761719 189.515625 273.332031 188.945312 271.761719 C 188.296875 269.96875 187.847656 268.128906 187.59375 266.238281 C 187.320312 262.945312 187.300781 259.652344 187.535156 256.355469 C 187.707031 254.039062 187.75 251.71875 187.664062 249.398438 C 187.515625 246.90625 187.605469 244.425781 187.921875 241.953125 C 188.203125 239.40625 188.996094 237.03125 190.296875 234.824219 C 191.746094 232.574219 193.628906 230.777344 195.9375 229.425781 C 198.171875 228.097656 200.519531 227.03125 202.992188 226.226562 C 208.367188 224.339844 213.882812 223.078125 219.542969 222.4375 C 225.226562 221.78125 230.914062 221.738281 236.609375 222.308594 L 236.796875 222.308594 L 240.839844 223.722656 Z M 241.863281 241.78125 C 241.933594 236.421875 240.800781 231.328125 238.464844 226.503906 L 236.089844 225.667969 C 230.695312 225.15625 225.308594 225.222656 219.929688 225.867188 C 214.511719 226.457031 209.230469 227.652344 204.085938 229.457031 C 201.859375 230.183594 199.746094 231.148438 197.738281 232.347656 C 195.894531 233.394531 194.394531 234.804688 193.246094 236.585938 C 192.144531 238.382812 191.480469 240.332031 191.261719 242.429688 C 190.96875 244.710938 190.90625 247.003906 191.070312 249.296875 C 191.160156 251.714844 191.117188 254.132812 190.941406 256.542969 C 190.707031 259.652344 190.730469 262.757812 191.011719 265.859375 C 191.195312 267.460938 191.554688 269.019531 192.09375 270.539062 C 192.558594 271.757812 193.203125 272.871094 194.019531 273.882812 C 195.113281 275.222656 197.230469 276.058594 199.605469 276.515625 C 202.914062 277.078125 206.222656 277.097656 209.539062 276.574219 C 215.507812 275.589844 221 273.40625 226.019531 270.023438 C 230.847656 266.796875 234.71875 262.667969 237.632812 257.636719 C 240.328125 252.714844 241.738281 247.445312 241.863281 241.832031 Z M 241.863281 241.78125 " fill-opacity="1" fill-rule="nonzero"/><path fill="#94a3b8" d="M 208.058594 63.023438 C 208.058594 63.023438 220.824219 43.378906 226.980469 41.710938 C 233.140625 40.039062 254.371094 48.839844 257.320312 52.367188 C 260.269531 55.894531 254.945312 59.941406 249.691406 59.8125 C 244.4375 59.683594 232.695312 59.8125 224.855469 61.421875 C 217.019531 63.03125 211.703125 65.140625 209.527344 64.824219 C 207.351562 64.503906 208.046875 63.023438 208.046875 63.023438 Z M 208.058594 63.023438 " fill-opacity="1" fill-rule="evenodd"/><path fill="#94a3b8" d="M 168.996094 63.023438 C 168.996094 63.023438 156.164062 43.378906 150.074219 41.710938 C 143.984375 40.039062 122.6875 48.839844 119.667969 52.367188 C 116.644531 55.894531 122.039062 59.941406 127.304688 59.8125 C 132.570312 59.683594 144.363281 59.8125 152.140625 61.421875 C 159.917969 63.03125 165.222656 65.140625 167.410156 64.824219 C 169.59375 64.503906 168.949219 63.023438 168.949219 63.023438 Z M 168.996094 63.023438 " fill-opacity="1" fill-rule="evenodd"/><path fill="#94a3b8" d="M 247.375 273.175781 C 243.53125 310.402344 234.363281 330.105469 236.667969 334.410156 C 238.972656 338.714844 250.078125 322.480469 257.0625 316.308594 C 264.046875 310.132812 266.300781 275.609375 266.746094 270.859375 C 267.195312 266.109375 266.429688 261.167969 264.761719 260.460938 C 261.363281 259.179688 248.339844 264.121094 247.375 273.175781 Z M 247.375 273.175781 " fill-opacity="1" fill-rule="evenodd"/><path fill="#94a3b8" d="M 264.632812 232.667969 C 264.632812 232.667969 254.371094 234.785156 250.394531 239.925781 C 246.421875 245.0625 245.199219 255.910156 245.199219 260.273438 C 245.199219 264.636719 260.847656 258.027344 262.386719 255.003906 C 263.925781 251.980469 267.265625 237.230469 266.875 234.785156 C 266.488281 232.339844 264.632812 232.667969 264.632812 232.667969 Z M 264.632812 232.667969 " fill-opacity="1" fill-rule="evenodd"/><path fill="#94a3b8" d="M 268.84375 201.285156 C 268.84375 201.285156 255.820312 204.875 251.199219 210.53125 C 246.582031 216.1875 246.234375 227.082031 246.640625 231.453125 C 247.046875 235.828125 266.597656 227.082031 268.328125 223.878906 C 270.054688 220.679688 272.746094 205.519531 272.042969 203.144531 C 271.949219 202.8125 271.796875 202.511719 271.582031 202.238281 C 271.371094 201.964844 271.117188 201.742188 270.816406 201.566406 C 270.519531 201.394531 270.199219 201.285156 269.859375 201.234375 C 269.515625 201.1875 269.179688 201.203125 268.84375 201.285156 Z M 268.84375 201.285156 " fill-opacity="1" fill-rule="evenodd"/><path fill="#94a3b8" d="M 129.609375 273.175781 C 133.453125 310.402344 142.632812 330.105469 140.320312 334.410156 C 138.003906 338.714844 126.917969 322.480469 119.925781 316.308594 C 112.929688 310.132812 110.6875 275.609375 110.238281 270.859375 C 109.792969 266.109375 110.558594 261.167969 112.226562 260.460938 C 115.625 259.179688 128.644531 264.121094 129.609375 273.175781 Z M 129.609375 273.175781 " fill-opacity="1" fill-rule="evenodd"/><path fill="#94a3b8" d="M 112.414062 232.667969 C 112.414062 232.667969 122.617188 234.785156 126.601562 239.925781 C 130.582031 245.0625 131.753906 255.910156 131.753906 260.273438 C 131.753906 264.636719 116.101562 258.027344 114.558594 255.003906 C 113.019531 251.980469 109.683594 237.230469 110.070312 234.785156 C 110.457031 232.339844 112.375 232.667969 112.375 232.667969 Z M 112.414062 232.667969 " fill-opacity="1" fill-rule="evenodd"/><path fill="#94a3b8" d="M 108.121094 201.285156 C 108.121094 201.285156 121.144531 204.875 125.765625 210.53125 C 130.386719 216.1875 130.734375 227.082031 130.316406 231.453125 C 129.898438 235.828125 110.367188 227.082031 108.640625 223.878906 C 106.910156 220.679688 104.269531 205.519531 104.914062 203.144531 C 105.007812 202.8125 105.164062 202.507812 105.375 202.238281 C 105.589844 201.964844 105.84375 201.742188 106.144531 201.566406 C 106.441406 201.394531 106.765625 201.28125 107.105469 201.234375 C 107.449219 201.183594 107.789062 201.203125 108.121094 201.285156 Z M 108.121094 201.285156 " fill-opacity="1" fill-rule="evenodd"/><path fill="#94a3b8" d="M 186.183594 149.933594 C 186.183594 149.933594 188.050781 180.230469 184.714844 185.621094 C 181.375 191.007812 170.46875 187.804688 155.84375 192.746094 C 141.222656 197.6875 139.167969 201.605469 134.804688 200.25 C 131.824219 199.417969 125.25 194.863281 117.621094 182.667969 C 109.992188 170.46875 115.175781 157.320312 115.175781 157.320312 C 115.175781 157.320312 131.726562 164.695312 150.519531 163.28125 C 169.316406 161.871094 178.8125 149.039062 181.632812 147.296875 C 184.457031 145.558594 185.925781 148.390625 186.054688 148.96875 C 186.128906 149.296875 186.171875 149.628906 186.183594 149.960938 Z M 186.183594 149.933594 " fill-opacity="1" fill-rule="evenodd"/><path fill="#94a3b8" d="M 191.121094 149.933594 C 191.121094 149.933594 189.261719 180.230469 192.601562 185.621094 C 195.9375 191.007812 206.835938 187.804688 221.46875 192.746094 C 236.101562 197.6875 238.148438 201.605469 242.4375 200.25 C 245.417969 199.417969 252.066406 194.863281 259.636719 182.667969 C 267.203125 170.46875 262.136719 157.320312 262.136719 157.320312 C 262.136719 157.320312 245.589844 164.695312 226.792969 163.28125 C 208 161.871094 198.5 149.039062 195.609375 147.296875 C 192.71875 145.558594 191.378906 148.390625 191.25 148.96875 C 191.175781 149.296875 191.132812 149.628906 191.121094 149.960938 Z M 191.121094 149.933594 " fill-opacity="1" fill-rule="evenodd"/><path fill="#94a3b8" d="M 144.105469 199.417969 C 137.945312 202.308594 136.15625 214.246094 136.921875 222.210938 C 137.121094 223.941406 137.496094 225.796875 138.90625 226.960938 C 140.128906 228.046875 141.886719 228.375 143.527344 228.75 C 153.023438 230.621094 162.453125 232.539062 171.949219 234.40625 C 175.347656 235.113281 179.257812 235.691406 182.019531 233.832031 C 184.136719 232.347656 186.3125 230.75 186.828125 228.433594 C 188.816406 218.929688 189.203125 206.933594 187.148438 197.429688 C 186.902344 196.410156 186.433594 195.511719 185.742188 194.726562 C 185.046875 193.945312 184.210938 193.371094 183.234375 193.003906 C 180.605469 192.03125 177.890625 191.582031 175.085938 191.652344 C 169.707031 191.839844 164.40625 192.585938 159.183594 193.894531 C 153.964844 195.203125 148.9375 197.042969 144.105469 199.417969 Z M 144.105469 199.417969 " fill-opacity="1" fill-rule="nonzero"/><path fill="#475569" d="M 144.878906 200.707031 C 142.632812 201.792969 141.023438 204.554688 139.910156 207.894531 C 138.589844 212.542969 138.160156 217.269531 138.621094 222.082031 C 138.675781 222.867188 138.828125 223.636719 139.078125 224.386719 C 139.261719 224.996094 139.59375 225.507812 140.070312 225.929688 C 140.539062 226.328125 141.074219 226.605469 141.667969 226.761719 C 142.410156 226.976562 143.15625 227.148438 143.914062 227.28125 L 172.335938 232.996094 C 173.941406 233.339844 175.5625 233.535156 177.203125 233.570312 C 178.558594 233.65625 179.820312 233.355469 180.988281 232.667969 C 181.960938 232.007812 182.878906 231.28125 183.75 230.492188 C 184.441406 229.855469 184.910156 229.082031 185.160156 228.175781 C 186.222656 222.988281 186.78125 217.746094 186.828125 212.449219 C 186.902344 207.484375 186.472656 202.5625 185.546875 197.6875 C 185.34375 196.960938 185.015625 196.296875 184.554688 195.699219 C 183.980469 195.117188 183.320312 194.664062 182.566406 194.347656 C 181.4375 193.933594 180.285156 193.605469 179.109375 193.351562 C 177.8125 193.144531 176.507812 193.0625 175.195312 193.105469 C 169.902344 193.285156 164.683594 194.007812 159.539062 195.28125 C 154.488281 196.542969 149.632812 198.339844 144.976562 200.679688 Z M 136.664062 207.121094 C 137.945312 203.015625 140.070312 199.617188 143.269531 198.175781 C 148.164062 195.71875 153.265625 193.824219 158.578125 192.488281 C 163.996094 191.113281 169.5 190.332031 175.085938 190.140625 C 176.617188 190.089844 178.136719 190.195312 179.648438 190.460938 C 181.117188 190.691406 182.550781 191.074219 183.9375 191.613281 C 185.179688 192.117188 186.25 192.867188 187.148438 193.859375 C 187.988281 194.804688 188.542969 195.894531 188.816406 197.128906 C 189.820312 202.171875 190.292969 207.265625 190.226562 212.410156 C 190.160156 217.878906 189.585938 223.292969 188.5 228.652344 C 188.132812 230.105469 187.40625 231.34375 186.3125 232.371094 C 185.292969 233.316406 184.203125 234.175781 183.042969 234.945312 C 181.257812 236.066406 179.3125 236.578125 177.203125 236.484375 C 175.296875 236.441406 173.417969 236.207031 171.5625 235.777344 L 143.140625 230.121094 C 142.246094 229.933594 141.351562 229.746094 140.449219 229.488281 C 139.457031 229.132812 138.539062 228.640625 137.695312 228.003906 C 136.84375 227.214844 136.222656 226.273438 135.828125 225.183594 C 135.550781 224.238281 135.359375 223.277344 135.253906 222.300781 C 134.777344 217.140625 135.246094 212.066406 136.664062 207.082031 Z M 136.664062 207.121094 " fill-opacity="1" fill-rule="nonzero"/><path fill="#94a3b8" d="M 234.074219 199.417969 C 240.234375 202.308594 242.023438 214.246094 241.199219 222.210938 C 241.070312 223.941406 240.679688 225.796875 239.269531 226.960938 C 238.058594 228.046875 236.289062 228.375 234.652344 228.75 C 225.164062 230.621094 215.667969 232.539062 206.238281 234.40625 C 202.84375 235.113281 198.929688 235.691406 196.167969 233.832031 C 194.050781 232.347656 191.804688 230.75 191.359375 228.433594 C 189.371094 218.929688 188.984375 206.933594 190.972656 197.429688 C 191.238281 196.414062 191.722656 195.515625 192.425781 194.734375 C 193.125 193.957031 193.964844 193.378906 194.945312 193.003906 C 197.554688 192.03125 200.25 191.578125 203.03125 191.652344 C 208.421875 191.835938 213.730469 192.578125 218.964844 193.886719 C 224.195312 195.195312 229.234375 197.039062 234.074219 199.417969 Z M 234.074219 199.417969 " fill-opacity="1" fill-rule="nonzero"/><path fill="#475569" d="M 234.871094 198.09375 C 238.078125 199.574219 240.195312 203.066406 241.476562 207.039062 C 242.902344 212.023438 243.375 217.097656 242.886719 222.261719 C 242.785156 223.238281 242.589844 224.199219 242.308594 225.144531 C 241.917969 226.253906 241.28125 227.191406 240.394531 227.964844 C 239.578125 228.613281 238.675781 229.109375 237.691406 229.445312 C 236.796875 229.707031 235.902344 229.894531 235 230.082031 L 206.585938 235.867188 C 204.726562 236.292969 202.84375 236.53125 200.933594 236.574219 C 198.832031 236.667969 196.886719 236.15625 195.105469 235.035156 C 193.929688 234.28125 192.835938 233.421875 191.824219 232.457031 C 190.734375 231.433594 190.007812 230.195312 189.652344 228.742188 C 188.5625 223.382812 187.988281 217.96875 187.921875 212.5 C 187.828125 207.359375 188.277344 202.265625 189.261719 197.21875 C 189.5625 195.980469 190.140625 194.890625 191 193.949219 C 191.882812 192.9375 192.949219 192.191406 194.199219 191.703125 C 195.574219 191.171875 196.988281 190.789062 198.441406 190.550781 C 199.96875 190.285156 201.503906 190.179688 203.050781 190.230469 C 208.628906 190.410156 214.128906 191.179688 219.542969 192.539062 C 224.851562 193.839844 229.960938 195.691406 234.871094 198.09375 Z M 238.207031 207.855469 C 237.113281 204.515625 235.515625 201.753906 233.242188 200.667969 L 233.171875 200.667969 C 228.5 198.316406 223.625 196.519531 218.546875 195.269531 C 213.417969 194.003906 208.214844 193.285156 202.933594 193.125 C 201.640625 193.085938 200.355469 193.167969 199.078125 193.371094 C 197.898438 193.625 196.742188 193.957031 195.609375 194.367188 C 194.859375 194.6875 194.199219 195.136719 193.625 195.71875 C 193.140625 196.304688 192.808594 196.96875 192.628906 197.707031 C 191.667969 202.574219 191.246094 207.488281 191.359375 212.449219 C 191.398438 217.746094 191.953125 222.988281 193.027344 228.175781 C 193.277344 229.082031 193.746094 229.855469 194.4375 230.492188 C 195.304688 231.28125 196.222656 232.007812 197.191406 232.667969 C 198.359375 233.355469 199.621094 233.65625 200.976562 233.570312 C 202.621094 233.535156 204.246094 233.339844 205.851562 232.996094 L 234.273438 227.28125 C 235.03125 227.148438 235.78125 226.976562 236.519531 226.761719 C 237.09375 226.601562 237.601562 226.324219 238.046875 225.929688 C 238.539062 225.515625 238.867188 225.003906 239.042969 224.386719 C 239.292969 223.636719 239.441406 222.871094 239.488281 222.082031 C 239.953125 217.273438 239.527344 212.542969 238.207031 207.894531 Z M 238.207031 207.855469 " fill-opacity="1" fill-rule="nonzero"/></svg>