<svg xmlns="http://www.w3.org/2000/svg" xmlns:xlink="http://www.w3.org/1999/xlink" width="500" zoomAndPan="magnify" viewBox="0 0 375 374.999991" height="500" preserveAspectRatio="xMidYMid meet" version="1.0"><defs><clipPath id="0e596e102e"><path d="M 3.332031 2.332031 L 371.582031 2.332031 L 371.582031 372.832031 L 3.332031 372.832031 Z M 3.332031 2.332031 " clip-rule="nonzero"/></clipPath></defs><g clip-path="url(#0e596e102e)"><path fill="currentColor" d="M 101.257812 314.898438 C 101.058594 313.359375 100.613281 312.652344 100.613281 311.820312 C 99.523438 304.375 98.902344 296.890625 98.757812 289.367188 C 98.558594 283.007812 98.558594 277.234375 99.96875 271.402344 C 100.875 267.605469 102.4375 264.097656 104.652344 260.882812 C 104.96875 257.863281 105.503906 254.882812 106.253906 251.941406 C 100.355469 236.738281 95.808594 216.53125 92.285156 189.347656 C 86.125 201.203125 78.6875 212.195312 69.972656 222.324219 C 71.960938 233.363281 71.503906 243.496094 68.625 251.839844 C 67.4375 263.449219 65.121094 274.824219 61.671875 285.96875 L 3.332031 245.769531 C 5.1875 241.058594 7.503906 236.589844 10.285156 232.359375 C 13.351562 227.691406 17.109375 223.667969 21.5625 220.296875 C 20.148438 214.078125 19.230469 207.785156 18.8125 201.421875 C 17.820312 187.570312 19.1875 167.164062 30.539062 148.761719 C 31.894531 146.566406 33.371094 144.449219 34.964844 142.414062 C 33.304688 140.347656 32.3125 137.996094 31.988281 135.359375 C 30.070312 124.066406 32.691406 113.027344 35.582031 103.726562 C 40.070312 89.292969 45.332031 78.710938 52.121094 70.367188 C 61.15625 59.335938 73.410156 52.480469 85.652344 51.488281 C 86.609375 51.382812 87.574219 51.335938 88.539062 51.359375 C 91.386719 51.363281 94.207031 51.640625 97 52.195312 C 104.246094 45.835938 113.601562 42.257812 123.351562 38.96875 L 149.957031 29.929688 L 151.039062 11.578125 L 151.039062 10.875 C 150.664062 10.296875 151.945312 3.171875 151.625 2.539062 C 164.058594 6.324219 174.3125 13.765625 187.457031 14.023438 C 200.605469 14.28125 212.585938 7.066406 225.285156 3.691406 L 225.214844 10.875 L 225.214844 11.578125 L 226.308594 29.929688 L 252.917969 38.96875 C 262.65625 42.308594 272.019531 45.835938 279.269531 52.195312 C 282.058594 51.636719 284.878906 51.359375 287.726562 51.359375 C 288.691406 51.335938 289.65625 51.382812 290.617188 51.488281 C 302.859375 52.480469 315.039062 59.378906 324.144531 70.367188 C 330.9375 78.710938 336.199219 89.292969 340.6875 103.726562 C 343.566406 113.027344 346.195312 124.066406 344.269531 135.359375 C 343.917969 137.984375 342.925781 140.335938 341.292969 142.414062 C 342.882812 144.449219 344.355469 146.566406 345.710938 148.761719 C 357.058594 167.171875 358.40625 187.582031 357.445312 201.421875 C 357.023438 207.785156 356.101562 214.078125 354.683594 220.296875 C 359.140625 223.667969 362.90625 227.6875 365.972656 232.359375 C 368.089844 235.617188 369.953125 239.019531 371.554688 242.5625 L 313.460938 282.589844 C 310.65625 272.53125 308.691406 262.3125 307.5625 251.929688 C 304.746094 243.585938 304.296875 233.449219 306.28125 222.414062 C 297.570312 212.285156 290.132812 201.292969 283.972656 189.4375 C 280.449219 216.582031 275.902344 236.789062 269.933594 252.03125 C 270.742188 254.964844 271.296875 257.945312 271.601562 260.972656 C 273.816406 264.1875 275.375 267.695312 276.277344 271.492188 C 277.6875 277.324219 277.6875 283.097656 277.5 289.457031 C 277.378906 296.5 276.847656 303.515625 275.902344 310.5 C 266.726562 323.066406 225.058594 372.664062 188.839844 372.664062 C 152.617188 372.664062 113.183594 329.613281 101.328125 314.988281 Z M 101.257812 314.898438 " fill-opacity="1" fill-rule="nonzero"/></g><path fill="currentColor" d="M 113.113281 319.738281 L 112.984375 319.351562 C 112.898438 319.101562 112.726562 318.972656 112.464844 318.957031 C 112.203125 318.941406 112.015625 319.054688 111.902344 319.289062 Z M 113.113281 319.738281 " fill-opacity="1" fill-rule="nonzero"/><path fill="currentColor" d="M 262.371094 258.984375 C 267.046875 261.964844 269.996094 267.199219 271.304688 272.644531 C 272.617188 278.089844 272.527344 283.683594 272.296875 289.265625 C 272.257812 297.253906 271.578125 305.183594 270.253906 313.0625 C 252.679688 321.007812 219.148438 334.363281 188.769531 335.265625 C 157.800781 336.160156 123.886719 324.230469 106.898438 317.304688 C 104.585938 308.191406 104.136719 298.695312 103.917969 289.265625 C 103.730469 283.683594 103.601562 278.039062 104.914062 272.644531 C 106.222656 267.25 109.140625 261.996094 113.847656 258.984375 Z M 262.371094 258.984375 " fill-opacity="1" fill-rule="nonzero"/><path fill="currentColor" d="M 259.925781 261.488281 C 279.546875 226.070312 282.8125 149.855469 286.734375 98.988281 C 287.726562 86.074219 288.402344 71.914062 280.90625 61.394531 C 274.175781 51.835938 262.308594 47.484375 251.277344 43.6875 C 230.707031 36.695312 210.152344 29.699219 189.613281 22.707031 L 186.632812 22.707031 L 124.910156 43.667969 C 113.816406 47.453125 102.074219 51.816406 95.230469 61.375 C 87.796875 71.894531 88.429688 86.074219 89.464844 98.96875 C 93.367188 149.835938 96.640625 226.050781 116.269531 261.46875 Z M 259.925781 261.488281 " fill-opacity="1" fill-rule="nonzero"/><path fill="currentColor" d="M 156.132812 11.550781 C 155.683594 18.789062 155.234375 26.039062 154.785156 33.296875 C 154.554688 35.054688 154.683594 36.789062 155.171875 38.492188 C 155.71875 39.722656 156.445312 40.832031 157.355469 41.820312 C 164.660156 50.96875 172.601562 59.523438 181.183594 67.484375 C 182.085938 68.320312 183.367188 69.152344 184.332031 68.476562 C 184.917969 67.839844 185.15625 67.09375 185.035156 66.230469 C 184.707031 55.910156 183.238281 45.578125 179.585938 35.949219 C 175.929688 26.324219 169.777344 17.480469 161.375 11.578125 C 160.601562 10.941406 159.722656 10.507812 158.746094 10.289062 C 158.265625 10.171875 157.789062 10.1875 157.316406 10.335938 C 156.847656 10.488281 156.449219 10.75 156.125 11.121094 Z M 156.132812 11.550781 " fill-opacity="1" fill-rule="nonzero"/><path fill="currentColor" d="M 157.226562 11.609375 L 155.945312 33.355469 C 155.855469 34.191406 155.835938 35.023438 155.875 35.859375 C 155.867188 36.609375 155.996094 37.335938 156.261719 38.035156 C 156.4375 38.589844 156.691406 39.101562 157.027344 39.578125 L 158.1875 41.117188 C 161.84375 45.675781 165.625 50.058594 169.597656 54.339844 C 173.566406 58.621094 177.679688 62.734375 181.910156 66.648438 C 182.285156 67.058594 182.730469 67.359375 183.25 67.554688 C 183.378906 67.617188 183.507812 67.617188 183.636719 67.554688 C 183.71875 67.460938 183.761719 67.351562 183.765625 67.226562 C 183.816406 66.894531 183.835938 66.566406 183.824219 66.230469 C 183.710938 61.132812 183.242188 56.066406 182.414062 51.03125 C 181.574219 46.003906 180.25 41.105469 178.441406 36.335938 C 176.589844 31.40625 174.089844 26.832031 170.945312 22.605469 C 168.070312 18.675781 164.648438 15.300781 160.679688 12.472656 C 160.3125 12.210938 159.929688 11.976562 159.53125 11.769531 C 159.21875 11.589844 158.886719 11.460938 158.535156 11.378906 C 158.199219 11.300781 157.867188 11.324219 157.542969 11.449219 C 157.414062 11.449219 157.355469 11.507812 157.226562 11.578125 Z M 153.703125 33.226562 L 154.980469 11.480469 L 154.980469 10.773438 L 155.171875 10.457031 C 155.613281 9.894531 156.171875 9.488281 156.839844 9.234375 C 157.535156 9.027344 158.238281 8.984375 158.953125 9.105469 C 159.535156 9.253906 160.089844 9.46875 160.621094 9.75 C 161.085938 10.007812 161.535156 10.285156 161.972656 10.585938 C 166.125 13.582031 169.734375 17.132812 172.804688 21.234375 C 176.035156 25.652344 178.621094 30.421875 180.558594 35.542969 C 182.417969 40.433594 183.765625 45.460938 184.597656 50.625 C 185.476562 55.761719 185.964844 60.941406 186.066406 66.152344 C 186.085938 66.671875 186.046875 67.183594 185.949219 67.691406 C 185.925781 67.878906 185.878906 68.058594 185.8125 68.234375 C 185.75 68.410156 185.664062 68.578125 185.5625 68.734375 C 185.460938 68.890625 185.34375 69.035156 185.207031 69.167969 C 185.074219 69.296875 184.925781 69.410156 184.769531 69.511719 C 184.609375 69.609375 184.4375 69.6875 184.261719 69.746094 C 184.085938 69.808594 183.902344 69.847656 183.714844 69.867188 C 183.53125 69.886719 183.34375 69.886719 183.15625 69.863281 C 182.972656 69.84375 182.789062 69.800781 182.613281 69.738281 C 181.753906 69.445312 181.007812 68.972656 180.371094 68.328125 C 176.070312 64.355469 171.898438 60.183594 167.929688 55.890625 C 163.957031 51.597656 160.105469 47.15625 156.453125 42.535156 C 156.003906 42.03125 155.617188 41.453125 155.171875 40.878906 C 154.777344 40.246094 154.445312 39.585938 154.179688 38.890625 C 153.816406 37.929688 153.625 36.9375 153.601562 35.910156 C 153.601562 35.015625 153.660156 34.121094 153.730469 33.21875 Z M 153.703125 33.226562 " fill-opacity="1" fill-rule="nonzero"/><path fill="currentColor" d="M 47.535156 237.625 C 55.871094 230.566406 63.433594 222.761719 70.230469 214.210938 C 77.027344 205.660156 82.925781 196.527344 87.925781 186.816406 C 93.496094 175.886719 97.921875 163.90625 97.148438 151.722656 C 96.511719 142.355469 92.859375 133.503906 89.265625 124.839844 C 88.371094 122.59375 87.089844 120.089844 84.71875 119.644531 C 84.25 119.582031 83.785156 119.589844 83.320312 119.660156 C 82.855469 119.734375 82.410156 119.867188 81.984375 120.066406 C 81.558594 120.265625 81.167969 120.519531 80.8125 120.832031 C 80.460938 121.140625 80.15625 121.492188 79.902344 121.890625 C 78.875 123.484375 78.195312 125.21875 77.855469 127.085938 C 68.882812 162.1875 59.925781 197.292969 50.992188 232.398438 Z M 47.535156 237.625 " fill-opacity="1" fill-rule="nonzero"/><path fill="currentColor" d="M 52.339844 231.851562 C 58.449219 226.148438 64.113281 220.03125 69.328125 213.5 C 76.066406 205.003906 81.921875 195.9375 86.890625 186.296875 C 89.757812 180.894531 92.074219 175.265625 93.84375 169.410156 C 95.59375 163.652344 96.316406 157.773438 96.015625 151.765625 C 95.644531 147.179688 94.722656 142.710938 93.257812 138.351562 C 91.847656 133.929688 90.058594 129.570312 88.292969 125.265625 C 87.871094 124.210938 87.335938 123.21875 86.683594 122.285156 C 86.167969 121.511719 85.464844 120.996094 84.570312 120.746094 C 83.921875 120.632812 83.304688 120.71875 82.710938 121.003906 C 81.96875 121.371094 81.351562 121.882812 80.855469 122.542969 C 80.390625 123.21875 80.027344 123.945312 79.761719 124.71875 C 79.445312 125.554688 79.246094 126.449219 79 127.351562 Z M 71.125 214.910156 C 64.273438 223.5 56.664062 231.347656 48.289062 238.457031 L 42.132812 243.65625 L 49.996094 231.910156 L 76.804688 126.765625 C 77 125.820312 77.277344 124.902344 77.636719 124.003906 C 77.949219 122.984375 78.421875 122.046875 79.046875 121.183594 C 79.757812 120.210938 80.65625 119.460938 81.738281 118.9375 C 82.785156 118.457031 83.878906 118.308594 85.015625 118.492188 C 85.726562 118.664062 86.378906 118.960938 86.972656 119.378906 C 87.570312 119.800781 88.070312 120.316406 88.46875 120.925781 C 89.277344 122.011719 89.917969 123.1875 90.398438 124.453125 C 92.195312 128.753906 93.992188 133.175781 95.460938 137.667969 C 96.949219 142.21875 97.890625 146.878906 98.28125 151.65625 C 98.625 157.925781 97.875 164.0625 96.035156 170.066406 C 94.214844 176.046875 91.84375 181.796875 88.917969 187.320312 C 83.902344 197.101562 77.984375 206.296875 71.164062 214.910156 Z M 71.125 214.910156 " fill-opacity="1" fill-rule="nonzero"/><path fill="currentColor" d="M 79.136719 126.25 C 78.851562 137.179688 77.863281 148.046875 76.171875 158.851562 C 74.484375 169.65625 72.109375 180.304688 69.046875 190.800781 C 65.984375 201.300781 62.261719 211.554688 57.878906 221.570312 C 53.492188 231.585938 48.484375 241.28125 42.847656 250.648438 C 41.855469 252.308594 40.160156 254.175781 38.429688 253.46875 C 37.476562 252.882812 36.851562 252.050781 36.5625 250.964844 C 30.140625 234.992188 25.027344 218.25 23.875 201.050781 C 22.722656 183.855469 25.800781 166.03125 34.894531 151.375 C 43.992188 136.722656 59.390625 125.546875 76.597656 123.984375 Z M 79.136719 126.25 " fill-opacity="1" fill-rule="nonzero"/><path fill="currentColor" d="M 80.867188 126.320312 C 80.261719 148.421875 76.867188 170.082031 70.679688 191.304688 C 64.507812 212.53125 55.726562 232.609375 44.328125 251.542969 C 43.609375 252.773438 42.667969 253.796875 41.507812 254.621094 C 40.953125 255.003906 40.339844 255.230469 39.667969 255.300781 C 38.996094 255.367188 38.347656 255.273438 37.726562 255.011719 C 36.945312 254.613281 36.324219 254.042969 35.859375 253.300781 C 35.507812 252.757812 35.226562 252.179688 35.023438 251.5625 C 31.714844 243.503906 28.917969 235.269531 26.625 226.863281 C 24.296875 218.433594 22.800781 209.863281 22.136719 201.140625 C 21.507812 191.960938 22.167969 182.871094 24.125 173.878906 C 25.894531 165.527344 28.992188 157.695312 33.417969 150.394531 C 35.816406 146.507812 38.609375 142.925781 41.789062 139.648438 C 44.972656 136.371094 48.46875 133.472656 52.28125 130.960938 C 55.878906 128.535156 59.71875 126.585938 63.796875 125.109375 C 67.875 123.632812 72.074219 122.675781 76.386719 122.238281 L 77.09375 122.167969 L 80.804688 125.445312 Z M 67.472656 190.34375 C 73.46875 169.65625 76.800781 148.550781 77.46875 127.027344 L 75.992188 125.734375 C 72.078125 126.179688 68.273438 127.085938 64.578125 128.453125 C 60.886719 129.820312 57.410156 131.609375 54.148438 133.820312 C 50.53125 136.195312 47.214844 138.9375 44.199219 142.042969 C 41.1875 145.148438 38.542969 148.542969 36.277344 152.230469 C 32.027344 159.1875 29.050781 166.652344 27.339844 174.625 C 25.464844 183.300781 24.84375 192.066406 25.484375 200.921875 C 26.097656 209.429688 27.550781 217.792969 29.84375 226.007812 C 32.085938 234.308594 34.84375 242.4375 38.113281 250.390625 C 38.246094 250.769531 38.414062 251.128906 38.621094 251.472656 C 38.710938 251.640625 38.839844 251.769531 39.007812 251.859375 C 39.242188 251.917969 39.457031 251.875 39.652344 251.730469 C 40.378906 251.226562 40.953125 250.589844 41.378906 249.8125 C 52.601562 231.105469 61.28125 211.28125 67.414062 190.34375 Z M 67.472656 190.34375 " fill-opacity="1" fill-rule="nonzero"/><path fill="currentColor" d="M 145.878906 209.070312 C 133.695312 218.121094 122.21875 228.703125 115.425781 242.175781 C 108.636719 255.644531 106.898438 272.585938 114.144531 285.890625 C 120.878906 298.140625 133.695312 305.582031 146.066406 312.058594 C 148.828125 313.539062 152.351562 314.949219 154.851562 313.050781 C 156.839844 311.582031 157.097656 308.757812 157.226562 306.316406 C 158.507812 280.144531 159.726562 253.777344 155.558594 227.925781 C 154.464844 220.972656 152.578125 213.621094 147.097656 209.257812 Z M 145.878906 209.070312 " fill-opacity="1" fill-rule="nonzero"/><path fill="currentColor" d="M 140.238281 255.644531 C 135.273438 259.429688 134.660156 266.574219 134.976562 272.84375 C 135.96875 292.664062 141.320312 311.847656 148.121094 330.578125 C 150.753906 339.519531 163.125 359.0625 174.023438 359.894531 C 180.976562 360.414062 187.417969 350.597656 188.191406 335.265625 C 188.949219 322.757812 189.035156 310.246094 188.441406 297.730469 C 188.0625 291.125 187.449219 284.449219 184.789062 278.417969 C 181.648438 271.363281 171.582031 266.8125 164.980469 262.898438 C 158.378906 258.984375 150.941406 256.609375 143.433594 254.75 Z M 140.238281 255.644531 " fill-opacity="1" fill-rule="nonzero"/><path fill="currentColor" d="M 141.003906 257.1875 C 140.027344 258.039062 139.214844 259.023438 138.566406 260.144531 C 137.921875 261.265625 137.472656 262.460938 137.21875 263.734375 C 136.644531 266.722656 136.453125 269.734375 136.644531 272.773438 C 137.246094 282.550781 138.722656 292.195312 141.070312 301.707031 C 143.390625 311.308594 146.273438 320.742188 149.71875 330 L 149.71875 330.128906 C 151.199219 335.097656 155.816406 343.414062 161.457031 349.761719 C 165.496094 354.382812 170.042969 357.847656 174.144531 358.167969 L 174.34375 358.226562 C 176.972656 358.355469 179.59375 356.429688 181.777344 352.902344 C 184.152344 349.054688 185.878906 343.472656 186.457031 336.546875 L 186.523438 335.195312 C 186.84375 328.847656 187.101562 322.628906 187.160156 316.46875 C 187.21875 310.308594 187.101562 304.019531 186.714844 297.800781 C 186.523438 294.59375 186.328125 291.3125 185.820312 288.113281 C 185.355469 284.984375 184.5 281.96875 183.25 279.0625 C 180.875 273.738281 173.765625 269.765625 167.742188 266.367188 C 166.390625 265.660156 165.167969 264.945312 164.085938 264.378906 C 160.859375 262.476562 157.480469 260.894531 153.949219 259.640625 C 150.554688 258.417969 147 257.394531 143.433594 256.492188 Z M 133.953125 262.957031 C 134.277344 261.246094 134.890625 259.644531 135.796875 258.15625 C 136.699219 256.664062 137.835938 255.382812 139.207031 254.304688 L 139.464844 254.105469 L 143.433594 252.953125 L 143.890625 253.082031 C 147.605469 254.078125 151.386719 255.140625 155.109375 256.480469 C 158.828125 257.8125 162.394531 259.46875 165.8125 261.449219 C 167.035156 262.152344 168.1875 262.800781 169.339844 263.433594 C 175.8125 267.089844 183.507812 271.324219 186.328125 277.730469 C 187.6875 280.90625 188.625 284.203125 189.144531 287.617188 C 189.664062 290.957031 189.921875 294.355469 190.140625 297.621094 C 190.464844 303.914062 190.59375 310.207031 190.527344 316.5 C 190.460938 322.792969 190.269531 329.082031 189.949219 335.375 L 189.820312 336.855469 C 189.246094 344.296875 187.320312 350.449219 184.6875 354.738281 C 181.867188 359.359375 178.085938 361.792969 174.175781 361.605469 L 173.925781 361.605469 C 168.792969 361.21875 163.539062 357.242188 158.921875 352.046875 C 152.964844 345.3125 148.082031 336.457031 146.484375 331.132812 C 143.148438 321.707031 140.140625 312.207031 137.765625 302.578125 C 135.390625 292.859375 133.914062 283.003906 133.335938 273.011719 C 133.070312 269.644531 133.285156 266.304688 133.984375 263 Z M 133.953125 262.957031 " fill-opacity="1" fill-rule="nonzero"/><path fill="currentColor" d="M 138.363281 224.917969 C 137.699219 226.203125 137.121094 227.527344 136.621094 228.882812 C 136.121094 230.242188 135.710938 231.625 135.382812 233.035156 C 135.054688 234.445312 134.8125 235.867188 134.660156 237.308594 C 134.507812 238.746094 134.441406 240.1875 134.46875 241.636719 C 134.492188 243.082031 134.605469 244.523438 134.808594 245.953125 C 135.011719 247.386719 135.300781 248.800781 135.679688 250.199219 C 136.054688 251.597656 136.515625 252.964844 137.0625 254.304688 C 137.605469 255.644531 138.230469 256.945312 138.9375 258.210938 C 144.644531 268.480469 155.816406 275.984375 168.175781 278.078125 C 173.429688 278.914062 182.078125 278.65625 185.292969 274.800781 C 187.28125 272.4375 188.273438 268.839844 188.691406 265.859375 C 189.335938 260.214844 188.371094 254.820312 188.628906 249.179688 C 188.820312 244.113281 188.628906 239.621094 186.1875 235.515625 C 183.746094 231.414062 179.078125 229.230469 174.460938 227.617188 C 169.179688 225.8125 163.765625 224.585938 158.21875 223.9375 C 152.675781 223.289062 147.125 223.234375 141.570312 223.773438 Z M 138.363281 224.917969 " fill-opacity="1" fill-rule="nonzero"/><path fill="currentColor" d="M 139.535156 226.269531 C 137.203125 231.113281 136.070312 236.222656 136.128906 241.597656 C 136.183594 244.367188 136.578125 247.085938 137.304688 249.757812 C 138.03125 252.429688 139.074219 254.96875 140.425781 257.386719 C 143.300781 262.460938 147.167969 266.609375 152.035156 269.824219 C 157.019531 273.21875 162.492188 275.402344 168.445312 276.371094 C 171.757812 276.894531 175.066406 276.871094 178.375 276.300781 C 180.746094 275.855469 182.863281 275.019531 183.945312 273.679688 C 184.777344 272.652344 185.417969 271.515625 185.871094 270.269531 C 186.4375 268.78125 186.804688 267.246094 186.960938 265.660156 C 187.273438 262.535156 187.289062 259.410156 187.011719 256.28125 C 186.882812 253.90625 186.824219 251.53125 186.882812 249.097656 C 187.046875 246.773438 186.984375 244.457031 186.695312 242.144531 C 186.609375 241.105469 186.398438 240.09375 186.066406 239.109375 C 185.734375 238.125 185.289062 237.191406 184.730469 236.3125 C 184.171875 235.4375 183.515625 234.636719 182.765625 233.921875 C 182.011719 233.203125 181.183594 232.585938 180.28125 232.070312 C 178.238281 230.898438 176.105469 229.9375 173.875 229.1875 C 168.726562 227.429688 163.445312 226.230469 158.039062 225.59375 C 152.683594 224.953125 147.316406 224.890625 141.945312 225.402344 Z M 132.800781 241.667969 C 132.730469 238.613281 133.039062 235.597656 133.71875 232.621094 C 134.402344 229.644531 135.441406 226.800781 136.832031 224.082031 L 137.160156 223.507812 L 141.191406 222.09375 L 141.390625 222.09375 C 147.078125 221.515625 152.761719 221.578125 158.4375 222.285156 C 164.082031 222.941406 169.597656 224.183594 174.976562 226.007812 C 177.425781 226.871094 179.78125 227.9375 182.039062 229.21875 C 184.378906 230.558594 186.261719 232.375 187.675781 234.671875 C 188.96875 236.859375 189.777344 239.210938 190.109375 241.726562 C 190.371094 244.222656 190.4375 246.722656 190.308594 249.226562 C 190.222656 251.546875 190.265625 253.867188 190.4375 256.183594 C 190.667969 259.476562 190.644531 262.769531 190.367188 266.058594 C 190.160156 267.933594 189.710938 269.753906 189.027344 271.511719 C 188.449219 273.101562 187.636719 274.554688 186.585938 275.875 C 185.566406 276.90625 184.410156 277.746094 183.117188 278.394531 C 181.820312 279.042969 180.453125 279.464844 179.019531 279.660156 C 175.304688 280.292969 171.589844 280.316406 167.871094 279.730469 C 161.429688 278.648438 155.507812 276.273438 150.105469 272.605469 C 144.800781 269.082031 140.554688 264.5625 137.367188 259.042969 C 135.898438 256.382812 134.773438 253.582031 133.992188 250.640625 C 133.214844 247.699219 132.804688 244.710938 132.761719 241.667969 Z M 132.800781 241.667969 " fill-opacity="1" fill-rule="nonzero"/><path fill="currentColor" d="M 343.785156 220.167969 C 351.21875 222.871094 357.316406 228.574219 361.65625 235.179688 C 363.804688 238.457031 365.640625 241.902344 367.164062 245.511719 L 338.125 265.589844 C 337.546875 263.285156 337.03125 260.972656 336.644531 258.636719 C 335.5625 252.121094 335.394531 245.585938 336.136719 239.023438 C 336.875 232.460938 338.5 226.128906 341.003906 220.019531 Z M 343.785156 220.167969 " fill-opacity="1" fill-rule="nonzero"/><path fill="currentColor" d="M 220.054688 11.550781 L 221.394531 33.296875 C 221.59375 35.054688 221.46875 36.785156 221.015625 38.492188 C 220.445312 39.703125 219.714844 40.8125 218.832031 41.820312 C 211.507812 50.953125 203.566406 59.503906 195.003906 67.484375 C 194.109375 68.320312 192.828125 69.152344 191.867188 68.476562 C 191.277344 67.839844 191.042969 67.09375 191.160156 66.230469 C 191.480469 55.910156 192.890625 45.578125 196.613281 35.949219 C 200.335938 26.324219 206.421875 17.480469 214.820312 11.578125 C 215.585938 10.925781 216.460938 10.496094 217.441406 10.289062 C 217.914062 10.171875 218.382812 10.1875 218.847656 10.335938 C 219.3125 10.488281 219.699219 10.75 220.015625 11.121094 Z M 220.054688 11.550781 " fill-opacity="1" fill-rule="nonzero"/><path fill="currentColor" d="M 221.207031 11.480469 L 222.484375 33.226562 C 222.574219 34.125 222.597656 35.019531 222.554688 35.921875 C 222.550781 36.941406 222.375 37.9375 222.039062 38.902344 C 221.765625 39.59375 221.4375 40.253906 221.046875 40.886719 C 220.589844 41.464844 220.210938 42.039062 219.757812 42.546875 C 216.101562 47.167969 212.261719 51.597656 208.289062 55.898438 C 204.316406 60.203125 200.148438 64.363281 195.847656 68.339844 C 195.210938 68.984375 194.460938 69.453125 193.605469 69.75 C 193.203125 69.878906 192.789062 69.910156 192.371094 69.84375 C 191.953125 69.777344 191.574219 69.621094 191.230469 69.371094 C 190.714844 68.925781 190.386719 68.367188 190.238281 67.703125 C 190.179688 67.191406 190.15625 66.675781 190.167969 66.164062 C 190.253906 60.949219 190.726562 55.769531 191.589844 50.625 C 192.390625 45.453125 193.738281 40.429688 195.628906 35.550781 C 197.5625 30.429688 200.148438 25.660156 203.382812 21.246094 C 206.449219 17.136719 210.058594 13.585938 214.214844 10.585938 C 214.664062 10.328125 215.121094 10.007812 215.566406 9.75 C 216.09375 9.46875 216.652344 9.253906 217.234375 9.105469 C 217.949219 8.988281 218.652344 9.03125 219.347656 9.234375 C 220.015625 9.492188 220.570312 9.898438 221.015625 10.457031 L 221.207031 10.773438 Z M 220.210938 33.335938 L 218.933594 11.480469 C 218.804688 11.410156 218.742188 11.351562 218.613281 11.351562 C 218.289062 11.226562 217.960938 11.203125 217.621094 11.28125 C 217.265625 11.351562 216.9375 11.480469 216.628906 11.667969 C 216.226562 11.878906 215.839844 12.113281 215.464844 12.375 C 211.488281 15.183594 208.070312 18.5625 205.210938 22.507812 C 202.074219 26.746094 199.550781 31.320312 197.644531 36.238281 C 195.859375 41.007812 194.554688 45.90625 193.734375 50.933594 C 192.910156 55.964844 192.441406 61.03125 192.324219 66.132812 C 192.304688 66.46875 192.328125 66.796875 192.394531 67.125 C 192.382812 67.273438 192.425781 67.402344 192.523438 67.515625 C 192.648438 67.578125 192.773438 67.578125 192.898438 67.515625 C 193.421875 67.320312 193.871094 67.019531 194.25 66.609375 C 198.480469 62.695312 202.578125 58.53125 206.5625 54.300781 C 210.542969 50.066406 214.316406 45.636719 217.910156 41.078125 C 218.335938 40.597656 218.722656 40.082031 219.0625 39.535156 C 219.425781 39.09375 219.703125 38.605469 219.894531 38.066406 C 220.15625 37.339844 220.285156 36.59375 220.28125 35.820312 C 220.324219 34.984375 220.300781 34.148438 220.210938 33.316406 Z M 220.210938 33.335938 " fill-opacity="1" fill-rule="nonzero"/><path fill="currentColor" d="M 328.652344 237.625 C 320.320312 230.566406 312.757812 222.761719 305.964844 214.210938 C 299.171875 205.660156 293.277344 196.527344 288.28125 186.816406 C 282.703125 175.886719 278.285156 163.90625 279.050781 151.722656 C 279.695312 142.355469 283.289062 133.503906 286.871094 124.839844 C 287.867188 122.59375 289.117188 120.089844 291.488281 119.644531 C 291.957031 119.585938 292.421875 119.589844 292.882812 119.664062 C 293.347656 119.734375 293.792969 119.871094 294.21875 120.070312 C 294.640625 120.269531 295.03125 120.523438 295.386719 120.832031 C 295.738281 121.140625 296.042969 121.492188 296.296875 121.890625 C 297.328125 123.484375 298.015625 125.214844 298.351562 127.085938 C 307.265625 162.1875 316.203125 197.292969 325.15625 232.398438 Z M 328.652344 237.625 " fill-opacity="1" fill-rule="nonzero"/><path fill="currentColor" d="M 327.996094 238.457031 C 319.578125 231.378906 311.941406 223.535156 305.089844 214.925781 C 298.238281 206.320312 292.304688 197.117188 287.289062 187.320312 C 284.371094 181.796875 282.003906 176.042969 280.179688 170.066406 C 278.332031 164.0625 277.582031 157.925781 277.9375 151.65625 C 278.257812 146.867188 279.199219 142.203125 280.757812 137.667969 C 282.226562 133.175781 284.023438 128.722656 285.820312 124.453125 C 286.300781 123.1875 286.941406 122.011719 287.746094 120.925781 C 288.140625 120.308594 288.636719 119.789062 289.234375 119.371094 C 289.832031 118.949219 290.488281 118.65625 291.203125 118.492188 C 292.339844 118.308594 293.429688 118.457031 294.476562 118.9375 C 295.578125 119.453125 296.488281 120.195312 297.21875 121.164062 C 297.84375 122.027344 298.3125 122.96875 298.628906 123.984375 C 298.957031 124.890625 299.234375 125.8125 299.460938 126.746094 L 326.269531 231.890625 L 334.152344 243.632812 Z M 306.910156 213.5 C 312.105469 220.050781 317.769531 226.164062 323.898438 231.851562 L 297.21875 127.34375 C 296.960938 126.4375 296.773438 125.546875 296.453125 124.710938 C 296.191406 123.933594 295.828125 123.207031 295.363281 122.535156 C 294.863281 121.875 294.246094 121.363281 293.503906 120.996094 C 292.910156 120.710938 292.289062 120.625 291.636719 120.738281 C 290.746094 120.992188 290.039062 121.503906 289.523438 122.277344 C 288.878906 123.210938 288.347656 124.203125 287.925781 125.257812 C 286.128906 129.558594 284.332031 133.921875 282.960938 138.339844 C 281.46875 142.695312 280.550781 147.164062 280.210938 151.753906 C 279.878906 157.769531 280.585938 163.660156 282.324219 169.429688 C 284.09375 175.285156 286.410156 180.914062 289.277344 186.320312 C 294.246094 195.957031 300.101562 205.023438 306.839844 213.519531 Z M 306.910156 213.5 " fill-opacity="1" fill-rule="nonzero"/><path fill="currentColor" d="M 297.050781 126.25 C 297.335938 137.179688 298.324219 148.046875 300.015625 158.851562 C 301.703125 169.65625 304.078125 180.304688 307.140625 190.800781 C 310.203125 201.300781 313.925781 211.554688 318.308594 221.570312 C 322.695312 231.585938 327.703125 241.28125 333.339844 250.648438 C 334.332031 252.308594 336.027344 254.175781 337.757812 253.46875 C 338.710938 252.886719 339.332031 252.050781 339.613281 250.964844 C 346.027344 234.992188 351.160156 218.25 352.3125 201.050781 C 353.464844 183.855469 350.386719 166.03125 341.28125 151.375 C 332.175781 136.722656 316.726562 125.546875 299.582031 123.984375 Z M 297.050781 126.25 " fill-opacity="1" fill-rule="nonzero"/><path fill="currentColor" d="M 298.71875 127.027344 C 299.378906 148.554688 302.714844 169.660156 308.714844 190.34375 C 314.820312 211.292969 323.496094 231.117188 334.75 249.8125 C 335.171875 250.59375 335.746094 251.230469 336.476562 251.730469 C 336.671875 251.875 336.886719 251.917969 337.121094 251.859375 C 337.285156 251.765625 337.410156 251.636719 337.5 251.472656 C 337.722656 251.136719 337.898438 250.777344 338.015625 250.390625 C 341.277344 242.4375 344.035156 234.308594 346.285156 226.007812 C 348.578125 217.792969 350.03125 209.429688 350.644531 200.921875 C 351.246094 192.070312 350.628906 183.304688 348.789062 174.625 C 347.042969 166.667969 344.0625 159.203125 339.851562 152.230469 C 337.574219 148.550781 334.929688 145.160156 331.917969 142.054688 C 328.902344 138.949219 325.589844 136.203125 321.980469 133.820312 C 318.71875 131.609375 315.242188 129.820312 311.546875 128.453125 C 307.855469 127.085938 304.050781 126.179688 300.136719 125.734375 Z M 305.507812 191.304688 C 299.316406 170.082031 295.921875 148.421875 295.320312 126.320312 L 295.320312 125.484375 L 299.035156 122.207031 L 299.742188 122.277344 C 304.054688 122.71875 308.253906 123.675781 312.332031 125.152344 C 316.410156 126.625 320.25 128.578125 323.847656 131 C 327.667969 133.511719 331.171875 136.40625 334.363281 139.683594 C 337.550781 142.960938 340.351562 146.542969 342.761719 150.433594 C 347.175781 157.738281 350.273438 165.570312 352.054688 173.917969 C 354.015625 182.914062 354.65625 192 353.980469 201.179688 C 353.34375 209.898438 351.867188 218.472656 349.550781 226.902344 C 347.265625 235.3125 344.464844 243.542969 341.152344 251.601562 C 340.957031 252.222656 340.679688 252.800781 340.316406 253.339844 C 339.84375 254.089844 339.207031 254.644531 338.402344 255.011719 C 337.789062 255.273438 337.152344 255.367188 336.492188 255.300781 C 335.828125 255.230469 335.222656 255.003906 334.679688 254.621094 C 333.5 253.8125 332.5625 252.785156 331.859375 251.542969 C 320.464844 232.609375 311.679688 212.53125 305.507812 191.304688 Z M 305.507812 191.304688 " fill-opacity="1" fill-rule="nonzero"/><path fill="currentColor" d="M 230.308594 209.070312 C 242.492188 218.121094 253.898438 228.703125 260.761719 242.175781 C 267.621094 255.644531 269.21875 272.585938 261.980469 285.890625 C 255.308594 298.140625 242.492188 305.582031 230.121094 312.058594 C 227.359375 313.539062 223.835938 314.949219 221.335938 313.050781 C 219.347656 311.582031 219.019531 308.757812 218.960938 306.316406 C 217.679688 280.144531 216.460938 253.777344 220.628906 227.925781 C 221.722656 220.972656 223.609375 213.621094 229.089844 209.257812 Z M 230.308594 209.070312 " fill-opacity="1" fill-rule="nonzero"/><path fill="currentColor" d="M 114.78125 67.296875 C 119.082031 63.0625 125.8125 62.675781 131.839844 62.933594 C 143.640625 63.363281 155.222656 65.183594 166.589844 68.386719 C 173.539062 70.304688 180.886719 73.355469 184.09375 79.742188 C 185.828125 83.140625 186.019531 87.117188 186.277344 91.03125 C 186.722656 99.566406 187.171875 108.097656 186.980469 116.625 C 186.851562 124.261719 186.078125 132.023438 182.941406 139.015625 C 177.042969 152.101562 162.816406 160.378906 148.449219 161.539062 C 134.082031 162.703125 119.796875 157.566406 107.671875 149.796875 C 99.789062 144.730469 92.222656 137.992188 89.53125 129.011719 C 86.644531 119.257812 89.851562 108.863281 93.503906 99.367188 C 96.484375 91.675781 99.660156 84.035156 103.125 76.59375 C 105.050781 72.550781 107.542969 68.128906 111.84375 66.976562 Z M 114.78125 67.296875 " fill-opacity="1" fill-rule="nonzero"/><path fill="currentColor" d="M 114.207031 65.527344 C 116.566406 63.507812 119.28125 62.246094 122.347656 61.742188 C 125.507812 61.164062 128.691406 60.96875 131.898438 61.15625 C 137.851562 61.414062 143.769531 61.996094 149.660156 62.894531 C 155.523438 63.851562 161.316406 65.132812 167.035156 66.738281 C 170.726562 67.660156 174.230469 69.050781 177.550781 70.910156 C 179.261719 71.808594 180.800781 72.941406 182.167969 74.308594 C 183.53125 75.675781 184.664062 77.214844 185.5625 78.929688 C 186.480469 80.820312 187.078125 82.808594 187.359375 84.890625 C 187.675781 86.878906 187.804688 88.863281 187.933594 90.851562 L 187.933594 90.980469 C 188.382812 99.515625 188.828125 108.050781 188.640625 116.644531 C 188.625 120.535156 188.324219 124.410156 187.734375 128.257812 C 187.195312 132.21875 186.109375 136.023438 184.46875 139.671875 C 182.933594 142.984375 180.960938 146.011719 178.550781 148.753906 C 176.140625 151.492188 173.390625 153.835938 170.300781 155.777344 C 167.035156 157.878906 163.5625 159.550781 159.886719 160.800781 C 156.210938 162.046875 152.4375 162.832031 148.566406 163.148438 C 141.507812 163.664062 134.585938 162.917969 127.796875 160.90625 C 120.308594 158.691406 113.300781 155.441406 106.769531 151.15625 C 102.585938 148.613281 98.804688 145.570312 95.421875 142.027344 C 91.921875 138.453125 89.425781 134.28125 87.925781 129.507812 C 86.484375 124.3125 86.3125 119.074219 87.410156 113.792969 C 88.417969 108.640625 89.914062 103.636719 91.894531 98.78125 C 93.367188 94.933594 94.875 91.089844 96.574219 87.234375 C 98.269531 83.378906 99.847656 79.664062 101.636719 75.878906 C 102.582031 73.660156 103.78125 71.589844 105.230469 69.660156 C 105.980469 68.613281 106.886719 67.722656 107.941406 66.984375 C 108.996094 66.246094 110.144531 65.703125 111.386719 65.359375 L 111.703125 65.230469 Z M 122.992188 65.070312 C 120.328125 65.5 118.011719 66.632812 116.042969 68.476562 L 115.464844 69.054688 L 112 68.667969 C 110.347656 69.242188 109 70.234375 107.960938 71.648438 C 106.648438 73.378906 105.5625 75.238281 104.695312 77.230469 C 102.964844 80.886719 101.296875 84.671875 99.730469 88.457031 C 98.160156 92.242188 96.652344 96.027344 95.113281 99.882812 C 93.203125 104.578125 91.730469 109.410156 90.703125 114.378906 C 89.714844 119.144531 89.863281 123.871094 91.152344 128.566406 C 92.527344 132.808594 94.769531 136.527344 97.882812 139.722656 C 101.085938 143.054688 104.652344 145.945312 108.574219 148.386719 C 114.867188 152.441406 121.601562 155.539062 128.769531 157.683594 C 135.144531 159.613281 141.652344 160.320312 148.289062 159.800781 C 151.882812 159.507812 155.386719 158.785156 158.800781 157.636719 C 162.21875 156.488281 165.445312 154.945312 168.484375 153.007812 C 171.285156 151.214844 173.785156 149.070312 175.976562 146.574219 C 178.171875 144.074219 179.976562 141.320312 181.390625 138.3125 C 182.867188 134.941406 183.863281 131.433594 184.371094 127.789062 C 184.929688 124.089844 185.226562 120.367188 185.265625 116.625 C 185.453125 108.160156 184.945312 99.734375 184.5 91.21875 L 184.5 91.101562 C 184.453125 89.203125 184.28125 87.320312 183.984375 85.445312 C 183.847656 84.214844 183.558594 83.019531 183.121094 81.859375 C 182.683594 80.703125 182.109375 79.613281 181.398438 78.601562 C 180.6875 77.585938 179.863281 76.675781 178.921875 75.871094 C 177.980469 75.066406 176.953125 74.390625 175.84375 73.84375 C 172.75 72.175781 169.5 70.914062 166.09375 70.058594 C 160.507812 68.441406 154.847656 67.179688 149.105469 66.273438 C 143.347656 65.359375 137.554688 64.800781 131.730469 64.601562 C 128.785156 64.414062 125.859375 64.585938 122.953125 65.109375 Z M 122.992188 65.070312 " fill-opacity="1" fill-rule="nonzero"/><path fill="currentColor" d="M 86.058594 56.457031 C 94.992188 55.679688 106.769531 59.078125 113.113281 63.699219 C 115.039062 65.050781 116.894531 66.679688 117.601562 68.964844 C 118.691406 72.105469 117.414062 75.5 116.0625 78.523438 C 109.203125 94.558594 101.578125 110.980469 87.984375 121.890625 C 75.742188 131.824219 59.964844 136.007812 44.707031 140.039062 C 43.386719 140.492188 42.042969 140.578125 40.675781 140.300781 C 38.359375 139.535156 37.339844 136.839844 36.953125 134.398438 C 35.285156 124.652344 37.46875 114.636719 40.417969 105.207031 C 43.871094 93.851562 48.558594 82.695312 56.054688 73.585938 C 63.550781 64.472656 74.261719 57.417969 86.058594 56.457031 Z M 86.058594 56.457031 " fill-opacity="1" fill-rule="nonzero"/><path fill="currentColor" d="M 85.871094 54.71875 C 90.894531 54.453125 95.832031 54.988281 100.683594 56.328125 C 105.484375 57.558594 109.949219 59.542969 114.078125 62.289062 C 115.144531 63.058594 116.136719 63.917969 117.054688 64.859375 C 118.042969 65.898438 118.769531 67.09375 119.238281 68.449219 C 119.820312 70.335938 119.882812 72.238281 119.429688 74.160156 C 119 75.910156 118.402344 77.601562 117.628906 79.226562 C 114.308594 87.441406 110.4375 95.390625 106.023438 103.070312 C 101.605469 110.820312 95.980469 117.554688 89.144531 123.28125 C 82.746094 128.242188 75.738281 132.089844 68.117188 134.824219 C 60.613281 137.53125 52.984375 139.820312 45.230469 141.691406 C 44.496094 141.898438 43.75 142.050781 42.988281 142.136719 C 42.050781 142.296875 41.132812 142.234375 40.226562 141.949219 C 39.453125 141.683594 38.757812 141.277344 38.148438 140.730469 C 37.535156 140.183594 37.054688 139.539062 36.703125 138.796875 C 36.03125 137.527344 35.578125 136.175781 35.351562 134.753906 C 34.519531 129.667969 34.519531 124.582031 35.351562 119.496094 C 36.144531 114.480469 37.320312 109.558594 38.878906 104.730469 C 40.578125 98.941406 42.695312 93.3125 45.230469 87.839844 C 47.773438 82.339844 50.933594 77.21875 54.714844 72.480469 C 58.78125 67.464844 63.609375 63.339844 69.199219 60.101562 C 74.359375 57.074219 79.914062 55.277344 85.871094 54.707031 Z M 99.769531 59.59375 C 95.320312 58.359375 90.789062 57.867188 86.175781 58.125 C 80.703125 58.648438 75.597656 60.300781 70.859375 63.09375 C 65.664062 66.136719 61.152344 69.984375 57.324219 74.636719 C 53.699219 79.167969 50.667969 84.0625 48.230469 89.332031 C 45.785156 94.625 43.726562 100.066406 42.054688 105.65625 C 40.574219 110.320312 39.445312 115.070312 38.660156 119.902344 C 37.914062 124.648438 37.914062 129.394531 38.660156 134.140625 C 38.824219 135.1875 39.15625 136.179688 39.652344 137.121094 C 39.988281 137.835938 40.523438 138.347656 41.25 138.660156 C 41.695312 138.785156 42.144531 138.804688 42.601562 138.71875 C 43.175781 138.660156 43.753906 138.460938 44.398438 138.332031 C 52.007812 136.464844 59.5 134.214844 66.875 131.574219 C 74.148438 129.007812 80.839844 125.367188 86.941406 120.648438 C 93.542969 115.320312 98.667969 108.644531 103.09375 101.273438 C 107.425781 93.726562 111.238281 85.929688 114.53125 77.875 C 115.183594 76.449219 115.695312 74.976562 116.070312 73.457031 C 116.449219 72.144531 116.429688 70.839844 116.011719 69.539062 C 115.726562 68.621094 115.234375 67.828125 114.53125 67.167969 C 113.796875 66.378906 112.984375 65.671875 112.101562 65.050781 C 108.316406 62.515625 104.210938 60.695312 99.789062 59.59375 Z M 99.769531 59.59375 " fill-opacity="1" fill-rule="nonzero"/><path fill="currentColor" d="M 261.40625 67.296875 C 257.046875 63.0625 250.375 62.675781 244.347656 62.933594 C 232.53125 63.371094 220.925781 65.1875 209.539062 68.386719 C 202.679688 70.304688 195.300781 73.355469 192.09375 79.742188 C 190.367188 83.140625 190.179688 87.117188 189.921875 91.03125 C 189.472656 99.566406 189.027344 108.097656 189.214844 116.625 C 189.34375 124.261719 190.050781 132.023438 193.257812 139.015625 C 199.152344 152.101562 213.382812 160.378906 227.75 161.539062 C 242.113281 162.703125 256.402344 157.566406 268.515625 149.796875 C 276.457031 144.730469 283.90625 137.992188 286.59375 129.011719 C 289.574219 119.257812 286.347656 108.863281 282.683594 99.367188 C 279.703125 91.675781 276.539062 84.035156 273.003906 76.59375 C 271.144531 72.550781 268.644531 68.128906 264.355469 66.976562 Z M 261.40625 67.296875 " fill-opacity="1" fill-rule="nonzero"/><path fill="currentColor" d="M 260.183594 68.507812 C 258.214844 66.664062 255.898438 65.527344 253.234375 65.101562 C 250.328125 64.578125 247.402344 64.40625 244.457031 64.59375 C 238.632812 64.792969 232.839844 65.347656 227.082031 66.261719 C 221.339844 67.167969 215.671875 68.429688 210.085938 70.046875 C 206.683594 70.90625 203.4375 72.167969 200.34375 73.832031 C 197.46875 75.375 195.246094 77.578125 193.671875 80.441406 C 192.9375 82.027344 192.421875 83.679688 192.132812 85.40625 C 191.886719 87.273438 191.757812 89.132812 191.6875 91.058594 L 191.6875 91.179688 C 191.179688 99.652344 190.695312 108.070312 190.921875 116.582031 C 190.960938 120.328125 191.257812 124.050781 191.816406 127.75 C 192.320312 131.394531 193.3125 134.902344 194.796875 138.273438 C 196.199219 141.289062 198 144.046875 200.195312 146.546875 C 202.390625 149.046875 204.894531 151.1875 207.703125 152.964844 C 210.742188 154.902344 213.96875 156.449219 217.386719 157.597656 C 220.800781 158.746094 224.304688 159.46875 227.898438 159.761719 C 234.546875 160.285156 241.0625 159.578125 247.445312 157.644531 C 254.617188 155.5 261.347656 152.402344 267.640625 148.347656 C 271.546875 145.898438 275.09375 143.011719 278.285156 139.683594 C 281.394531 136.488281 283.640625 132.769531 285.015625 128.527344 C 286.273438 123.832031 286.421875 119.101562 285.464844 114.339844 C 284.453125 109.394531 283 104.585938 281.105469 99.914062 C 279.636719 96.058594 278.125 92.210938 276.558594 88.488281 C 274.988281 84.761719 273.222656 80.917969 271.484375 77.261719 C 270.617188 75.285156 269.550781 73.421875 268.285156 71.675781 C 267.246094 70.265625 265.898438 69.273438 264.246094 68.695312 L 260.78125 69.082031 Z M 253.839844 61.769531 C 256.90625 62.277344 259.621094 63.539062 261.980469 65.558594 L 264.484375 65.230469 L 264.800781 65.359375 C 266.03125 65.703125 267.171875 66.246094 268.214844 66.984375 C 269.257812 67.722656 270.148438 68.613281 270.886719 69.660156 C 272.382812 71.570312 273.597656 73.644531 274.542969 75.878906 C 276.339844 79.664062 278.007812 83.449219 279.613281 87.234375 C 281.222656 91.019531 282.8125 94.933594 284.292969 98.78125 C 286.269531 103.640625 287.765625 108.644531 288.777344 113.792969 C 289.875 119.074219 289.703125 124.3125 288.261719 129.507812 C 286.714844 134.253906 284.21875 138.425781 280.765625 142.027344 C 277.375 145.570312 273.59375 148.632812 269.417969 151.207031 C 262.863281 155.492188 255.832031 158.742188 248.320312 160.953125 C 241.535156 162.972656 234.609375 163.722656 227.550781 163.199219 C 223.683594 162.871094 219.910156 162.082031 216.234375 160.835938 C 212.558594 159.585938 209.085938 157.917969 205.816406 155.828125 C 202.746094 153.863281 200.003906 151.511719 197.597656 148.777344 C 195.1875 146.039062 193.203125 143.019531 191.648438 139.722656 C 190.066406 136.0625 188.996094 132.257812 188.441406 128.308594 C 187.855469 124.457031 187.523438 120.585938 187.449219 116.691406 C 187.320312 108.097656 187.765625 99.566406 188.214844 91.03125 L 188.214844 90.902344 C 188.34375 88.914062 188.402344 86.925781 188.730469 84.941406 C 189.023438 82.851562 189.644531 80.863281 190.585938 78.980469 C 191.480469 77.265625 192.613281 75.726562 193.980469 74.355469 C 195.347656 72.988281 196.886719 71.859375 198.597656 70.960938 C 201.898438 69.105469 205.382812 67.714844 209.054688 66.789062 C 214.792969 65.183594 220.605469 63.902344 226.488281 62.945312 C 232.375 62.039062 238.296875 61.460938 244.25 61.203125 C 247.457031 61.019531 250.640625 61.214844 253.800781 61.792969 Z M 253.839844 61.769531 " fill-opacity="1" fill-rule="nonzero"/><path fill="currentColor" d="M 290.121094 56.457031 C 281.183594 55.679688 269.417969 59.078125 263.074219 63.699219 C 260.992188 64.964844 259.472656 66.71875 258.515625 68.964844 C 257.523438 72.105469 258.773438 75.5 260.125 78.523438 C 266.976562 94.558594 274.609375 110.980469 288.203125 121.890625 C 300.445312 131.824219 316.222656 136.007812 331.472656 140.039062 C 332.796875 140.492188 334.144531 140.578125 335.511719 140.300781 C 337.828125 139.535156 338.78125 136.839844 339.234375 134.398438 C 340.902344 124.652344 338.71875 114.636719 335.769531 105.207031 C 332.304688 93.851562 327.628906 82.695312 320.125 73.585938 C 312.617188 64.472656 301.925781 57.417969 290.121094 56.457031 Z M 290.121094 56.457031 " fill-opacity="1" fill-rule="nonzero"/><path fill="currentColor" d="M 290 58.125 C 285.375 57.847656 280.832031 58.328125 276.367188 59.566406 C 271.945312 60.664062 267.839844 62.480469 264.058594 65.019531 C 263.148438 65.636719 262.316406 66.34375 261.554688 67.136719 C 260.902344 67.828125 260.414062 68.617188 260.085938 69.511719 C 259.734375 70.808594 259.710938 72.113281 260.015625 73.425781 C 260.417969 74.945312 260.949219 76.421875 261.613281 77.847656 C 264.90625 85.882812 268.714844 93.667969 273.03125 101.203125 C 277.265625 108.660156 282.679688 115.128906 289.277344 120.605469 C 295.371094 125.339844 302.0625 128.980469 309.339844 131.535156 C 316.746094 134.191406 324.269531 136.457031 331.910156 138.332031 C 332.5 138.492188 333.101562 138.625 333.707031 138.71875 C 334.160156 138.804688 334.609375 138.785156 335.054688 138.660156 C 335.785156 138.347656 336.316406 137.835938 336.65625 137.121094 C 337.113281 136.167969 337.445312 135.175781 337.648438 134.140625 C 338.351562 129.394531 338.351562 124.648438 337.648438 119.902344 C 336.863281 115.070312 335.730469 110.320312 334.253906 105.65625 C 332.554688 100.054688 330.46875 94.605469 327.996094 89.300781 C 325.554688 84.035156 322.519531 79.136719 318.890625 74.609375 C 315.066406 69.960938 310.558594 66.109375 305.371094 63.0625 C 300.628906 60.285156 295.519531 58.628906 290.050781 58.09375 Z M 275.503906 56.328125 C 280.355469 54.980469 285.292969 54.445312 290.316406 54.71875 C 296.273438 55.289062 301.828125 57.085938 306.988281 60.113281 C 312.574219 63.34375 317.40625 67.46875 321.472656 72.480469 C 325.277344 77.199219 328.445312 82.3125 330.976562 87.820312 C 333.554688 93.28125 335.691406 98.914062 337.378906 104.710938 C 338.941406 109.53125 340.117188 114.449219 340.902344 119.453125 C 341.679688 124.542969 341.679688 129.628906 340.902344 134.714844 C 340.675781 136.136719 340.226562 137.484375 339.554688 138.757812 C 339.203125 139.5 338.71875 140.140625 338.109375 140.6875 C 337.496094 141.234375 336.804688 141.640625 336.027344 141.910156 C 335.125 142.195312 334.203125 142.257812 333.269531 142.097656 C 332.507812 142.015625 331.757812 141.867188 331.023438 141.648438 C 323.25 139.777344 315.597656 137.492188 308.070312 134.785156 C 300.480469 132.035156 293.492188 128.1875 287.109375 123.238281 C 280.261719 117.515625 274.617188 110.78125 270.183594 103.03125 C 265.78125 95.335938 261.894531 87.386719 258.515625 79.1875 C 257.792969 77.546875 257.21875 75.859375 256.789062 74.121094 C 256.277344 72.203125 256.320312 70.300781 256.917969 68.40625 C 257.429688 67.0625 258.175781 65.867188 259.164062 64.820312 C 260.078125 63.875 261.070312 63.015625 262.140625 62.25 C 266.269531 59.503906 270.734375 57.519531 275.535156 56.289062 Z M 275.503906 56.328125 " fill-opacity="1" fill-rule="nonzero"/><path fill="currentColor" d="M 236.59375 255.644531 C 241.558594 259.429688 242.175781 266.574219 241.847656 272.84375 C 240.753906 292.664062 235.433594 311.847656 228.703125 330.578125 C 226.082031 339.519531 213.640625 359.0625 202.738281 359.894531 C 195.878906 360.414062 189.40625 350.597656 188.570312 335.265625 C 187.835938 322.757812 187.773438 310.246094 188.382812 297.730469 C 188.769531 291.125 189.375 284.449219 192.035156 278.417969 C 195.171875 271.363281 205.242188 266.8125 211.84375 262.898438 C 218.445312 258.984375 225.882812 256.609375 233.386719 254.75 Z M 236.59375 255.644531 " fill-opacity="1" fill-rule="nonzero"/><path fill="currentColor" d="M 237.648438 254.296875 C 239.019531 255.371094 240.15625 256.652344 241.0625 258.144531 C 241.96875 259.632812 242.585938 261.234375 242.910156 262.949219 C 243.601562 266.257812 243.8125 269.59375 243.542969 272.964844 C 242.976562 282.960938 241.480469 292.816406 239.058594 302.53125 C 236.679688 312.210938 233.773438 321.726562 230.339844 331.082031 C 228.800781 336.410156 223.925781 345.261719 217.96875 351.996094 C 213.351562 357.195312 208.089844 361.167969 202.898438 361.554688 L 202.707031 361.554688 C 198.796875 361.742188 195.015625 359.308594 192.195312 354.691406 C 189.503906 350.386719 187.578125 344.238281 187 336.804688 L 186.933594 335.324219 C 186.613281 329.039062 186.355469 322.75 186.355469 316.449219 C 186.355469 310.148438 186.425781 303.871094 186.742188 297.574219 C 186.933594 294.304688 187.191406 290.90625 187.738281 287.566406 C 188.257812 284.152344 189.195312 280.859375 190.554688 277.683594 C 193.375 271.273438 201.070312 267.042969 207.484375 263.386719 C 208.695312 262.738281 209.855469 262.09375 211.070312 261.398438 C 214.488281 259.417969 218.058594 257.761719 221.78125 256.429688 C 225.496094 255.089844 229.277344 253.996094 233 253.03125 L 233.449219 252.902344 L 237.417969 254.054688 Z M 239.574219 263.722656 C 239.347656 262.449219 238.914062 261.25 238.277344 260.128906 C 237.636719 259.003906 236.828125 258.019531 235.851562 257.175781 L 233.347656 256.472656 C 229.824219 257.375 226.300781 258.398438 222.902344 259.621094 C 219.359375 260.890625 215.960938 262.46875 212.707031 264.359375 C 211.714844 264.933594 210.460938 265.652344 209.121094 266.347656 C 203.097656 269.742188 195.976562 273.71875 193.605469 279.042969 C 192.335938 281.941406 191.464844 284.949219 190.984375 288.074219 C 190.464844 291.273438 190.277344 294.550781 190.078125 297.761719 C 189.703125 303.980469 189.574219 310.199219 189.632812 316.429688 C 189.691406 322.660156 189.949219 328.808594 190.277344 335.15625 L 190.335938 336.507812 C 190.855469 343.464844 192.652344 349.015625 195.015625 352.863281 C 197.140625 356.386719 199.828125 358.316406 202.460938 358.1875 L 202.578125 358.128906 C 206.75 357.808594 211.308594 354.34375 215.335938 349.722656 C 220.988281 343.375 225.605469 335.027344 227.074219 330.089844 L 227.074219 329.960938 C 230.492188 320.691406 233.378906 311.261719 235.730469 301.664062 C 238.082031 292.15625 239.535156 282.515625 240.089844 272.734375 C 240.347656 269.691406 240.15625 266.679688 239.515625 263.695312 Z M 239.574219 263.722656 " fill-opacity="1" fill-rule="nonzero"/><path fill="currentColor" d="M 239.472656 224.917969 C 240.132812 226.203125 240.710938 227.527344 241.207031 228.886719 C 241.703125 230.246094 242.113281 231.628906 242.441406 233.035156 C 242.765625 234.445312 243.007812 235.871094 243.160156 237.308594 C 243.308594 238.746094 243.375 240.1875 243.347656 241.636719 C 243.324219 243.082031 243.210938 244.519531 243.007812 245.953125 C 242.808594 247.386719 242.519531 248.800781 242.144531 250.195312 C 241.769531 251.59375 241.308594 252.960938 240.765625 254.304688 C 240.222656 255.644531 239.601562 256.945312 238.898438 258.210938 C 233.128906 268.480469 222.019531 275.984375 209.667969 278.078125 C 204.40625 278.914062 195.816406 278.65625 192.550781 274.800781 C 190.570312 272.144531 189.433594 269.164062 189.144531 265.859375 C 188.511719 260.214844 189.40625 254.820312 189.214844 249.179688 C 189.027344 244.113281 189.144531 239.621094 191.589844 235.515625 C 194.03125 231.414062 198.765625 229.230469 203.382812 227.617188 C 208.664062 225.8125 214.078125 224.585938 219.621094 223.9375 C 225.164062 223.289062 230.710938 223.234375 236.265625 223.773438 Z M 239.472656 224.917969 " fill-opacity="1" fill-rule="nonzero"/><path fill="currentColor" d="M 240.953125 224.082031 C 241.648438 225.433594 242.257812 226.820312 242.785156 228.246094 C 243.308594 229.671875 243.742188 231.125 244.089844 232.605469 C 244.433594 234.085938 244.6875 235.578125 244.851562 237.089844 C 245.011719 238.601562 245.078125 240.117188 245.054688 241.636719 C 245.03125 243.15625 244.910156 244.667969 244.699219 246.171875 C 244.488281 247.675781 244.1875 249.160156 243.792969 250.628906 C 243.398438 252.097656 242.914062 253.535156 242.34375 254.941406 C 241.773438 256.347656 241.117188 257.71875 240.378906 259.042969 C 238.828125 261.765625 236.980469 264.269531 234.84375 266.558594 C 232.703125 268.847656 230.328125 270.855469 227.71875 272.585938 C 222.320312 276.253906 216.402344 278.628906 209.964844 279.710938 C 206.261719 280.296875 202.5625 280.273438 198.867188 279.640625 C 195.796875 279.0625 192.96875 277.839844 191.3125 275.855469 C 190.234375 274.539062 189.398438 273.085938 188.808594 271.492188 C 188.140625 269.730469 187.714844 267.914062 187.527344 266.039062 C 187.226562 262.75 187.183594 259.457031 187.398438 256.164062 C 187.527344 253.847656 187.648438 251.542969 187.585938 249.207031 C 187.421875 246.703125 187.484375 244.203125 187.777344 241.707031 C 188.089844 239.183594 188.902344 236.832031 190.21875 234.652344 C 191.644531 232.390625 193.503906 230.570312 195.796875 229.199219 C 198.058594 227.929688 200.40625 226.859375 202.847656 225.988281 C 208.25 224.171875 213.785156 222.929688 219.449219 222.265625 C 225.105469 221.558594 230.765625 221.496094 236.4375 222.074219 L 236.65625 222.074219 L 240.625 223.484375 Z M 241.660156 241.597656 C 241.75 236.214844 240.617188 231.105469 238.261719 226.269531 L 235.890625 225.433594 C 230.519531 224.917969 225.152344 224.980469 219.796875 225.621094 C 214.375 226.265625 209.078125 227.464844 203.910156 229.21875 C 201.695312 229.96875 199.578125 230.929688 197.554688 232.101562 C 195.714844 233.175781 194.21875 234.609375 193.066406 236.402344 C 192.023438 238.195312 191.359375 240.117188 191.082031 242.175781 C 190.851562 244.488281 190.789062 246.804688 190.894531 249.128906 C 190.980469 251.523438 190.9375 253.917969 190.765625 256.3125 C 190.53125 259.4375 190.550781 262.558594 190.824219 265.679688 C 191.035156 267.261719 191.425781 268.796875 191.984375 270.289062 C 192.40625 271.535156 193.027344 272.667969 193.84375 273.699219 C 194.992188 275.039062 197.050781 275.875 199.421875 276.320312 C 202.75 276.894531 206.082031 276.917969 209.421875 276.390625 C 215.363281 275.398438 220.835938 273.214844 225.832031 269.84375 C 230.660156 266.59375 234.527344 262.445312 237.4375 257.40625 C 238.785156 254.988281 239.816406 252.441406 240.523438 249.765625 C 241.230469 247.089844 241.59375 244.367188 241.617188 241.597656 Z M 241.660156 241.597656 " fill-opacity="1" fill-rule="nonzero"/><path fill="currentColor" d="M 207.863281 62.933594 C 207.863281 62.933594 220.621094 43.230469 226.777344 41.632812 C 232.929688 40.035156 254.148438 48.6875 257.097656 52.285156 C 260.046875 55.878906 254.722656 59.785156 249.53125 59.726562 C 244.339844 59.664062 232.472656 59.726562 224.660156 61.324219 C 216.847656 62.925781 211.515625 64.980469 209.402344 64.730469 C 207.285156 64.484375 207.863281 62.933594 207.863281 62.933594 Z M 207.863281 62.933594 " fill-opacity="1" fill-rule="evenodd"/><path fill="currentColor" d="M 168.824219 62.933594 C 168.824219 62.933594 156.074219 43.230469 149.957031 41.632812 C 143.84375 40.035156 122.574219 48.6875 119.625 52.285156 C 116.675781 55.878906 122 59.785156 127.191406 59.726562 C 132.382812 59.664062 144.25 59.726562 152.074219 61.324219 C 159.898438 62.925781 165.207031 64.980469 167.332031 64.730469 C 169.457031 64.484375 168.863281 62.933594 168.863281 62.933594 Z M 168.824219 62.933594 " fill-opacity="1" fill-rule="evenodd"/><path fill="currentColor" d="M 247.167969 272.902344 C 243.386719 310.109375 234.261719 329.871094 236.464844 334.105469 C 238.667969 338.335938 249.859375 322.242188 256.917969 316.082031 C 263.976562 309.921875 266.082031 275.40625 266.53125 270.597656 C 266.976562 265.789062 266.210938 260.910156 264.542969 260.265625 C 261.207031 258.925781 248.132812 263.921875 247.167969 272.902344 Z M 247.167969 272.902344 " fill-opacity="1" fill-rule="evenodd"/><path fill="currentColor" d="M 264.453125 232.4375 C 264.453125 232.4375 254.199219 234.613281 250.226562 239.75 C 246.253906 244.886719 245.09375 255.726562 245.09375 260.085938 C 245.09375 264.449219 260.671875 257.773438 262.28125 254.761719 C 263.886719 251.75 267.085938 236.988281 266.769531 234.554688 C 266.449219 232.121094 264.453125 232.4375 264.453125 232.4375 Z M 264.453125 232.4375 " fill-opacity="1" fill-rule="evenodd"/><path fill="currentColor" d="M 268.644531 201.121094 C 268.644531 201.121094 255.636719 204.648438 251.019531 210.292969 C 246.402344 215.933594 246.058594 226.902344 246.464844 231.207031 C 246.871094 235.507812 266.46875 226.84375 268.136719 223.636719 C 269.804688 220.425781 272.554688 205.285156 271.851562 202.910156 C 271.144531 200.535156 268.644531 201.121094 268.644531 201.121094 Z M 268.644531 201.121094 " fill-opacity="1" fill-rule="evenodd"/><path fill="currentColor" d="M 129.425781 272.902344 C 133.269531 310.109375 142.441406 329.871094 140.199219 334.105469 C 137.953125 338.335938 126.734375 322.242188 119.746094 316.082031 C 112.757812 309.921875 110.511719 275.40625 110.125 270.597656 C 109.738281 265.789062 110.382812 260.910156 112.109375 260.265625 C 115.445312 258.925781 128.523438 263.921875 129.425781 272.902344 Z M 129.425781 272.902344 " fill-opacity="1" fill-rule="evenodd"/><path fill="currentColor" d="M 112.28125 232.4375 C 112.28125 232.4375 122.535156 234.613281 126.515625 239.75 C 130.5 244.886719 131.640625 255.726562 131.640625 260.085938 C 131.640625 264.449219 116.003906 257.773438 114.464844 254.761719 C 112.925781 251.75 109.660156 236.988281 109.976562 234.554688 C 110.292969 232.121094 112.28125 232.4375 112.28125 232.4375 Z M 112.28125 232.4375 " fill-opacity="1" fill-rule="evenodd"/><path fill="currentColor" d="M 107.988281 201.121094 C 107.988281 201.121094 121.066406 204.648438 125.613281 210.292969 C 130.160156 215.933594 130.675781 226.902344 130.230469 231.207031 C 129.785156 235.507812 110.234375 226.84375 108.496094 223.636719 C 106.757812 220.425781 104.136719 205.285156 104.785156 202.910156 C 104.886719 202.585938 105.042969 202.289062 105.261719 202.023438 C 105.476562 201.757812 105.734375 201.542969 106.03125 201.378906 C 106.328125 201.210938 106.648438 201.105469 106.984375 201.0625 C 107.324219 201.019531 107.660156 201.039062 107.988281 201.121094 Z M 107.988281 201.121094 " fill-opacity="1" fill-rule="evenodd"/><path fill="currentColor" d="M 186.019531 149.726562 C 186.019531 149.726562 187.875 180.078125 184.550781 185.492188 C 181.222656 190.910156 170.371094 187.679688 155.695312 192.546875 C 141.023438 197.417969 139.027344 201.398438 134.726562 200.117188 C 131.75 199.222656 125.117188 194.664062 117.550781 182.484375 C 109.984375 170.304688 115.050781 157.199219 115.050781 157.199219 C 115.050781 157.199219 131.589844 164.519531 150.375 163.101562 C 169.160156 161.679688 178.710938 148.921875 181.53125 147.132812 C 184.351562 145.347656 185.761719 148.21875 185.890625 148.863281 C 185.960938 149.15625 186.003906 149.453125 186.019531 149.757812 Z M 186.019531 149.726562 " fill-opacity="1" fill-rule="evenodd"/><path fill="currentColor" d="M 190.984375 149.726562 C 190.984375 149.726562 189.1875 180.078125 192.460938 185.492188 C 195.738281 190.910156 206.691406 187.679688 221.304688 192.546875 C 235.917969 197.417969 237.976562 201.398438 242.332031 200.117188 C 245.3125 199.222656 251.894531 194.664062 259.519531 182.484375 C 267.144531 170.304688 261.953125 157.199219 261.953125 157.199219 C 261.953125 157.199219 245.480469 164.519531 226.625 163.101562 C 207.773438 161.679688 198.359375 148.921875 195.539062 147.132812 C 192.71875 145.347656 191.242188 148.21875 191.113281 148.863281 C 191.039062 149.15625 190.996094 149.453125 190.984375 149.757812 Z M 190.984375 149.726562 " fill-opacity="1" fill-rule="evenodd"/><path fill="currentColor" d="M 143.953125 199.253906 C 137.796875 202.144531 136.007812 214.007812 136.832031 221.964844 C 136.820312 222.863281 136.980469 223.730469 137.3125 224.5625 C 137.648438 225.398438 138.128906 226.132812 138.757812 226.773438 C 140.148438 227.75 141.6875 228.328125 143.375 228.511719 C 152.867188 230.441406 162.347656 232.296875 171.78125 234.226562 C 175.175781 234.863281 179.089844 235.4375 181.839844 233.582031 C 183.953125 232.167969 186.199219 230.5 186.652344 228.253906 C 188.640625 218.699219 189.027344 206.765625 187.03125 197.265625 C 186.773438 196.246094 186.296875 195.347656 185.59375 194.5625 C 184.890625 193.78125 184.046875 193.210938 183.058594 192.847656 C 180.460938 191.835938 177.765625 191.386719 174.976562 191.496094 C 169.585938 191.644531 164.273438 192.375 159.042969 193.683594 C 153.808594 194.992188 148.78125 196.847656 143.953125 199.253906 Z M 143.953125 199.253906 " fill-opacity="1" fill-rule="nonzero"/><path fill="currentColor" d="M 144.785156 200.535156 C 142.480469 201.628906 140.875 204.320312 139.820312 207.730469 C 138.484375 212.371094 138.03125 217.097656 138.472656 221.90625 C 138.527344 222.671875 138.675781 223.421875 138.917969 224.152344 C 139.09375 224.765625 139.425781 225.277344 139.910156 225.691406 C 140.363281 226.078125 140.875 226.359375 141.449219 226.527344 C 142.15625 226.773438 142.917969 226.902344 143.691406 227.101562 L 172.089844 232.746094 C 173.722656 233.117188 175.378906 233.332031 177.054688 233.390625 C 178.394531 233.441406 179.636719 233.109375 180.777344 232.398438 C 181.761719 231.75 182.679688 231.023438 183.535156 230.210938 C 184.265625 229.601562 184.734375 228.832031 184.945312 227.90625 C 186.007812 222.722656 186.566406 217.484375 186.613281 212.191406 C 186.71875 207.246094 186.289062 202.347656 185.324219 197.496094 C 185.164062 196.75 184.832031 196.085938 184.332031 195.507812 C 183.785156 194.890625 183.121094 194.4375 182.34375 194.15625 C 181.230469 193.683594 180.074219 193.351562 178.878906 193.164062 C 177.609375 192.925781 176.328125 192.84375 175.039062 192.914062 C 169.738281 193.050781 164.523438 193.777344 159.390625 195.089844 C 154.332031 196.347656 149.457031 198.125 144.777344 200.417969 Z M 136.585938 206.953125 C 137.863281 202.851562 139.980469 199.453125 143.117188 197.914062 C 148.03125 195.503906 153.136719 193.621094 158.4375 192.261719 C 163.851562 190.929688 169.34375 190.183594 174.917969 190.023438 C 176.46875 189.96875 178.007812 190.074219 179.535156 190.34375 C 181 190.589844 182.429688 190.972656 183.824219 191.496094 C 185.054688 192.011719 186.121094 192.761719 187.03125 193.738281 C 187.847656 194.675781 188.402344 195.746094 188.699219 196.949219 C 189.683594 202.011719 190.132812 207.121094 190.050781 212.277344 C 189.976562 217.746094 189.398438 223.15625 188.3125 228.511719 C 187.96875 229.957031 187.242188 231.175781 186.136719 232.167969 C 185.15625 233.132812 184.089844 233.988281 182.929688 234.734375 L 182.871094 234.734375 C 181.113281 235.867188 179.1875 236.40625 177.09375 236.34375 C 175.1875 236.304688 173.308594 236.070312 171.453125 235.636719 L 142.988281 229.925781 C 142.070312 229.804688 141.171875 229.585938 140.296875 229.277344 C 139.296875 228.980469 138.398438 228.492188 137.605469 227.808594 C 136.683594 227.066406 136.066406 226.125 135.75 224.984375 C 135.410156 224.050781 135.195312 223.085938 135.105469 222.09375 C 134.617188 216.953125 135.109375 211.90625 136.585938 206.953125 Z M 136.585938 206.953125 " fill-opacity="1" fill-rule="nonzero"/><path fill="currentColor" d="M 233.902344 199.253906 C 239.992188 202.144531 241.789062 214.007812 241.011719 221.964844 C 240.824219 223.703125 240.4375 225.5625 239.027344 226.773438 C 237.636719 227.75 236.097656 228.328125 234.410156 228.511719 C 224.988281 230.441406 215.496094 232.296875 206.015625 234.226562 C 202.609375 234.863281 198.707031 235.4375 195.949219 233.582031 C 193.832031 232.167969 191.648438 230.5 191.140625 228.253906 C 189.15625 218.699219 188.769531 206.765625 190.8125 197.265625 C 191.058594 196.25 191.527344 195.351562 192.21875 194.570312 C 192.910156 193.785156 193.746094 193.210938 194.726562 192.847656 C 197.347656 191.839844 200.0625 191.386719 202.867188 191.496094 C 208.261719 191.648438 213.574219 192.382812 218.804688 193.691406 C 224.039062 194.996094 229.074219 196.851562 233.902344 199.253906 Z M 233.902344 199.253906 " fill-opacity="1" fill-rule="nonzero"/><path fill="currentColor" d="M 234.667969 197.914062 C 237.875 199.453125 239.992188 202.878906 241.269531 206.953125 C 242.691406 211.914062 243.164062 216.960938 242.679688 222.09375 C 242.613281 223.082031 242.421875 224.046875 242.105469 224.984375 C 241.738281 226.09375 241.121094 227.03125 240.25 227.808594 C 239.429688 228.488281 238.511719 228.980469 237.488281 229.277344 C 236.617188 229.59375 235.71875 229.808594 234.796875 229.925781 L 206.390625 235.636719 C 204.535156 236.066406 202.65625 236.300781 200.753906 236.34375 C 198.644531 236.40625 196.703125 235.867188 194.925781 234.734375 C 193.757812 233.972656 192.667969 233.117188 191.648438 232.167969 C 190.570312 231.160156 189.847656 229.941406 189.472656 228.511719 C 188.40625 223.15625 187.851562 217.742188 187.804688 212.277344 C 187.683594 207.121094 188.128906 202.007812 189.144531 196.949219 C 189.417969 195.730469 189.972656 194.660156 190.8125 193.738281 C 191.710938 192.746094 192.78125 192 194.019531 191.496094 C 195.414062 190.957031 196.847656 190.574219 198.320312 190.34375 C 199.847656 190.074219 201.386719 189.96875 202.9375 190.023438 C 208.488281 190.179688 213.957031 190.925781 219.347656 192.261719 C 224.652344 193.609375 229.757812 195.492188 234.667969 197.914062 Z M 238.003906 207.730469 C 236.914062 204.320312 235.3125 201.628906 233.039062 200.535156 L 232.972656 200.476562 C 228.304688 198.191406 223.453125 196.417969 218.414062 195.152344 C 213.285156 193.84375 208.070312 193.121094 202.777344 192.976562 C 201.484375 192.902344 200.199219 192.984375 198.925781 193.222656 C 197.710938 193.40625 196.535156 193.738281 195.402344 194.21875 C 194.644531 194.496094 194.003906 194.949219 193.484375 195.566406 C 192.960938 196.132812 192.628906 196.796875 192.492188 197.554688 C 191.503906 202.402344 191.058594 207.300781 191.152344 212.25 C 191.195312 217.542969 191.746094 222.78125 192.808594 227.964844 C 193.050781 228.878906 193.523438 229.644531 194.230469 230.273438 C 195.101562 231.085938 196.042969 231.816406 197.050781 232.457031 C 198.183594 233.175781 199.421875 233.507812 200.761719 233.449219 C 202.40625 233.386719 204.03125 233.171875 205.636719 232.804688 L 234.101562 227.160156 C 234.808594 226.964844 235.640625 226.835938 236.347656 226.585938 C 236.898438 226.402344 237.410156 226.144531 237.886719 225.8125 L 237.886719 225.75 C 238.351562 225.324219 238.683594 224.8125 238.878906 224.210938 C 239.125 223.480469 239.273438 222.734375 239.324219 221.964844 C 239.824219 217.15625 239.394531 212.429688 238.042969 207.789062 Z M 238.003906 207.730469 " fill-opacity="1" fill-rule="nonzero"/></svg>