<svg xmlns="http://www.w3.org/2000/svg" xmlns:xlink="http://www.w3.org/1999/xlink" width="500" zoomAndPan="magnify" viewBox="0 0 375 374.999991" height="500" preserveAspectRatio="xMidYMid meet" version="1.0"><defs><clipPath id="67ba299f57"><path d="M 60 2.417969 L 315.46875 2.417969 L 315.46875 372.917969 L 60 372.917969 Z M 60 2.417969 " clip-rule="nonzero"/></clipPath></defs><g clip-path="url(#ffffff9f57)"><path fill="#334155" d="M 280.171875 2.417969 L 95.476562 2.417969 C 93.847656 2.417969 92.289062 3.070312 91.144531 4.234375 C 90.003906 5.394531 89.375 6.964844 89.402344 8.59375 L 90.488281 73.648438 C 88.351562 77.683594 82.367188 89.617188 76.261719 107.472656 C 69.410156 127.523438 61.113281 159.179688 60.527344 196.125 C 59.75 245.210938 69.570312 302.339844 75.441406 336.46875 C 77.945312 351.03125 79.921875 362.535156 79.921875 366.601562 C 79.921875 369.949219 82.628906 372.664062 85.972656 372.675781 L 153.964844 372.921875 C 153.972656 372.921875 153.980469 372.921875 153.988281 372.921875 C 156.148438 372.921875 158.144531 371.773438 159.234375 369.90625 C 170.167969 351.140625 178.832031 322.917969 184.984375 286.019531 C 186.003906 279.898438 186.953125 273.527344 187.820312 266.972656 C 188.6875 273.527344 189.636719 279.898438 190.65625 286.019531 C 196.808594 322.917969 205.472656 351.140625 216.410156 369.90625 C 217.496094 371.773438 219.496094 372.921875 221.65625 372.921875 C 221.664062 372.921875 221.671875 372.921875 221.679688 372.921875 L 289.667969 372.675781 C 293.015625 372.664062 295.722656 369.949219 295.722656 366.601562 C 295.722656 362.535156 297.699219 351.03125 300.203125 336.46875 C 303.117188 319.511719 307.113281 296.289062 310.183594 271.753906 C 313.84375 242.523438 315.457031 217.785156 315.113281 196.125 C 314.527344 159.179688 306.234375 127.523438 299.378906 107.472656 C 293.273438 89.617188 287.289062 77.683594 285.152344 73.648438 L 286.234375 8.75 C 286.238281 8.664062 286.242188 8.578125 286.242188 8.492188 C 286.242188 5.136719 283.527344 2.417969 280.171875 2.417969 Z M 280.171875 2.417969 " fill-opacity="1" fill-rule="nonzero"/></g><path fill="#ffffff" d="M 112.148438 44.503906 C 127.691406 44.113281 162.878906 47.1875 183.738281 79.980469 L 183.738281 146.527344 C 183.738281 146.527344 165.015625 183.453125 129.175781 168.4375 C 99.136719 155.851562 102.023438 77.6875 103.746094 52.730469 C 104.0625 48.160156 107.703125 44.613281 112.148438 44.503906 Z M 112.148438 44.503906 " fill-opacity="1" fill-rule="nonzero"/><path fill="#ffffff" d="M 156.863281 179.210938 C 161.945312 177.171875 168.421875 174.355469 173.386719 171.460938 C 175.648438 170.144531 178.429688 171.980469 178.097656 174.574219 L 169.210938 272.863281 C 168.941406 275.828125 164.628906 275.871094 164.304688 272.914062 C 161.550781 247.820312 156.832031 210.515625 151.273438 190.472656 C 149.988281 185.84375 152.410156 181 156.863281 179.210938 Z M 156.863281 179.210938 " fill-opacity="1" fill-rule="nonzero"/><path fill="#ffffff" d="M 142.027344 186.21875 L 161.226562 291.691406 C 162.917969 300.988281 161.925781 310.578125 158.363281 319.332031 L 142.007812 359.539062 C 140.222656 363.925781 133.792969 363.175781 133.074219 358.496094 C 128 325.585938 118.308594 249.089844 126.289062 186.609375 C 126.929688 181.59375 132.050781 178.457031 136.820312 180.128906 C 139.523438 181.074219 141.511719 183.398438 142.027344 186.21875 Z M 142.027344 186.21875 " fill-opacity="1" fill-rule="nonzero"/><path fill="#ffffff" d="M 119.832031 175.113281 C 120.792969 176.277344 121.253906 177.769531 121.105469 179.269531 C 119.820312 192.550781 113.578125 259.082031 114.1875 292.421875 C 114.613281 315.835938 106.179688 339.253906 99.890625 353.363281 C 97.9375 357.75 91.484375 356.941406 90.667969 352.210938 C 86.957031 330.769531 80.617188 291.472656 81.097656 275.875 C 81.636719 258.359375 101.953125 199.78125 110.140625 176.820312 C 111.617188 172.683594 117.03125 171.730469 119.832031 175.113281 Z M 119.832031 175.113281 " fill-opacity="1" fill-rule="nonzero"/><path fill="#ffffff" d="M 90.046875 118.097656 C 90.917969 116.074219 93.824219 116.199219 94.5 118.292969 C 98.484375 130.621094 107.304688 158.921875 106.773438 166.390625 C 106.21875 174.203125 87.175781 221.289062 79.761719 245.011719 C 79.027344 247.363281 75.597656 247.011719 75.359375 244.558594 C 72.984375 219.976562 70.4375 163.589844 90.046875 118.097656 Z M 90.046875 118.097656 " fill-opacity="1" fill-rule="nonzero"/><path fill="#ffffff" d="M 262.066406 44.503906 C 246.519531 44.113281 211.332031 47.1875 190.476562 79.980469 L 190.476562 146.527344 C 190.476562 146.527344 209.195312 183.453125 245.035156 168.4375 C 275.078125 155.851562 272.1875 77.6875 270.464844 52.730469 C 270.152344 48.160156 266.511719 44.613281 262.066406 44.503906 Z M 262.066406 44.503906 " fill-opacity="1" fill-rule="nonzero"/><path fill="#ffffff" d="M 217.347656 179.210938 C 212.265625 177.171875 205.789062 174.355469 200.824219 171.460938 C 198.566406 170.144531 195.78125 171.980469 196.113281 174.574219 L 205.003906 272.863281 C 205.269531 275.828125 209.585938 275.871094 209.910156 272.914062 C 212.660156 247.820312 217.378906 210.515625 222.941406 190.472656 C 224.222656 185.84375 221.804688 181 217.347656 179.210938 Z M 217.347656 179.210938 " fill-opacity="1" fill-rule="nonzero"/><path fill="#ffffff" d="M 232.1875 186.21875 L 212.988281 291.691406 C 211.292969 300.988281 212.285156 310.578125 215.847656 319.332031 L 232.203125 359.539062 C 233.988281 363.925781 240.417969 363.175781 241.140625 358.496094 C 246.210938 325.585938 255.90625 249.089844 247.921875 186.609375 C 247.28125 181.59375 242.160156 178.457031 237.390625 180.128906 C 234.6875 181.074219 232.699219 183.398438 232.1875 186.21875 Z M 232.1875 186.21875 " fill-opacity="1" fill-rule="nonzero"/><path fill="#ffffff" d="M 254.378906 175.113281 C 253.417969 176.277344 252.960938 177.769531 253.105469 179.269531 C 254.390625 192.550781 260.632812 259.082031 260.027344 292.421875 C 259.601562 315.835938 268.03125 339.253906 274.320312 353.363281 C 276.273438 357.75 282.726562 356.941406 283.542969 352.210938 C 287.253906 330.769531 293.59375 291.472656 293.113281 275.875 C 292.574219 258.359375 272.257812 199.78125 264.070312 176.820312 C 262.597656 172.683594 257.179688 171.730469 254.378906 175.113281 Z M 254.378906 175.113281 " fill-opacity="1" fill-rule="nonzero"/><path fill="#ffffff" d="M 284.167969 118.097656 C 283.292969 116.074219 280.386719 116.199219 279.710938 118.292969 C 275.726562 130.621094 266.90625 158.921875 267.4375 166.390625 C 267.992188 174.203125 287.035156 221.289062 294.449219 245.011719 C 295.183594 247.363281 298.617188 247.011719 298.851562 244.558594 C 301.226562 219.976562 303.773438 163.589844 284.167969 118.097656 Z M 284.167969 118.097656 " fill-opacity="1" fill-rule="nonzero"/><path fill="#ffffff" d="M 124.472656 29.703125 C 124.753906 34.640625 128.726562 38.496094 133.527344 38.496094 C 144.472656 38.496094 155.070312 42.433594 163.503906 49.628906 L 177.433594 61.519531 C 179.941406 63.660156 183.738281 61.820312 183.738281 58.460938 L 183.738281 17.414062 L 123.765625 17.414062 Z M 124.472656 29.703125 " fill-opacity="1" fill-rule="nonzero"/><path fill="#ffffff" d="M 100.503906 23.546875 L 101.957031 33.816406 C 102.355469 36.644531 104.890625 38.671875 107.734375 38.441406 L 116.160156 37.753906 C 118.820312 37.535156 121.351562 35.402344 121.105469 32.742188 C 120.632812 27.628906 120.054688 22.476562 119.410156 17.414062 L 99.910156 17.414062 C 100.027344 19.464844 100.214844 21.507812 100.503906 23.546875 Z M 100.503906 23.546875 " fill-opacity="1" fill-rule="nonzero"/><path fill="#ffffff" d="M 190.476562 58.464844 C 190.476562 61.820312 194.269531 63.660156 196.78125 61.519531 L 210.710938 49.628906 C 219.140625 42.433594 229.742188 38.496094 240.683594 38.496094 C 245.488281 38.496094 249.457031 34.640625 249.742188 29.703125 L 250.445312 17.417969 L 190.476562 17.417969 Z M 190.476562 58.464844 " fill-opacity="1" fill-rule="nonzero"/><path fill="#ffffff" d="M 253.105469 32.742188 C 252.859375 35.402344 255.390625 37.539062 258.050781 37.753906 L 266.476562 38.441406 C 269.324219 38.671875 271.855469 36.648438 272.257812 33.820312 L 273.710938 23.546875 C 273.996094 21.507812 274.1875 19.464844 274.304688 17.417969 L 254.800781 17.417969 C 254.15625 22.476562 253.578125 27.628906 253.105469 32.742188 Z M 253.105469 32.742188 " fill-opacity="1" fill-rule="nonzero"/></svg>