<svg xmlns="http://www.w3.org/2000/svg" xmlns:xlink="http://www.w3.org/1999/xlink" width="500" zoomAndPan="magnify" viewBox="0 0 375 374.999991" height="500" preserveAspectRatio="xMidYMid meet" version="1.0"><defs><clipPath id="20e56780b0"><path d="M 60 2.046875 L 314.925781 2.046875 L 314.925781 373.296875 L 60 373.296875 Z M 60 2.046875 " clip-rule="nonzero"/></clipPath></defs><g clip-path="url(#20e56780b0)"><path fill="#484f69" d="M 279.589844 2.070312 L 95.632812 2.070312 C 94.011719 2.070312 92.460938 2.71875 91.324219 3.875 C 90.1875 5.03125 89.558594 6.59375 89.582031 8.214844 L 90.667969 82.449219 C 88.542969 86.46875 82.578125 98.371094 76.496094 116.1875 C 69.667969 136.183594 61.40625 167.757812 60.824219 204.601562 C 60.046875 253.554688 69.828125 306.84375 75.671875 338.683594 C 78.167969 352.28125 80.140625 363.019531 80.140625 367.050781 C 80.140625 370.386719 82.835938 373.097656 86.167969 373.109375 L 153.886719 373.351562 C 153.894531 373.351562 153.902344 373.351562 153.910156 373.351562 C 156.0625 373.351562 158.050781 372.207031 159.136719 370.34375 C 170.050781 351.59375 178.675781 324.347656 184.777344 289.367188 C 185.839844 283.285156 186.777344 277.234375 187.609375 271.265625 C 188.441406 277.234375 189.382812 283.285156 190.441406 289.367188 C 196.542969 324.347656 205.171875 351.59375 216.085938 370.34375 C 217.167969 372.207031 219.160156 373.351562 221.308594 373.351562 C 221.316406 373.351562 221.324219 373.351562 221.332031 373.351562 L 289.050781 373.109375 C 292.386719 373.097656 295.082031 370.386719 295.082031 367.050781 C 295.082031 363.019531 297.050781 352.28125 299.546875 338.683594 C 302.453125 322.859375 306.429688 301.1875 309.488281 277.910156 C 313.132812 250.179688 314.738281 226.199219 314.398438 204.601562 C 313.8125 167.757812 305.550781 136.183594 298.722656 116.1875 C 292.640625 98.371094 286.679688 86.46875 284.554688 82.449219 L 285.632812 8.371094 C 285.636719 8.289062 285.640625 8.210938 285.640625 8.128906 C 285.636719 4.78125 282.929688 2.070312 279.589844 2.070312 Z M 279.589844 2.070312 " fill-opacity="1" fill-rule="nonzero"/></g><path fill="#9fabce" d="M 179.210938 8.128906 L 161.371094 8.128906 C 156.40625 8.128906 152.382812 12.15625 152.382812 17.125 L 152.382812 33.074219 C 152.382812 57.484375 158.242188 81.539062 169.464844 103.207031 L 175.804688 115.453125 C 177.65625 119.023438 183.050781 117.707031 183.050781 113.679688 L 183.050781 11.972656 C 183.050781 9.847656 181.332031 8.128906 179.210938 8.128906 Z M 179.210938 8.128906 " fill-opacity="1" fill-rule="nonzero"/><path fill="#9fabce" d="M 119.792969 12.054688 L 121.164062 13.519531 C 134.621094 27.917969 142.375 46.738281 142.980469 66.449219 L 143.214844 74.140625 C 143.316406 77.484375 139.160156 79.097656 136.984375 76.558594 L 113.382812 49.039062 C 107.371094 42.03125 104.402344 32.910156 105.136719 23.699219 L 105.671875 17 C 106.234375 9.90625 114.941406 6.859375 119.792969 12.054688 Z M 119.792969 12.054688 " fill-opacity="1" fill-rule="nonzero"/><path fill="#9fabce" d="M 148.859375 116.910156 L 171.816406 149.585938 C 175.0625 154.207031 176.613281 159.808594 176.210938 165.441406 L 170.433594 246.488281 C 170.34375 247.726562 168.609375 247.929688 168.242188 246.742188 L 151.074219 191.367188 L 144.148438 118.652344 C 143.894531 115.996094 147.324219 114.726562 148.859375 116.910156 Z M 148.859375 116.910156 " fill-opacity="1" fill-rule="nonzero"/><path fill="#ff8564" d="M 79.417969 166.78125 C 80.050781 164.515625 83.398438 165.101562 83.214844 167.441406 C 81.46875 189.777344 79.804688 233.632812 90.03125 263.414062 C 95.546875 279.480469 99.332031 288.757812 101.894531 294.09375 C 104.984375 300.527344 106.152344 307.714844 105.292969 314.800781 L 104.296875 323.003906 C 103.640625 328.425781 96.664062 330.136719 93.539062 325.65625 C 85.023438 313.441406 73.527344 288.925781 72.519531 244.886719 C 71.589844 204.226562 75.734375 180.007812 79.417969 166.78125 Z M 79.417969 166.78125 " fill-opacity="1" fill-rule="nonzero"/><path fill="#ff8564" d="M 151.804688 218.449219 L 154.726562 227.402344 C 162.859375 252.324219 165.699219 278.671875 163.058594 304.757812 L 160.429688 330.769531 C 159.101562 343.890625 145.976562 352.398438 133.484375 348.238281 C 123.863281 345.035156 118.007812 335.289062 119.691406 325.273438 L 120.601562 319.863281 C 122.289062 309.828125 126.265625 300.273438 132.480469 292.226562 C 139.195312 283.53125 147.652344 263.726562 148.546875 218.929688 C 148.585938 217.050781 151.222656 216.660156 151.804688 218.449219 Z M 151.804688 218.449219 " fill-opacity="1" fill-rule="nonzero"/><path fill="#9fabce" d="M 196.007812 8.128906 L 213.847656 8.128906 C 218.8125 8.128906 222.835938 12.15625 222.835938 17.125 L 222.835938 33.074219 C 222.835938 57.484375 216.976562 81.539062 205.753906 103.207031 L 199.414062 115.453125 C 197.5625 119.023438 192.167969 117.707031 192.167969 113.679688 L 192.167969 11.972656 C 192.167969 9.847656 193.886719 8.128906 196.007812 8.128906 Z M 196.007812 8.128906 " fill-opacity="1" fill-rule="nonzero"/><path fill="#9fabce" d="M 255.421875 12.054688 L 254.050781 13.519531 C 240.597656 27.917969 232.84375 46.738281 232.238281 66.449219 L 232.003906 74.140625 C 231.902344 77.484375 236.054688 79.097656 238.234375 76.558594 L 261.835938 49.039062 C 267.847656 42.03125 270.8125 32.910156 270.082031 23.699219 L 269.546875 17 C 268.984375 9.90625 260.277344 6.859375 255.421875 12.054688 Z M 255.421875 12.054688 " fill-opacity="1" fill-rule="nonzero"/><path fill="#9fabce" d="M 226.359375 116.910156 L 203.402344 149.585938 C 200.15625 154.207031 198.605469 159.808594 199.007812 165.441406 L 204.785156 246.488281 C 204.875 247.726562 206.609375 247.929688 206.976562 246.742188 L 224.140625 191.367188 L 231.070312 118.652344 C 231.324219 115.996094 227.894531 114.726562 226.359375 116.910156 Z M 226.359375 116.910156 " fill-opacity="1" fill-rule="nonzero"/><path fill="#ff8564" d="M 300.117188 168.023438 C 299.582031 165.738281 296.207031 166.179688 296.292969 168.53125 C 297.117188 190.914062 296.96875 234.804688 285.523438 264.136719 C 279.347656 279.960938 275.183594 289.074219 272.402344 294.296875 C 269.046875 300.597656 267.585938 307.730469 268.152344 314.847656 L 268.804688 323.082031 C 269.238281 328.53125 276.140625 330.527344 279.445312 326.179688 C 288.457031 314.328125 300.957031 290.3125 303.785156 246.351562 C 306.390625 205.761719 303.25 181.394531 300.117188 168.023438 Z M 300.117188 168.023438 " fill-opacity="1" fill-rule="nonzero"/><path fill="#ff8564" d="M 223.410156 218.449219 L 220.492188 227.402344 C 212.359375 252.324219 209.519531 278.671875 212.15625 304.757812 L 214.789062 330.769531 C 216.117188 343.890625 229.242188 352.398438 241.734375 348.238281 C 251.355469 345.035156 257.210938 335.289062 255.527344 325.273438 L 254.617188 319.863281 C 252.929688 309.828125 248.953125 300.273438 242.738281 292.226562 C 236.023438 283.53125 227.566406 263.726562 226.671875 218.929688 C 226.632812 217.050781 223.996094 216.660156 223.410156 218.449219 Z M 223.410156 218.449219 " fill-opacity="1" fill-rule="nonzero"/><path fill="#9fabce" d="M 107.757812 48.246094 L 117.519531 62.488281 C 119.585938 65.507812 119.925781 69.382812 118.410156 72.714844 C 111.386719 88.128906 91.207031 133.101562 83.578125 157.378906 C 82.953125 159.363281 80.046875 159.058594 79.867188 156.984375 C 79.324219 150.648438 80.007812 140.175781 85.773438 125.003906 C 93.332031 105.113281 100.035156 87.515625 103.160156 79.3125 C 104.394531 76.074219 105.027344 72.640625 105.027344 69.171875 L 105.027344 49.097656 C 105.027344 47.625 106.925781 47.035156 107.757812 48.246094 Z M 107.757812 48.246094 " fill-opacity="1" fill-rule="nonzero"/><path fill="#9fabce" d="M 269.539062 48.246094 L 259.78125 62.488281 C 257.710938 65.507812 257.371094 69.382812 258.890625 72.714844 C 265.914062 88.128906 286.09375 133.101562 293.722656 157.378906 C 294.34375 159.363281 297.253906 159.058594 297.429688 156.984375 C 297.972656 150.648438 297.289062 140.175781 291.523438 125.003906 C 283.96875 105.113281 277.265625 87.515625 274.136719 79.3125 C 272.902344 76.074219 272.273438 72.640625 272.273438 69.171875 L 272.273438 49.097656 C 272.269531 47.625 270.371094 47.035156 269.539062 48.246094 Z M 269.539062 48.246094 " fill-opacity="1" fill-rule="nonzero"/><path fill="#ff004f" d="M 245.160156 277.316406 L 244.394531 274.847656 C 231.710938 233.8125 230.074219 189.796875 239.671875 147.816406 L 250.390625 100.925781 C 251.773438 94.871094 259.589844 94.238281 261.816406 99.996094 C 270.585938 122.671875 284.460938 161.953125 285.8125 186.6875 C 288.894531 243.105469 279.027344 244.8125 271.851562 276.191406 C 268.539062 290.679688 249.535156 291.476562 245.160156 277.316406 Z M 245.160156 277.316406 " fill-opacity="1" fill-rule="nonzero"/><path fill="#ff004f" d="M 130.886719 277.316406 L 131.648438 274.847656 C 144.332031 233.8125 145.96875 189.796875 136.371094 147.816406 L 125.652344 100.925781 C 124.269531 94.871094 116.457031 94.238281 114.226562 99.996094 C 105.457031 122.671875 91.582031 161.953125 90.230469 186.6875 C 87.148438 243.105469 97.015625 244.8125 104.191406 276.191406 C 107.507812 290.679688 126.507812 291.476562 130.886719 277.316406 Z M 130.886719 277.316406 " fill-opacity="1" fill-rule="nonzero"/></svg>