<svg xmlns="http://www.w3.org/2000/svg" xmlns:xlink="http://www.w3.org/1999/xlink" width="500" zoomAndPan="magnify" viewBox="0 0 375 374.999991" height="500" preserveAspectRatio="xMidYMid meet" version="1.0"><defs><clipPath id="1371708206"><path d="M 2.484375 19.75 L 372.234375 19.75 L 372.234375 355 L 2.484375 355 Z M 2.484375 19.75 " clip-rule="nonzero"/></clipPath></defs><g clip-path="url(#4755698206)"><path fill="#475569" d="M 221.984375 19.722656 C 221.148438 19.722656 220.308594 19.894531 219.519531 20.242188 L 204.238281 26.960938 C 198.765625 29.371094 192.960938 30.589844 186.984375 30.589844 C 180.714844 30.589844 174.652344 29.253906 168.964844 26.617188 L 155.3125 20.289062 C 154.492188 19.910156 153.613281 19.722656 152.738281 19.722656 C 151.589844 19.722656 150.445312 20.046875 149.445312 20.683594 C 147.683594 21.808594 146.617188 23.753906 146.617188 25.839844 L 146.617188 43.09375 L 85.597656 72.839844 C 80.800781 74.429688 44.144531 87.480469 33.398438 117.929688 C 23.941406 144.71875 28.960938 172.96875 31.441406 183.515625 C 23.09375 190.25 3.921875 209.8125 2.550781 248.207031 C 2.507812 249.398438 2.816406 250.574219 3.433594 251.59375 L 45.785156 321.53125 C 46.894531 323.363281 48.882812 324.480469 51.019531 324.480469 C 51.074219 324.480469 51.132812 324.480469 51.191406 324.476562 C 53.390625 324.414062 55.390625 323.175781 56.421875 321.230469 C 69.164062 297.246094 69.328125 276.203125 68.910156 268.933594 L 80.53125 253.921875 C 82.28125 256.835938 84.605469 260.238281 87.628906 263.871094 C 93.933594 271.441406 96.617188 281.492188 94.988281 291.441406 L 88.292969 332.367188 C 87.761719 335.605469 89.878906 338.683594 93.09375 339.347656 L 151.621094 351.417969 C 163.164062 353.800781 174.996094 355.007812 186.785156 355.007812 C 198.351562 355.007812 209.964844 353.84375 221.300781 351.550781 L 281.605469 339.351562 C 284.828125 338.699219 286.960938 335.613281 286.429688 332.367188 L 279.734375 291.441406 C 278.105469 281.492188 280.785156 271.441406 287.089844 263.871094 C 290.117188 260.238281 292.441406 256.835938 294.191406 253.921875 L 305.808594 268.933594 C 305.367188 276.601562 305.570312 299.589844 320.503906 325.1875 C 321.601562 327.070312 323.613281 328.222656 325.789062 328.222656 C 325.816406 328.222656 325.84375 328.222656 325.875 328.222656 C 328.082031 328.191406 330.101562 326.972656 331.160156 325.039062 L 371.425781 251.359375 C 371.953125 250.394531 372.210938 249.304688 372.171875 248.207031 C 370.800781 209.8125 351.628906 190.25 343.28125 183.515625 C 345.761719 172.96875 350.78125 144.71875 341.324219 117.929688 C 330.578125 87.480469 293.921875 74.429688 289.125 72.839844 L 228.101562 43.09375 L 228.101562 25.839844 C 228.101562 23.773438 227.058594 21.847656 225.328125 20.714844 C 224.316406 20.058594 223.152344 19.722656 221.984375 19.722656 Z M 221.984375 19.722656 " fill-opacity="1" fill-rule="nonzero"/></g><path fill="#94a3b8" d="M 182.5625 182.363281 L 182.5625 209.988281 C 182.5625 212.085938 181.027344 213.914062 178.839844 214.421875 L 162.863281 218.117188 C 154.625 220.023438 141.492188 226.207031 141.492188 226.207031 C 136.921875 230.921875 113.871094 193.09375 131.949219 193.09375 L 177.660156 177.796875 C 180.367188 177.796875 182.5625 179.839844 182.5625 182.363281 Z M 182.5625 182.363281 " fill-opacity="1" fill-rule="nonzero"/><path fill="#94a3b8" d="M 191.785156 182.363281 L 191.785156 209.988281 C 191.785156 212.085938 193.320312 213.914062 195.503906 214.421875 L 211.480469 218.117188 C 219.722656 220.023438 232.855469 226.207031 232.855469 226.207031 C 237.421875 230.921875 261.339844 193.09375 242.394531 193.09375 L 196.683594 177.796875 C 193.980469 177.796875 191.785156 179.839844 191.785156 182.363281 Z M 191.785156 182.363281 " fill-opacity="1" fill-rule="nonzero"/><path fill="#94a3b8" d="M 160.605469 37.277344 L 170.183594 49.761719 C 172.019531 52.152344 173.4375 54.839844 174.371094 57.707031 L 186.253906 94.136719 C 186.390625 94.554688 186.460938 94.988281 186.460938 95.425781 C 186.460938 99.480469 181.25 101.132812 178.910156 97.820312 C 169.4375 84.421875 154.757812 59.644531 157.574219 38.070312 C 157.769531 36.578125 159.6875 36.085938 160.605469 37.277344 Z M 160.605469 37.277344 " fill-opacity="1" fill-rule="nonzero"/><path fill="#94a3b8" d="M 103.824219 74.890625 L 142.722656 55.746094 C 146.84375 53.714844 151.78125 56.023438 152.871094 60.484375 C 154.300781 66.351562 156.816406 74.429688 161.0625 82.558594 C 163.230469 86.710938 159.699219 91.546875 155.085938 90.707031 L 104.753906 81.554688 C 101.394531 80.945312 100.757812 76.398438 103.824219 74.890625 Z M 103.824219 74.890625 " fill-opacity="1" fill-rule="nonzero"/><path fill="#ffffff" d="M 121.78125 93.875 C 121.78125 93.875 93.296875 79.632812 73.269531 88.535156 C 53.242188 97.4375 29.65625 112.566406 41.671875 181.550781 C 41.671875 181.550781 73.269531 157.960938 77.71875 140.605469 C 82.171875 123.25 101.308594 95.210938 121.78125 93.875 Z M 121.78125 93.875 " fill-opacity="1" fill-rule="nonzero"/><path fill="#94a3b8" d="M 177 110.816406 C 180.566406 112.925781 182.75 116.757812 182.75 120.902344 L 182.75 156.640625 C 182.75 163.296875 178.125 168.875 171.910156 170.332031 C 168.320312 171.171875 164.734375 172.027344 161.238281 173.203125 L 123.109375 186 C 115.757812 186 108.820312 182.566406 104.398438 176.691406 C 99.691406 170.441406 91.566406 163.011719 78.792969 161.097656 C 76.109375 160.699219 74.796875 157.628906 76.402344 155.441406 C 80.730469 149.542969 87.265625 139.648438 89.292969 131.261719 C 92.40625 118.351562 116.886719 96.101562 133.796875 94.765625 C 146.273438 93.78125 166.996094 104.914062 177 110.816406 Z M 177 110.816406 " fill-opacity="1" fill-rule="nonzero"/><path fill="#94a3b8" d="M 75.703125 177.304688 L 75.703125 199.351562 C 75.703125 199.351562 65.6875 253.308594 38.710938 273.78125 C 34.785156 276.757812 29.109375 274.316406 28.539062 269.425781 L 25.40625 242.550781 C 24.691406 236.398438 25.511719 230.160156 27.792969 224.402344 L 43.007812 186 C 43.007812 186 59.917969 174.875 67.039062 168.644531 C 71.824219 168.644531 75.703125 172.523438 75.703125 177.304688 Z M 75.703125 177.304688 " fill-opacity="1" fill-rule="nonzero"/><path fill="#94a3b8" d="M 28.59375 203.054688 C 29.832031 202.070312 31.527344 203.53125 30.757812 204.914062 C 27.199219 211.3125 21.808594 222.421875 20.949219 232.332031 C 20.105469 242.097656 20.359375 255.902344 20.640625 264.347656 C 20.699219 266.140625 18.289062 266.777344 17.460938 265.183594 L 13.324219 257.269531 C 11.5625 253.894531 10.699219 250.125 10.859375 246.320312 C 11.289062 235.824219 14.039062 214.582031 28.59375 203.054688 Z M 28.59375 203.054688 " fill-opacity="1" fill-rule="nonzero"/><path fill="#94a3b8" d="M 77.375 219.066406 L 77.375 225.785156 C 77.375 228.683594 76.863281 231.554688 75.847656 234.265625 C 73.667969 240.074219 69.066406 250.171875 61.515625 256.921875 C 60.714844 257.636719 59.503906 256.722656 59.976562 255.757812 C 63.535156 248.480469 71.175781 232.242188 75.328125 218.753906 C 75.679688 217.605469 77.375 217.867188 77.375 219.066406 Z M 77.375 219.066406 " fill-opacity="1" fill-rule="nonzero"/><path fill="#94a3b8" d="M 182.75 226.042969 L 182.75 255.574219 C 182.75 257.804688 180.941406 259.613281 178.710938 259.613281 L 152.238281 259.613281 C 149.632812 259.613281 147.222656 258.222656 145.921875 255.96875 L 142.839844 250.640625 C 139.957031 245.65625 141.144531 239.316406 145.632812 235.707031 C 152.527344 230.167969 163.910156 223.164062 178.351562 222.019531 C 180.714844 221.832031 182.75 223.671875 182.75 226.042969 Z M 182.75 226.042969 " fill-opacity="1" fill-rule="nonzero"/><path fill="#94a3b8" d="M 177.867188 318.359375 L 159.050781 318.359375 C 154.277344 318.359375 150.410156 314.492188 150.410156 309.71875 L 150.410156 275.398438 C 150.410156 270.625 154.277344 266.757812 159.050781 266.757812 L 177.867188 266.757812 C 180.5625 266.757812 182.75 268.945312 182.75 271.640625 L 182.75 313.476562 C 182.75 316.175781 180.5625 318.359375 177.867188 318.359375 Z M 177.867188 318.359375 " fill-opacity="1" fill-rule="nonzero"/><path fill="#94a3b8" d="M 112.070312 243.894531 L 124.242188 257.71875 C 129.371094 263.542969 132.199219 271.039062 132.199219 278.800781 L 132.199219 295.675781 C 132.199219 297.003906 130.644531 297.71875 129.636719 296.851562 L 119.011719 287.699219 C 112.878906 282.421875 109.355469 274.730469 109.355469 266.640625 L 109.355469 244.917969 C 109.355469 243.488281 111.125 242.820312 112.070312 243.894531 Z M 112.070312 243.894531 " fill-opacity="1" fill-rule="nonzero"/><path fill="#94a3b8" d="M 114.050781 291.667969 L 126.109375 302.839844 C 129.992188 306.4375 132.203125 311.492188 132.203125 316.785156 L 132.203125 329.417969 C 132.203125 331.953125 129.105469 333.179688 127.367188 331.335938 L 114.957031 318.148438 C 111.359375 314.324219 109.355469 309.273438 109.355469 304.023438 L 109.355469 293.71875 C 109.355469 291.277344 112.261719 290.007812 114.050781 291.667969 Z M 114.050781 291.667969 " fill-opacity="1" fill-rule="nonzero"/><path fill="#94a3b8" d="M 214.117188 37.277344 L 204.539062 49.761719 C 202.703125 52.152344 201.285156 54.839844 200.351562 57.707031 L 188.46875 94.136719 C 188.332031 94.554688 188.261719 94.988281 188.261719 95.425781 C 188.261719 99.480469 193.472656 101.132812 195.8125 97.820312 C 205.28125 84.421875 219.964844 59.644531 217.148438 38.070312 C 216.953125 36.578125 215.035156 36.085938 214.117188 37.277344 Z M 214.117188 37.277344 " fill-opacity="1" fill-rule="nonzero"/><path fill="#94a3b8" d="M 270.898438 74.890625 L 232 55.746094 C 227.878906 53.714844 222.941406 56.023438 221.851562 60.484375 C 220.421875 66.351562 217.90625 74.429688 213.660156 82.558594 C 211.492188 86.710938 215.023438 91.546875 219.636719 90.707031 L 269.96875 81.554688 C 273.328125 80.945312 273.964844 76.398438 270.898438 74.890625 Z M 270.898438 74.890625 " fill-opacity="1" fill-rule="nonzero"/><path fill="#ffffff" d="M 252.941406 93.875 C 252.941406 93.875 281.425781 79.632812 301.453125 88.535156 C 321.480469 97.4375 345.066406 112.566406 333.050781 181.550781 C 333.050781 181.550781 301.453125 157.960938 297 140.605469 C 292.550781 123.25 273.414062 95.210938 252.941406 93.875 Z M 252.941406 93.875 " fill-opacity="1" fill-rule="nonzero"/><path fill="#94a3b8" d="M 197.722656 110.816406 C 194.15625 112.925781 191.972656 116.757812 191.972656 120.902344 L 191.972656 156.640625 C 191.972656 163.296875 196.597656 168.875 202.8125 170.332031 C 206.402344 171.171875 209.988281 172.027344 213.484375 173.203125 L 251.613281 186 C 258.964844 186 265.902344 182.566406 270.324219 176.691406 C 275.03125 170.441406 283.15625 163.011719 295.929688 161.097656 C 298.613281 160.699219 299.925781 157.628906 298.320312 155.441406 C 293.992188 149.542969 287.457031 139.648438 285.429688 131.261719 C 282.316406 118.351562 257.835938 96.101562 240.925781 94.765625 C 228.445312 93.78125 207.726562 104.914062 197.722656 110.816406 Z M 197.722656 110.816406 " fill-opacity="1" fill-rule="nonzero"/><path fill="#94a3b8" d="M 299.019531 177.304688 L 299.019531 199.351562 C 299.019531 199.351562 309.035156 253.308594 336.011719 273.78125 C 339.9375 276.757812 345.613281 274.316406 346.183594 269.425781 L 349.316406 242.550781 C 350.03125 236.398438 349.210938 230.160156 346.929688 224.402344 L 331.714844 186 C 331.714844 186 314.804688 174.875 307.683594 168.644531 C 302.898438 168.644531 299.019531 172.523438 299.019531 177.304688 Z M 299.019531 177.304688 " fill-opacity="1" fill-rule="nonzero"/><path fill="#94a3b8" d="M 346.128906 203.054688 C 344.886719 202.070312 343.195312 203.53125 343.964844 204.914062 C 347.523438 211.3125 352.914062 222.421875 353.773438 232.332031 C 354.617188 242.097656 354.363281 255.902344 354.082031 264.347656 C 354.023438 266.140625 356.433594 266.777344 357.261719 265.183594 L 361.398438 257.269531 C 363.160156 253.894531 364.023438 250.125 363.863281 246.320312 C 363.433594 235.824219 360.683594 214.582031 346.128906 203.054688 Z M 346.128906 203.054688 " fill-opacity="1" fill-rule="nonzero"/><path fill="#94a3b8" d="M 297.347656 219.066406 L 297.347656 225.785156 C 297.347656 228.683594 297.859375 231.554688 298.875 234.265625 C 301.054688 240.074219 305.65625 250.171875 313.207031 256.921875 C 314.007812 257.636719 315.21875 256.722656 314.746094 255.757812 C 311.1875 248.480469 303.546875 232.242188 299.394531 218.753906 C 299.039062 217.605469 297.347656 217.867188 297.347656 219.066406 Z M 297.347656 219.066406 " fill-opacity="1" fill-rule="nonzero"/><path fill="#94a3b8" d="M 191.972656 226.042969 L 191.972656 255.574219 C 191.972656 257.804688 193.78125 259.613281 196.011719 259.613281 L 222.484375 259.613281 C 225.089844 259.613281 227.5 258.222656 228.800781 255.96875 L 231.882812 250.640625 C 234.765625 245.65625 233.578125 239.316406 229.089844 235.707031 C 222.191406 230.167969 210.8125 223.164062 196.371094 222.019531 C 194.007812 221.832031 191.972656 223.671875 191.972656 226.042969 Z M 191.972656 226.042969 " fill-opacity="1" fill-rule="nonzero"/><path fill="#94a3b8" d="M 196.855469 318.359375 L 215.671875 318.359375 C 220.445312 318.359375 224.3125 314.492188 224.3125 309.71875 L 224.3125 275.398438 C 224.3125 270.625 220.445312 266.757812 215.671875 266.757812 L 196.855469 266.757812 C 194.160156 266.757812 191.972656 268.945312 191.972656 271.640625 L 191.972656 313.476562 C 191.972656 316.175781 194.160156 318.359375 196.855469 318.359375 Z M 196.855469 318.359375 " fill-opacity="1" fill-rule="nonzero"/><path fill="#94a3b8" d="M 262.652344 243.894531 L 250.480469 257.71875 C 245.351562 263.542969 242.519531 271.039062 242.519531 278.800781 L 242.519531 295.675781 C 242.519531 297.003906 244.078125 297.71875 245.082031 296.851562 L 255.710938 287.699219 C 261.84375 282.421875 265.367188 274.730469 265.367188 266.640625 L 265.367188 244.917969 C 265.367188 243.488281 263.597656 242.820312 262.652344 243.894531 Z M 262.652344 243.894531 " fill-opacity="1" fill-rule="nonzero"/><path fill="#94a3b8" d="M 260.671875 291.667969 L 248.613281 302.839844 C 244.726562 306.4375 242.519531 311.492188 242.519531 316.785156 L 242.519531 329.417969 C 242.519531 331.953125 245.617188 333.179688 247.351562 331.335938 L 259.765625 318.148438 C 263.363281 314.324219 265.367188 309.273438 265.367188 304.023438 L 265.367188 293.71875 C 265.367188 291.277344 262.460938 290.007812 260.671875 291.667969 Z M 260.671875 291.667969 " fill-opacity="1" fill-rule="nonzero"/></svg>