<svg xmlns="http://www.w3.org/2000/svg" xmlns:xlink="http://www.w3.org/1999/xlink" width="500" zoomAndPan="magnify" viewBox="0 0 375 374.999991" height="500" preserveAspectRatio="xMidYMid meet" version="1.0"><defs><clipPath id="cb2fdb1967"><path d="M 18.75 3 L 356.25 3 L 356.25 371.988281 L 18.75 371.988281 Z M 18.75 3 " clip-rule="nonzero"/></clipPath></defs><g clip-path="url(#cb2fdb1967)"><path fill="currentColor" d="M 187.515625 371.890625 C 148.597656 371.890625 104.476562 345.652344 102.617188 344.535156 C 101.761719 344.023438 101.226562 343.113281 101.195312 342.113281 L 100.171875 310.144531 C 100.167969 309.953125 100.179688 309.761719 100.210938 309.578125 L 106.328125 272.199219 C 107.9375 262.347656 105.277344 252.394531 99.027344 244.886719 C 95.023438 240.082031 92.433594 235.773438 90.855469 232.703125 L 77.175781 250.382812 C 77.609375 255.746094 78.253906 277.117188 64.175781 301.253906 C 63.722656 302.023438 62.945312 302.550781 62.0625 302.675781 C 61.179688 302.808594 60.28125 302.523438 59.632812 301.914062 L 19.679688 264.390625 C 19.089844 263.835938 18.753906 263.0625 18.753906 262.253906 L 18.753906 232.28125 C 18.753906 232.246094 18.757812 232.214844 18.757812 232.179688 C 20.074219 195.300781 39.445312 177.542969 45.246094 173.03125 C 44.121094 165.875 40.957031 139.660156 49.953125 114.179688 C 59.410156 87.394531 92.082031 75.910156 96.007812 74.617188 L 148.578125 43.324219 L 153.554688 10.617188 C 153.738281 9.386719 154.679688 8.410156 155.902344 8.175781 L 172.457031 5 C 182.441406 3.089844 192.574219 3.054688 202.574219 4.90625 L 220.234375 8.171875 C 221.464844 8.402344 222.414062 9.382812 222.601562 10.617188 L 227.578125 43.324219 L 280.148438 74.617188 C 284.070312 75.90625 316.75 87.390625 326.203125 114.179688 C 335.28125 139.890625 331.003906 165.394531 329.609375 172.097656 C 334.898438 177.5 354.9375 200.378906 356.273438 237.789062 C 356.277344 237.820312 356.277344 237.855469 356.277344 237.890625 L 356.277344 262.253906 C 356.277344 263.046875 355.953125 263.808594 355.382812 264.363281 L 316.554688 301.882812 C 315.910156 302.507812 315.011719 302.800781 314.117188 302.679688 C 313.222656 302.554688 312.4375 302.03125 311.984375 301.253906 C 297.90625 277.117188 298.546875 255.746094 298.984375 250.382812 L 285.300781 232.703125 C 283.722656 235.773438 281.136719 240.082031 277.132812 244.886719 C 270.878906 252.394531 268.21875 262.347656 269.828125 272.199219 L 275.945312 309.578125 C 275.976562 309.761719 275.988281 309.953125 275.984375 310.144531 L 274.960938 342.113281 C 274.929688 343.121094 274.382812 344.042969 273.511719 344.550781 C 271.609375 345.667969 226.417969 371.890625 187.515625 371.890625 Z M 187.515625 371.890625 " fill-opacity="1" fill-rule="nonzero"/></g><path fill="currentColor" d="M 184.320312 19.164062 L 184.320312 48.925781 C 184.320312 57.070312 181 64.839844 175.171875 70.34375 L 170.199219 75.039062 L 175.335938 79.386719 C 181.023438 84.199219 184.320312 91.382812 184.320312 98.964844 L 184.320312 222.324219 C 184.320312 224.59375 181.386719 225.386719 180.308594 223.40625 L 141.324219 166.921875 C 139.921875 164.355469 139.351562 161.402344 139.671875 158.476562 C 141.261719 143.96875 142.105469 97.484375 108.648438 83.730469 C 105.25 82.335938 104.984375 77.5 108.234375 75.769531 L 151.90625 52.515625 L 177.335938 16.808594 C 179.546875 13.707031 184.320312 15.316406 184.320312 19.164062 Z M 184.320312 19.164062 " fill-opacity="1" fill-rule="nonzero"/><path fill="currentColor" d="M 84.414062 83.976562 C 88.835938 81.867188 93.9375 81.710938 98.523438 83.429688 C 106.167969 86.292969 117.855469 90.960938 123.515625 103.082031 C 127.191406 110.960938 88.273438 107.917969 84.496094 137.414062 C 83.980469 141.4375 81.898438 145.109375 78.703125 147.613281 C 76.15625 149.609375 75.582031 149.609375 58.328125 165.132812 C 55.847656 167.359375 51.882812 166.148438 51.09375 162.910156 C 47.03125 146.195312 41.832031 104.277344 84.414062 83.976562 Z M 84.414062 83.976562 " fill-opacity="1" fill-rule="nonzero"/><path fill="currentColor" d="M 88.621094 145.714844 C 88.585938 132.851562 96.671875 121.371094 108.792969 117.066406 L 123.019531 112.015625 C 126.425781 110.394531 129.800781 112.816406 130.621094 116.5 C 132.882812 126.695312 135.703125 139.453125 133.175781 159.488281 C 132.832031 162.210938 130.960938 164.507812 128.359375 165.390625 L 94.707031 176.789062 C 91.605469 177.839844 88.410156 175.457031 88.542969 172.179688 C 88.652344 169.449219 88.648438 157.160156 88.621094 145.714844 Z M 88.621094 145.714844 " fill-opacity="1" fill-rule="nonzero"/><path fill="currentColor" d="M 96.445312 180.558594 C 92.960938 181.324219 90.527344 184.464844 90.589844 188.03125 C 90.730469 195.894531 91.574219 209.539062 95.371094 220.773438 C 103.914062 246.070312 123.8125 264.421875 125.738281 283.527344 C 125.859375 284.703125 127.214844 285.304688 128.179688 284.617188 L 171.917969 235.25 C 175.117188 232.972656 176.035156 228.625 174.03125 225.25 L 137.714844 173.203125 C 135.621094 170.507812 132.039062 169.460938 128.824219 170.609375 C 121.144531 173.359375 106.792969 178.285156 96.445312 180.558594 Z M 96.445312 180.558594 " fill-opacity="1" fill-rule="nonzero"/><path fill="currentColor" d="M 64.671875 171.167969 C 60.835938 179.648438 55.5 193.171875 54.085938 205.382812 C 53.457031 210.804688 51.394531 215.960938 47.917969 220.167969 C 45.78125 222.753906 43.617188 226.425781 42.464844 231.425781 C 40.894531 238.234375 36.070312 244.457031 32.164062 248.585938 C 29.886719 250.992188 25.828125 249.628906 25.460938 246.335938 C 23.730469 230.714844 24.125 193.636719 60.699219 167.871094 C 62.917969 166.308594 65.792969 168.695312 64.671875 171.167969 Z M 64.671875 171.167969 " fill-opacity="1" fill-rule="nonzero"/><path fill="currentColor" d="M 80.980469 155.640625 C 82.414062 153.90625 85.234375 155.050781 85.054688 157.292969 C 84.1875 168.125 83.03125 189.054688 85.695312 201.703125 C 88.765625 216.292969 69.964844 242.097656 55.777344 252.351562 C 53.128906 254.265625 49.609375 251.539062 50.777344 248.484375 L 54.929688 237.628906 C 58.0625 229.441406 59.773438 220.765625 59.824219 212 C 59.898438 199.34375 63.097656 177.296875 80.980469 155.640625 Z M 80.980469 155.640625 " fill-opacity="1" fill-rule="nonzero"/><path fill="currentColor" d="M 184.320312 239.320312 L 184.320312 356.019531 C 184.320312 359.109375 180.828125 360.800781 178.519531 358.832031 L 165.699219 347.894531 C 157.941406 341.273438 148.1875 337.652344 138.117188 337.652344 C 133.699219 337.652344 130.046875 334.105469 129.785156 329.5625 L 127.949219 297.660156 C 127.734375 293.875 129.417969 290.238281 132.414062 288.03125 L 178.71875 236.351562 C 181.0625 234.625 184.320312 236.351562 184.320312 239.320312 Z M 184.320312 239.320312 " fill-opacity="1" fill-rule="nonzero"/><path fill="currentColor" d="M 114.152344 267.414062 C 114.152344 267.414062 122.289062 300.617188 125.21875 332.359375 C 125.445312 334.804688 123.117188 336.769531 120.671875 336.96875 L 114.386719 337.601562 C 111.765625 337.8125 109.433594 335.949219 109.066406 333.347656 L 107.730469 323.898438 C 106.546875 315.535156 106.941406 307.023438 108.894531 298.808594 Z M 114.152344 267.414062 " fill-opacity="1" fill-rule="nonzero"/><path fill="currentColor" d="M 190.519531 19.164062 L 190.519531 48.925781 C 190.519531 57.070312 193.839844 64.839844 199.667969 70.34375 L 204.640625 75.039062 L 199.5 79.386719 C 193.816406 84.199219 190.519531 91.382812 190.519531 98.964844 L 190.519531 222.324219 C 190.519531 224.59375 193.449219 225.386719 194.53125 223.40625 L 233.515625 166.921875 C 234.917969 164.355469 235.488281 161.402344 235.167969 158.476562 C 233.574219 143.96875 232.734375 97.484375 266.191406 83.730469 C 269.585938 82.335938 269.851562 77.5 266.605469 75.769531 L 222.933594 52.515625 L 197.5 16.808594 C 195.292969 13.707031 190.519531 15.316406 190.519531 19.164062 Z M 190.519531 19.164062 " fill-opacity="1" fill-rule="nonzero"/><path fill="currentColor" d="M 290.425781 83.976562 C 286.003906 81.867188 280.902344 81.710938 276.316406 83.429688 C 268.667969 86.292969 256.980469 90.960938 251.324219 103.082031 C 247.65625 110.945312 287.546875 108.351562 290.511719 137.304688 C 290.933594 141.417969 293.007812 145.1875 296.273438 147.722656 C 298.707031 149.613281 299.574219 149.898438 316.511719 165.132812 C 318.988281 167.359375 322.957031 166.148438 323.742188 162.910156 C 327.804688 146.195312 333.003906 104.277344 290.425781 83.976562 Z M 290.425781 83.976562 " fill-opacity="1" fill-rule="nonzero"/><path fill="currentColor" d="M 286.21875 145.714844 C 286.25 132.851562 278.164062 121.371094 266.042969 117.066406 L 251.820312 112.015625 C 248.414062 110.394531 245.035156 112.816406 244.21875 116.5 C 241.953125 126.695312 239.132812 139.453125 241.664062 159.488281 C 242.007812 162.210938 243.875 164.507812 246.476562 165.390625 L 280.128906 176.789062 C 283.234375 177.839844 286.425781 175.457031 286.296875 172.179688 C 286.1875 169.449219 286.1875 157.160156 286.21875 145.714844 Z M 286.21875 145.714844 " fill-opacity="1" fill-rule="nonzero"/><path fill="currentColor" d="M 278.394531 180.558594 C 281.878906 181.324219 284.3125 184.464844 284.246094 188.03125 C 284.109375 195.894531 283.265625 209.539062 279.46875 220.773438 C 270.921875 246.070312 251.023438 264.421875 249.097656 283.527344 C 248.980469 284.703125 247.621094 285.304688 246.65625 284.617188 L 202.917969 235.984375 C 199.722656 233.707031 198.804688 229.359375 200.804688 225.984375 L 237.125 173.203125 C 239.214844 170.507812 242.800781 169.460938 246.011719 170.609375 C 253.691406 173.359375 268.046875 178.285156 278.394531 180.558594 Z M 278.394531 180.558594 " fill-opacity="1" fill-rule="nonzero"/><path fill="currentColor" d="M 310.167969 171.167969 C 314.003906 179.648438 319.339844 193.171875 320.753906 205.382812 C 321.378906 210.804688 323.445312 215.960938 326.921875 220.167969 C 329.058594 222.753906 331.21875 226.425781 332.371094 231.425781 C 333.945312 238.234375 338.769531 244.457031 342.675781 248.585938 C 344.953125 250.992188 349.011719 249.628906 349.378906 246.335938 C 351.109375 230.714844 350.710938 193.636719 314.140625 167.871094 C 311.921875 166.308594 309.046875 168.695312 310.167969 171.167969 Z M 310.167969 171.167969 " fill-opacity="1" fill-rule="nonzero"/><path fill="currentColor" d="M 293.859375 155.640625 C 292.425781 153.90625 289.601562 155.050781 289.78125 157.292969 C 290.652344 168.125 291.804688 189.054688 289.140625 201.703125 C 286.070312 216.292969 304.875 242.097656 319.058594 252.351562 C 321.710938 254.265625 325.226562 251.539062 324.058594 248.484375 L 319.90625 237.628906 C 316.777344 229.441406 315.066406 220.765625 315.011719 212 C 314.9375 199.34375 311.738281 177.296875 293.859375 155.640625 Z M 293.859375 155.640625 " fill-opacity="1" fill-rule="nonzero"/><path fill="currentColor" d="M 190.519531 239.320312 L 190.519531 356.019531 C 190.519531 359.109375 194.011719 360.800781 196.320312 358.832031 L 209.140625 347.894531 C 216.894531 341.273438 226.648438 337.652344 236.722656 337.652344 C 241.140625 337.652344 244.792969 334.105469 245.054688 329.5625 L 246.886719 297.660156 C 247.105469 293.875 245.421875 290.238281 242.425781 288.03125 L 196.121094 236.351562 C 193.777344 234.625 190.519531 236.351562 190.519531 239.320312 Z M 190.519531 239.320312 " fill-opacity="1" fill-rule="nonzero"/><path fill="currentColor" d="M 260.683594 267.414062 C 260.683594 267.414062 252.546875 300.617188 249.617188 332.359375 C 249.390625 334.804688 251.71875 336.769531 254.167969 336.96875 L 260.453125 337.601562 C 263.074219 337.8125 265.40625 335.949219 265.773438 333.347656 L 267.109375 323.898438 C 268.292969 315.535156 267.894531 307.023438 265.945312 298.808594 Z M 260.683594 267.414062 " fill-opacity="1" fill-rule="nonzero"/></svg>